<svg xmlns="http://www.w3.org/2000/svg" width="100%" viewBox="0 0 1024 1024" height="150" xmlns:v="https://vecta.io/nano"><style><![CDATA[.B{fill:#5625d1}.C{fill:#c3b1fd}.D{fill:#d6d5fe}.E{fill:#5e30d3}.F{fill:#dbdffd}.G{fill:#673bda}.H{fill:#673cdc}.I{fill:#c9bbfd}.J{fill:#e5f0fd}.K{fill:#e0e5fd}.L{fill:#e6effe}.M{fill:#d6d5fd}.N{fill:#e5edfe}.O{fill:#e5ecfe}.P{fill:#cec7fd}.Q{fill:#ccc0fe}.R{fill:#e5f0fe}]]></style><path fill="#fefeff" d="M1 351V1h1024v1024H1V351M623.435 66.535c-1.121.557-2.242 1.113-4.156 1.598-.756.224-1.513.448-2.849.454-1.108.559-2.217 1.118-4.06 1.615-.453.173-.905.347-2.05.352l-20.097 8.403s-.334.359-.898.281c-.308.203-.615.407-1.133.498 0 0-.186.149-.932.229-4.264 2.272-8.528 4.544-13.351 6.805-.308.201-.615.402-1.62.518-20.689 11.083-39.637 24.596-55.9 40.597-10.207-8.149-19.675-16.245-29.69-23.597-22.393-16.439-47.096-28.551-73.763-36.137-13.792-3.924-28.071-6.281-42.24-8.704-23.689-4.051-47.387-2.467-70.99 1.169-1.632.251-3.102 1.556-5.487 2.274-1.407.051-2.815.102-4.712-.331-5.807 1.303-11.727 2.234-17.4 3.973-22.862 7.006-44.851 16.15-64.82 29.414-10.565 7.017-20.348 15.212-30.319 23.039 0 0-.141-.185-.817-.041l-25.164 26.051s-.084-.109-.735.044l-11.248 14.973s.043.068-.594.232c-2.681 3.781-5.507 7.468-8.018 11.358-13.48 20.884-24.206 43.124-30.357 67.222-3.955 15.496-7.019 31.302-9.164 47.147-1.416 10.464-.445 21.245-.664 31.882-.036 1.749-.699 3.484-1.157 5.205 0 0 .02.086-.661.173-3.416 2.622-7.048 5.009-10.214 7.905-26.045 23.822-42.28 52.588-46.354 88.233-2.157 18.871-.53 37.182 3.896 55.286 4.831 19.757 14.081 37.637 27.565 52.894 6.493 7.346 14.476 13.376 22.007 20.396 0 0 .395.221.609.867 8.829 5.189 17.553 10.572 26.55 15.451 2.852 1.546 4.18 2.898 4.099 6.3-.315 13.36 1.89 26.405 5.44 39.269 8.536 30.931 26.021 55.762 51.679 74.695 23.854 17.602 50.604 27.052 80.569 26.315 3.826-.094 7.655-.084 11.482-.036 1.199.015 2.394.311 4.183.56-1.951 2.974-3.6 5.245-4.998 7.662l-18.36 31.378a300.31 300.31 0 0 0-23.635 60.725c-4.865 18.095-7.766 36.606-9.85 55.318-3.04 27.295-.964 54.203 3.216 81.092 1.318 8.476 7.637 13.668 16.232 14.229 3.654.238 7.32.4 10.981.401l275.498.032 273.998-.065c5.648-.004 11.431.077 16.893-1.09 3.072-.656 7.037-3.223 8.107-5.918 2.374-5.981 3.19-12.582 4.585-18.943.089-.407-.457-.923-.448-1.384.04-1.991.003-4.007.312-5.963.689-4.361 2.046-8.667 2.264-13.039.39-7.815-.102-15.671.206-23.492.757-19.257-1.419-38.309-5.055-57.083-2.829-14.608-7.045-29.011-11.56-43.214-8.763-27.567-21.285-53.348-38.684-76.615-.825-1.103-1.326-2.449-2.394-4.47l12.714.017c16.344.476 31.966-2.999 47.107-8.791 34.984-13.384 59.823-37.713 75.341-71.48 4.602-10.015 8.424-20.631 10.759-31.373 2.057-9.465 1.58-19.487 2.131-29.268.135-2.404.186-4.19 3.135-5.36 20.672-8.199 37.793-21.219 51.856-38.465 16.224-19.895 26.661-42.622 30.05-67.788 2.887-21.437 1.878-43.05-4.798-64.191-8.984-28.45-25.759-51.074-49.113-69.125-2.451-1.895-3.502-3.68-3.672-6.907-.87-16.573-1.747-33.165-3.395-49.673-1.652-16.543-6.3-32.49-12.184-47.999-11.934-31.454-29.34-59.614-52.35-84.16-6.432-6.862-13.84-12.808-20.982-19.482 0 0-.347-.087-.618-.721-16.161-13.726-33.818-25.189-53.156-33.834-11.116-4.97-22.681-8.936-34.603-13.624-.602-.041-1.203-.081-2.266-.581-1.793-.427-3.586-.853-5.786-1.496-.306-.102-.607-.088-1.387-.487l-21.638-4.932c-.49.026-.98.053-2.028-.398l-11.089-.842c-.748.012-1.496.024-2.785-.416-3.003-.645-6.023-1.917-9.006-1.833-18.427.522-36.897.756-55.247 2.32-9.456.806-18.695 4.16-28.78 6.252-.47.17-.939.341-1.984.248z"/><path fill="#5a20ec" d="M85.686 548.164s-.395-.221-.569-.727c-1.886-2.308-3.42-4.331-5.339-5.876-10.293-8.286-18.751-18.226-25.563-29.43-7.734-12.721-14.76-25.849-16.744-40.986-1.46-11.136-3.843-22.23-4.247-33.399-.328-9.062 2.192-18.191 2.512-27.323.374-10.671 4.287-20.164 8.447-29.574 8.062-18.236 19.155-34.353 34.475-47.394 3.71-3.158 6.955-6.862 10.414-10.314 0 0-.02-.086.427-.101 1.115-1.141 2.354-2.261 2.365-3.393.173-16.821-.464-33.611 3.898-50.206 2.908-11.065 3.199-22.873 6.611-33.736 4.103-13.061 9.778-25.711 15.717-38.085 4.293-8.943 10.234-17.084 15.224-25.708 2.189-3.784 3.839-7.88 5.734-11.835 0 0-.043-.068.353-.063 3.364-3.494 6.424-6.921 9.254-10.529 1.031-1.314 1.516-3.056 2.249-4.602 0 0 .084.109.385.071l25.179-24.288c.372-.366.251-1.234.36-1.869 0 0 .141.185.431.158 2.056-1.148 3.871-2.2 5.581-3.4 8.992-6.312 17.64-13.187 27.017-18.858 10.346-6.256 21.131-11.901 32.127-16.936 13.947-6.387 28.437-11.418 43.693-13.933 1.551-.256 2.885-1.826 4.32-2.787 1.407-.051 2.815-.102 5.027-.091 8.793-.942 16.801-2.907 24.766-2.749 16.374.325 32.814-2.089 49.153 1.625 11.451 2.603 23.275 3.578 34.702 6.261 9.887 2.322 19.529 5.801 29.121 9.213 4.746 1.688 9.202 4.254 13.674 6.639 12.91 6.886 26.294 13.072 38.467 21.089 9.785 6.445 18.096 15.136 27.016 22.881 2.231 1.937 4.32 3.057 6.964.659 5.499-4.987 10.663-10.476 16.701-14.709 11.554-8.101 23.644-15.434 35.434-23.203.959-.632 1.322-2.169 1.962-3.285.308-.201.615-.402 1.623-.534 4.933-2.272 9.165-4.613 13.397-6.953 0 0 .186-.149.571-.086.694-.119 1.003-.301 1.312-.482 0 0 .334-.359.893-.342.774.038.989.058 1.357.294.71.051 1.267-.113 2.047-.557 3.758-1.759 7.293-3.237 11.192-4.713 1.443-.33 2.523-.663 3.772-1.24.725-.42 1.279-.596 2.201-.766 1.458-.329 2.548-.664 3.897-1.103.753-.361 1.246-.619 2.108-.876 1.467-.33 2.566-.661 3.956-1.12 1.084-.382 1.878-.636 2.872-.699 1.405-.264 2.609-.719 4.152-1.321 1.779-.397 3.218-.648 5.063-.89l7.981-1.982 4.961-.038c1.784-.629 3.196-1.274 5.012-1.933l4.006-.039c1.48-.327 2.59-.66 4.089-.992 1.425-.006 2.461-.013 3.675.206.73-.23 1.283-.686 2.282-1.16l8.067-.073h34.955l5.8.019c.242.005.724-.003.741.012s.05.043.133.426c3.046.754 6.009 1.126 9.383 1.509 1.784.03 3.157.047 4.757.363 3.085.749 5.942 1.2 9.169 1.656 1.108.01 1.846.015 2.793.286 1.085.409 1.962.551 3.172.706.778.034 1.223.056 1.895.353 2.406.74 4.584 1.203 7.099 1.681.787.044 1.236.074 1.909.363 2.058.723 3.893 1.187 5.726 1.651-.003.001-.003-.005.225.268 2.081.748 3.935 1.224 6.113 1.868l7.202 2.765c5.676 2.134 11.526 3.898 16.989 6.482 8.632 4.083 17.091 8.557 25.453 13.173 5.509 3.04 10.858 6.42 16.028 10.009 5.839 4.053 11.359 8.564 17.121 12.733.806.583 2.203.351 3.326.496 0 0 .347.087.441.586 3.447 4.074 6.837 7.612 10.142 11.229 7.338 8.031 14.917 15.865 21.856 24.228 5.648 6.807 10.961 13.989 15.604 21.509 5.626 9.112 10.807 18.559 15.4 28.232 3.765 7.93 6.766 16.282 9.428 24.662 3.874 12.197 8.533 24.387 10.334 36.942 2.627 18.311 2.943 36.949 4.451 55.431.171 2.093 1.174 4.602 2.651 6.024 8.566 8.245 18.381 15.398 25.917 24.464 14.971 18.009 24.365 38.935 27.425 62.393 2.65 20.312 3.173 40.236-2.554 60.54-6.06 21.485-16.158 40.275-30.273 57.077-12.541 14.928-28.982 24.718-46.485 32.759-3.25 1.493-4.858 3.153-4.871 7-.03 8.789.327 17.755-1.264 26.316-1.662 8.938-5.504 17.459-8.25 26.208-4.697 14.965-13.01 27.964-23.119 39.588-11.966 13.761-26.041 25.06-42.705 33.159-18.812 9.142-38.594 13.228-59.284 13.868-2.83.088-5.687-.173-8.492.117-4.083.422-5.041 2.601-2.721 5.908 1.776 2.531 4.066 4.746 5.571 7.415 6.519 11.556 13.307 22.998 19.087 34.922 5.383 11.107 10.128 22.592 14.195 34.245 3.503 10.036 5.808 20.506 8.356 30.854 2.117 8.602 4.685 17.224 5.507 25.983 1.386 14.768 1.727 29.646 2.179 44.487.522 17.107-.109 34.157-2.925 51.113-1.668 10.041-4.198 14.218-10.956 14.892-5.768.575-11.581 1.05-17.369.998l-43.372-.835c-9.123-.042-18.248.795-27.374.859l-60.328.044-221.796.003c-53.409 0-106.817.022-160.225-.041-4.625-.005-9.25-.819-13.875-.813-4.959.007-9.914.653-14.878.809-4.746.149-9.505-.116-14.25.057-6.3.23-12.993-3.542-14.865-9.487-1.255-3.986-1.503-8.322-1.936-12.529-1.354-13.153-3.125-26.296-3.666-39.487-.357-8.693 1.163-17.459 1.775-26.197.405-5.785.485-11.6 1.078-17.363.838-8.154 1.356-16.427 3.198-24.373 2.811-12.124 6.515-24.048 10.081-35.986 1.892-6.334 4.04-12.619 6.522-18.744 3.522-8.692 7.459-17.215 11.474-26.04l9.003-15.183 12.965-20.98c1.926-3.253.775-4.944-2.789-4.868l-15.704.253c-11.002.131-21.626-1.833-32.246-4.752-12.177-3.346-23.986-7.566-34.505-14.398-15.893-10.323-30.212-22.434-41.243-38.275-7.794-11.193-13.94-23.011-17.817-35.994-1.809-6.06-3.186-12.292-4.205-18.536-1.495-9.164-3.054-18.387-3.434-27.632-.158-3.838-1.19-5.202-4.279-6.48-3.951-1.635-7.763-3.629-11.549-5.631l-16.812-9.178m511.253 241.567s-.312-.025.404-.05c3.509-2.577 6.346-5.565 6.289-10.849.206-.281.413-.563 1.279-.974 2.338-6.198 4.97-12.308 6.859-18.64.677-2.27-.435-5.074-.731-7.635-.696.161-1.392.321-2.679.929-.48.093-.959.187-1.948-.204-6.55 1.771-13.028 3.896-19.665 5.235-11.973 2.414-24.05 4.302-36.06 6.541-2.624.489-5.145 1.529-8.598 2.618l-51.31-.829c-.737-.288-1.452-.718-2.215-.842l-34.637-5.618c-7.821-1.473-15.551-3.539-23.208-5.738-3.965-1.139-4.704.463-4.741 3.807-.109 9.583 3.604 17.949 8.427 25.852 6.733 11.033 16.433 18.988 28.129 24.084 4.877 2.125 10.641 2.217 16.507 3.166.32.106.641.212 1.318 1.031l15.262.956s.398.228.642.891c6.754 4.894 9.032 11.402 8.9 19.777l-.07 77.366c.03 4.768 1.062 9.53 1.831 15.047l.08 2.339c1.457.658 2.914 1.867 4.373 1.869 3.949.005 7.944-1.029 11.84-.7 8.349.705 8.758.576 8.759-7.8l.012-92.282c.006-8.784 3.822-13.684 12.268-15.291 6.117-1.164 12.585-1.073 18.419-2.991 8.669-2.85 17.079-6.658 25.248-10.759 2.525-1.268 3.905-4.816 6.07-7.067 0 0-.276-.237.475-.116.722-1.063 1.443-2.126 2.47-3.121m106.586-148.437s.137-.317.727-.283c.565-.165 1.129-.329 2.142-.334.615-.505 1.23-1.011 2.24-1.567 0 0 .339-.208.877-.201.264-.228.529-.457 1.164-.724 0 0 .322-.187.875-.186.271-.237.542-.475 1.363-.781.334-.153.667-.306 1.702-.368 1.458-.641 2.915-1.282 5.02-1.931.414-.111.828-.222 2.064-.153 2.447-.355 4.883-.906 7.341-1.026 5.395-.265 10.801-.312 16.631-.337l.441.034s.44-.049.802.533c1.064.208 2.129.416 3.677.855.176.031.352.062.823.56.516-.012 1.031-.024 2.209.338 1.608.722 3.216 1.444 4.797 2.527l.301.197s.305-.191.857.305c2.482 1.748 4.964 3.497 7.556 5.743.299.118.598.235 1.281.718.252.247.504.495.791 1.231.182.334.46.464 1.279.88 1.282 1.522 2.565 3.044 3.781 5.268 1.493 2.57 2.987 5.139 4.513 8.425-.898.456-1.861 1.4-2.684 1.29-6.265-.832-12.472-2.215-18.755-2.766-10.117-.887-19.598 1.487-29.077 6.619 1.58 1.174 2.4 2.055 3.411 2.495 23.244 10.116 47.337 12.625 71.675 5.578 39.521-11.444 64.575-37.687 75.155-77.404 3.844-14.432 4.907-28.768-4.746-42.036-5.307-7.294-7.45-15.845-6.735-25.039 1.155-14.849 17.619-29.357 32.456-27.759-1.123 3.198-2.417 6.208-3.226 9.343-1.233 4.782-3.016 9.661-2.961 14.481.083 7.22 6.077 10.651 12.112 7.874 15.523-7.141 29.179-16.863 39.463-30.577 27.268-36.358 30.928-75.594 10.695-115.905-10.681-21.28-26.843-38.13-50.972-45.639-13.763-4.283-24.545-12.813-28.512-27.544-2.678-9.944-1.504-19.547 4.293-29.082 8.957 8.603 15.038 19.686 28.44 22.718 0-2.51.146-4.31-.025-6.08-.865-8.94-1.518-17.915-2.786-26.8-3.927-27.511-13.516-53.02-27.613-76.922-16.76-28.419-39.095-51.527-66.351-69.939-27.531-18.598-57.85-30.175-90.713-34.758-23.05-3.214-46.087-2.951-69.091 1.373-16.536 3.108-32.518 7.782-47.872 14.563-28.202 12.456-52.781 29.993-73.73 52.674-8.242 8.924-21.705 8.528-29.937-.24-36.993-39.397-82.035-62.782-135.978-68.994-29.533-3.401-58.27-.529-86.666 7.928-31.31 9.326-58.904 25.159-83.008 47.017-41.188 37.349-64.035 84.185-70.632 139.105-.87 7.245-.12 14.685-.12 22.073 14.838-2.391 22.708-13.809 31.54-23.838 5.765 6.885 7.777 20.956 4.937 29.415-5.438 16.199-17.848 24.046-33.265 28.693-6.298 1.898-13.243 3.324-18.412 7.03-39.139 28.063-54.646 77.289-38.597 122.725 10.218 28.929 30.065 49.36 58.144 61.666 2.984 1.308 6.472 1.468 9.726 2.16.118-3.579.92-7.305.195-10.704-1.123-5.265-3.288-10.308-5.024-15.482 11.959-1.622 26.252 8.446 30.449 20.641 4.1 11.912.083 22.099-5.475 32.285-2.597 4.76-5.507 9.689-6.548 14.888-2.272 11.345 1.648 22.107 5.79 32.395 21.895 54.384 81.042 80.554 136.046 60.429 2.52-.922 4.886-2.264 8.397-3.915-16.728-8.51-32.662-6.567-49.601-2.615.902-2.558 1.327-4.095 1.971-5.534 7.545-16.881 28.135-27.402 47.781-24.513 20.066 2.95 36.258 12.933 49.131 28.125 10.83 12.782 22.708 24.299 36.342 33.97 25.45 18.054 53.217 31.135 84.371 34.83 18.616 2.208 37.54 2.213 56.335 2.442 38.282.467 73.377-10.096 105.839-30.558 20.801-13.112 36.959-30.788 53.206-49.262.182-.3.365-.601.9-1.149.229-.179.424-.389 1.135-.762.206-.303.411-.606 1.093-1.176.398-.373.795-.746 1.799-1.331l11.028-8.229m87.693 239.238c-3.446-67.264-27.774-125.75-73.534-175.242.076 1.667.782 3.101 1.188 4.617 3.386 12.651 8.294 25.139 9.742 38.014 3.187 28.334-3.498 54.911-19.234 78.87-2.768 4.214-3.227 7.084-.529 11.77 7.411 12.873 8.655 31.54-5.272 45.606-2.341 2.364-4.944 4.494-7.086 7.02-1.034 1.219-1.86 3.135-1.785 4.687.4 8.287-3.271 14.413-9.658 19.156-7.125 5.29-17.477 4.946-25.196-.689-6.852-5.002-10.52-15.568-8.023-23.113 3.157-9.539 11.09-15.615 20.327-15.568 7.073.036 16.805-9.292 17.137-16.426.363-7.8-4.847-16.201-12.159-19.608-11.647-5.426-25.522 3.208-25.937 16.102-.053 1.651-.183 3.365-.675 4.925-3.116 9.881-13.843 16.479-23.831 14.768-11.043-1.891-18.724-10.84-18.416-21.456.323-11.127 8.507-21.446 19.07-21.276 6.756.108 9.904-3.238 13.588-7.174 11.761-12.564 25.876-15.608 41.851-9.905 3.301 1.179 4.6.387 6.241-2.285 18.859-30.705 20.448-62.575 6.443-95.429-2.152-5.049-5.266-9.688-7.463-13.662l-41.215 29.6c-2.814 1.961-3.98 3.668-3.694 7.15 1.912 23.257-3.753 44.537-17.309 63.604-14.376 20.22-34.112 32.203-58.165 37.298-3.461.733-4.532 2.092-4.507 5.635l.027 74.475c-.036 4.518 1.042 5.928 5.765 5.917l214.433-.121h6.823l1.053-47.259m-425.442-57.121c28.88-.726 51.743 25.69 45.672 55.164-5.462 26.521-32.766 43.421-59.335 33.956-34.976-12.461-39.148-52.471-19.621-73.211 1.822-1.936 2.043-3.461.42-5.605-11.538-15.24-18.869-32.366-22.403-51.104-2.925-15.51-3.565-31.124.161-46.551 2.187-9.054 5.466-17.843 8.186-26.772.258-.848.034-1.842.034-3.807-3.912 4.419-7.343 7.994-10.439 11.839-41.722 51.803-62.067 111.184-62.524 177.501-.063 9.139 1.175 18.284 1.219 27.428.023 4.792 1.807 5.739 6.198 5.726l122.959-.037 92.469-.118c2.824-.004 5.601.527 5.57-4.084l-.049-76.973c.01-3.151-1.178-4.324-4.211-4.864-15.875-2.826-30.127-9.481-42.397-19.827-24.12-20.339-34.696-46.763-33.603-78.027.12-3.425-.653-5.359-3.766-7.152-6.897-3.973-13.611-8.31-20.119-12.898-7.419-5.231-14.532-10.896-22.117-16.629-6.589 9.369-10.228 19.705-12.446 30.407-5.883 28.384-.871 54.76 15.194 79.108 3.636 5.511 7.334 8.723 14.946 6.53m-8.8 37.099c-5.44 7.473-4.007 16.159 3.314 20.084 5.75 3.083 13.301 1.427 17.03-3.733 3.762-5.206 3.018-12.582-1.748-17.345-4.683-4.681-11.805-4.48-18.597.995z"/><path d="M248.044 750.049l-11.219 25.81c-2.482 6.125-4.63 12.41-6.522 18.744-3.566 11.937-7.27 23.862-10.081 35.986-1.842 7.947-2.36 16.219-3.198 24.373-.592 5.764-.673 11.578-1.078 17.363-.612 8.738-2.131 17.504-1.775 26.197.541 13.191 2.312 26.334 3.666 39.487.433 4.207.681 8.543 1.936 12.529 1.872 5.945 8.565 9.717 14.865 9.487 4.744-.173 9.504.092 14.25-.057 4.964-.156 9.919-.802 14.878-.809 4.624-.006 9.249.807 13.875.813l160.225.041 221.796-.003 60.328-.044c9.127-.064 18.251-.901 27.374-.859l43.372.835c5.788.051 11.601-.424 17.369-.998 6.759-.674 9.289-4.851 10.956-14.892 2.816-16.956 3.447-34.005 2.925-51.113-.452-14.841-.793-29.719-2.179-44.487-.822-8.759-3.39-17.382-5.507-25.983-2.548-10.349-4.853-20.818-8.356-30.854-4.067-11.653-8.812-23.139-14.195-34.245-5.779-11.925-12.567-23.367-19.087-34.922-1.506-2.669-3.796-4.883-5.571-7.415-2.32-3.307-1.362-5.486 2.721-5.908 2.804-.29 5.661-.029 8.492-.117 20.69-.64 40.472-4.726 59.284-13.868 16.664-8.099 30.739-19.398 42.705-33.159 10.108-11.624 18.421-24.623 23.119-39.588 2.746-8.748 6.589-17.27 8.25-26.208 1.592-8.561 1.235-17.526 1.264-26.316.013-3.847 1.621-5.507 4.871-7 17.502-8.041 33.944-17.832 46.485-32.759 14.115-16.802 24.213-35.592 30.273-57.077 5.727-20.303 5.203-40.227 2.554-60.54-3.06-23.458-12.454-44.384-27.425-62.393-7.536-9.066-17.351-16.219-25.917-24.464-1.478-1.422-2.48-3.931-2.651-6.024-1.509-18.482-1.824-37.12-4.451-55.431-1.801-12.555-6.46-24.745-10.334-36.942-2.662-8.38-5.662-16.732-9.428-24.662-4.593-9.673-9.774-19.119-15.4-28.232-4.643-7.521-9.956-14.702-15.604-21.509-6.939-8.363-14.518-16.198-21.856-24.228-3.305-3.617-6.696-7.155-10.051-11.075 6.957 6.021 14.365 11.967 20.797 18.829 23.011 24.546 40.417 52.706 52.35 84.16 5.884 15.509 10.532 31.456 12.184 47.999 1.648 16.508 2.525 33.1 3.395 49.673.169 3.228 1.22 5.013 3.672 6.907 23.354 18.051 40.129 40.675 49.113 69.125 6.676 21.141 7.685 42.754 4.798 64.191-3.389 25.166-13.826 47.893-30.05 67.788-14.063 17.246-31.184 30.266-51.856 38.465-2.95 1.17-3 2.956-3.135 5.36-.551 9.781-.074 19.803-2.131 29.268-2.334 10.742-6.156 21.358-10.759 31.373-15.518 33.767-40.357 58.096-75.341 71.48-15.141 5.792-30.763 9.267-47.107 8.791-3.942-.115-7.89-.017-12.714-.017 1.068 2.021 1.569 3.367 2.394 4.47 17.399 23.267 29.921 49.048 38.684 76.615 4.515 14.203 8.731 28.606 11.56 43.214 3.636 18.774 5.812 37.827 5.055 57.083-.307 7.822.184 15.678-.206 23.492-.218 4.372-1.575 8.679-2.264 13.039-.309 1.957-.273 3.973-.312 5.963-.009.46.537.977.448 1.384-1.395 6.361-2.211 12.962-4.585 18.943-1.07 2.695-5.035 5.262-8.107 5.918-5.462 1.166-11.244 1.086-16.893 1.09l-273.998.065c-91.833.002-183.665-.005-275.498-.032-3.661-.001-7.327-.163-10.981-.401-8.595-.561-14.914-5.753-16.232-14.229-4.18-26.889-6.256-53.797-3.216-81.092 2.084-18.712 4.985-37.222 9.85-55.318 5.656-21.037 13.551-41.342 24.156-60.906.521-.181.979-.176.979-.176z" class="G"/><path d="M572.636 87.33c-.292 1.159-.655 2.695-1.614 3.327-11.79 7.77-23.88 15.103-35.434 23.203-6.038 4.233-11.201 9.722-16.701 14.709-2.645 2.398-4.733 1.278-6.964-.659-8.92-7.745-17.231-16.436-27.016-22.881-12.173-8.017-25.557-14.203-38.467-21.089-4.472-2.385-8.928-4.951-13.674-6.639-9.592-3.412-19.234-6.891-29.121-9.213-11.427-2.683-23.252-3.658-34.702-6.261-16.339-3.714-32.779-1.3-49.153-1.625-7.965-.158-15.973 1.807-24.346 2.798 1.16-.828 2.63-2.133 4.262-2.384 23.603-3.636 47.301-5.219 70.99-1.169 14.169 2.423 28.448 4.781 42.24 8.704 26.666 7.586 51.369 19.698 73.763 36.137 10.015 7.352 19.483 15.447 29.69 23.597 16.263-16.001 35.21-29.514 56.248-40.555z" class="E"/><path d="M248.3 749.819c-.255.229-.714.224-.944.221l17.548-31.013c1.398-2.417 3.047-4.688 4.998-7.662l-4.183-.56c-3.827-.048-7.656-.058-11.482.036-29.966.737-56.716-8.713-80.569-26.315-25.658-18.933-43.143-43.764-51.679-74.695-3.55-12.865-5.755-25.91-5.44-39.269.08-3.401-1.248-4.753-4.099-6.3-8.997-4.879-17.721-10.263-26.657-15.774 5.493 2.744 11.062 5.871 16.705 8.855 3.786 2.002 7.598 3.996 11.549 5.631 3.088 1.278 4.121 2.642 4.279 6.48.38 9.245 1.939 18.467 3.434 27.632 1.019 6.244 2.395 12.476 4.205 18.536 3.877 12.984 10.022 24.801 17.817 35.994 11.031 15.841 25.35 27.952 41.243 38.275 10.519 6.832 22.328 11.052 34.505 14.398 10.62 2.919 21.244 4.883 32.246 4.752l15.704-.253c3.563-.076 4.715 1.616 2.789 4.868-4.188 7.072-8.691 13.957-12.965 20.98l-9.003 15.183zM88.731 323.185c-3.118 3.409-6.364 7.113-10.073 10.271-15.32 13.041-26.413 29.158-34.475 47.394-4.16 9.41-8.073 18.903-8.447 29.574-.32 9.132-2.839 18.261-2.512 27.323.404 11.169 2.787 22.263 4.247 33.399 1.984 15.137 9.01 28.265 16.744 40.986 6.812 11.204 15.27 21.144 25.563 29.43 1.919 1.545 3.453 3.568 5.227 5.679-7.246-6.318-15.229-12.347-21.722-19.694-13.484-15.257-22.734-33.137-27.565-52.894-4.426-18.104-6.053-36.415-3.896-55.286 4.074-35.645 20.309-64.411 46.354-88.233 3.166-2.896 6.798-5.282 10.555-7.948zm49.998-163.025c-1.577 3.872-3.227 7.969-5.416 11.753-4.99 8.624-10.931 16.765-15.224 25.708-5.94 12.374-11.615 25.024-15.717 38.085-3.412 10.863-3.703 22.671-6.611 33.736-4.361 16.595-3.724 33.385-3.898 50.206-.012 1.133-1.25 2.252-2.323 3.404-.031-1.716.632-3.452.668-5.2.219-10.637-.753-21.418.664-31.882a417.49 417.49 0 0 1 9.164-47.147c6.15-24.098 16.876-46.338 30.357-67.222 2.511-3.89 5.337-7.577 8.336-11.44zM289.752 62.8c-1.19 1.203-2.524 2.773-4.075 3.029-15.256 2.515-29.746 7.546-43.693 13.933-10.995 5.035-21.781 10.68-32.127 16.936-9.378 5.67-18.025 12.546-27.017 18.858-1.71 1.201-3.525 2.252-5.664 3.318 9.764-7.717 19.547-15.912 30.112-22.929 19.968-13.264 41.958-22.408 64.82-29.414 5.673-1.738 11.593-2.67 17.645-3.731z" fill="#7343df"/><path d="M853.325 116.476c-.988.172-2.384.405-3.191-.179-5.762-4.169-11.282-8.679-17.121-12.733-5.17-3.589-10.52-6.969-16.028-10.009-8.363-4.615-16.822-9.089-25.453-13.173-5.463-2.584-11.313-4.348-16.989-6.482-2.294-.862-4.585-1.731-7.317-3.022-.705-.919-.97-1.414-1.235-1.909 11.363 4.418 22.928 8.385 34.044 13.355 19.338 8.646 36.995 20.108 53.291 34.152z" class="G"/><path d="M662.945 60.981c-1.036.007-2.072.014-3.691-.214-1.81.25-3.037.735-4.265 1.22l-4.024.036c-2.193.644-3.594 1.285-4.996 1.926l-4.984.057-7.992 1.971-4.912.889c-1.033-.065-1.474-.266-1.915-.467 9.337-2.203 18.575-5.557 28.031-6.363 18.35-1.564 36.82-1.798 55.247-2.32 2.982-.084 6.003 1.188 8.879 2.077-1.187.248-2.247.251-3.307.254 0 0-.034-.028-.131-.207-.365-.071-.633.038-.901.146-1.71-.002-3.42-.005-5.815-.294-9.024-.742-17.36-1.414-25.705-1.54-3.144-.048-6.306 1.169-9.46 1.809l-7.893.089c-1.216.326-1.691.628-2.166.931z" class="E"/><path d="M176.49 118.87c.229.562.35 1.431-.022 1.797l-25.231 24.243c8.069-8.66 16.492-17.314 25.254-26.04zm-25.912 26.091c-.408 1.47-.893 3.212-1.924 4.525-2.83 3.607-5.89 7.035-9.218 10.547 3.366-4.99 7.091-9.993 11.142-15.072z" fill="#7343df"/><path d="M755.053 67.088c-.449-.03-.899-.06-1.917-.385l-7.095-1.676c-.445-.021-.889-.043-1.886-.33a25.07 25.07 0 0 0-3.162-.72c-.738-.005-1.477-.009-2.748-.25l-3.19-2.284c6.979 1.564 13.957 3.129 20.829 5.087-.348.448-.59.503-.831.558z" class="G"/><path d="M610.983 71.986l-2.195.774-3.774 1.236-11.158 4.72c-.992.302-1.431.32-1.871.338l-.962-.122c6.22-2.832 12.758-5.605 19.646-8.082.336.575.324.856.314 1.136zm-23.351 7.939c-3.859 2.3-8.091 4.641-12.744 6.919 3.843-2.335 8.107-4.607 12.744-6.919z" class="E"/><path d="M729.012 62.004c-1.373-.017-2.745-.035-4.592-.375l-2.435-1.636c3.447.271 6.893.542 10.371 1.28-1.094.554-2.219.643-3.344.731z" class="G"/><path d="M721.611 59.979c1.028.452 1.681.89 2.398 1.638a40.44 40.44 0 0 1-8.909-1.187c.977-.386 2.038-.389 3.495-.411l3.016-.04zm7.628 2.323c.898-.386 2.023-.475 3.396-.79.738-.254 1.228-.28 2.069-.188a26.2 26.2 0 0 1 3.171 2.398c-2.694-.22-5.551-.671-8.636-1.42z" class="B"/><path d="M616.988 70.014c-.494.258-.988.515-2.008.87-.976-.142-1.426-.38-1.876-.618 1.108-.559 2.217-1.118 3.62-1.367.283.578.272.847.264 1.116z" class="E"/><path d="M757.786 66.839c1.793.427 3.586.853 5.182 1.646-.787.413-1.377.461-1.968.509 0 0 0 .006-.185-.26-1.133-.809-2.081-1.352-3.03-1.895z" class="G"/><path d="M623.982 68.004l-2.873.809c-.762-.099-.943-.317-1.038-.608 1.121-.557 2.242-1.113 3.656-1.337.28.6.268.868.255 1.136z" class="E"/><path d="M619.675 68.169c.491.327.672.545 1.144.771-.897.412-1.996.744-3.463 1.074-.359-.27-.349-.538-.341-1.008.751-.425 1.508-.649 2.661-.837zm141.552 1.098c.363-.321.954-.369 1.971-.553a7.63 7.63 0 0 1 2.512.12c.545.629.81 1.124 1.19 1.875-1.739-.219-3.592-.695-5.673-1.443zm-3.645-2.536l3.236 2.001c-1.648-.198-3.483-.662-5.541-1.385.018-.314.259-.369.849-.554.645-.259.946-.272 1.456-.063zm-133.399 1.465c-.188-.46-.176-.728-.169-1.196.464-.371.934-.541 1.778-.657l1.95.669a14 14 0 0 1-3.559 1.184zm-11.446 2.038l1.984.753c-.823.342-1.913.677-3.371 1.006-.358-.287-.346-.568-.335-1.059.449-.384.901-.557 1.722-.7z" class="B"/><path d="M589.606 79.278c-.027.221-.335.402-.925.577.027-.21.335-.413.925-.577z" class="E"/><path d="M687.037 654.066c-15.714 18.349-31.872 36.024-52.673 49.137-32.461 20.462-67.557 31.025-105.839 30.558-18.795-.229-37.719-.234-56.335-2.442-31.154-3.694-58.921-16.776-84.371-34.83-13.633-9.672-25.512-21.188-36.342-33.97-12.872-15.193-29.065-25.175-49.131-28.125-19.646-2.889-40.236 7.631-47.781 24.513-.643 1.439-1.068 2.977-1.971 5.534 16.939-3.952 32.873-5.894 49.601 2.615-3.511 1.651-5.877 2.993-8.397 3.915-55.004 20.125-114.151-6.045-136.046-60.429-4.142-10.288-8.063-21.05-5.79-32.395 1.041-5.198 3.951-10.128 6.548-14.888 5.557-10.186 9.574-20.373 5.475-32.285-4.197-12.195-18.489-22.263-30.449-20.641 1.736 5.175 3.901 10.217 5.024 15.482.725 3.399-.077 7.125-.195 10.704-3.254-.693-6.741-.852-9.726-2.16-28.079-12.306-47.926-32.737-58.144-61.666-16.049-45.436-.541-94.662 38.597-122.725 5.169-3.706 12.114-5.132 18.412-7.03 15.417-4.647 27.826-12.494 33.265-28.693 2.84-8.459.829-22.53-4.937-29.415-8.832 10.029-16.702 21.447-31.54 23.838 0-7.389-.751-14.828.12-22.073 6.597-54.92 29.444-101.755 70.632-139.105 24.104-21.858 51.698-37.691 83.008-47.017 28.395-8.458 57.133-11.329 86.666-7.928 53.943 6.212 98.985 29.598 135.978 68.994 8.232 8.767 21.694 9.163 29.937.24 20.949-22.68 45.528-40.218 73.73-52.674 15.354-6.781 31.336-11.455 47.872-14.563 23.004-4.324 46.041-4.588 69.091-1.373 32.863 4.583 63.183 16.161 90.713 34.758 27.256 18.412 49.591 41.52 66.351 69.939 14.096 23.903 23.686 49.412 27.613 76.922 1.268 8.885 1.921 17.86 2.786 26.8.171 1.769.025 3.569.025 6.08-13.403-3.033-19.483-14.115-28.44-22.718-5.797 9.535-6.971 19.138-4.293 29.082 3.967 14.732 14.749 23.261 28.512 27.544 24.129 7.509 40.291 24.359 50.972 45.639 20.233 40.312 16.573 79.547-10.695 115.905-10.285 13.714-23.941 23.435-39.463 30.577-6.035 2.777-12.03-.654-12.112-7.874-.055-4.82 1.728-9.699 2.961-14.481.808-3.135 2.102-6.145 3.226-9.343-14.838-1.598-31.301 12.91-32.456 27.759-.715 9.194 1.428 17.744 6.735 25.039 9.654 13.268 8.591 27.604 4.746 42.036-10.58 39.717-35.634 65.96-75.155 77.404-24.338 7.047-48.431 4.538-71.675-5.578-1.011-.44-1.831-1.321-3.411-2.495 9.48-5.131 18.96-7.506 29.077-6.619 6.283.551 12.49 1.933 18.755 2.766.823.109 1.786-.834 2.726-2.031-1.468-3.289-2.978-5.838-4.488-8.386l-4.141-5.019c-.466-.718-.707-.872-1.019-.916-.252-.248-.504-.495-1.04-1.143-.493-.667-.768-.806-1.107-.816l-7.793-5.589c-.346-.343-.784-.519-.784-.519-1.608-.722-3.216-1.444-5.353-2.496-1.01-.378-1.493-.427-1.975-.475-.176-.031-.352-.062-.899-.536-1.47-.627-2.57-.811-3.669-.995l-.44.049s-.441-.034-1.012-.315c-8.722-3.314-16.553-1.996-24.225 1.465-.414.111-.828.222-1.773.105-2.084.537-3.637 1.302-5.19 2.066-.334.153-.667.306-1.564.465-.826.262-1.09.518-1.353.774 0 0-.322.188-.786.177-.722.235-.98.481-1.238.727 0 0-.339.208-.915.197-1.088.465-1.6.941-2.112 1.418-.565.165-1.129.329-2.287.057-.824-.684-1.054-.932-1.204-1.336.081-.158.393-.325.719-.304.849-.565 1.371-1.15 2.193-1.907l5.08-3.711c19.984-14.009 38.009-30.182 54.271-48.395 2.618-2.932 6.46-4.969 10.06-6.777 5.336-2.679 11.209-4.33 16.423-7.201 52.369-28.827 83.316-72.853 91.499-132.063 4.443-32.146-.504-63.309-14.471-92.863-20.981-44.397-54.626-74.539-101.085-90.471-3.309-1.135-7.256-2.57-9.215-5.149-27.703-36.472-63.059-60.333-108.814-67.961-25.443-4.242-49.047-.589-70.281 14.55-13.943 9.941-29.223 16.128-46.184 18.56-28.201 4.044-54.265-1.135-77.884-17.345-12.786-8.775-26.567-15.229-42.068-16.934-20.591-2.264-40.405 1.766-59.633 8.947-32.235 12.039-58.098 32.509-78.866 59.751-1.471 1.929-3.942 3.554-6.274 4.298-26.663 8.51-49.886 22.591-69.635 42.413-27.626 27.727-43.794 61.067-48.782 99.84-3.102 24.111-.689 47.728 6.018 71.073 4.159 14.477 10.433 27.92 17.736 41.297.552.935 1.181 1.509 1.961 2.301.4.683.648 1.149.876 1.931.509.867 1.038 1.418 1.732 2.097.165.128.337.51.34.785.255.524.506.773.998 1.213.77 1.062 1.299 1.933 1.888 3.037.227.531.476.721.855.815.048.01.011.101.051.293.152.443.332.626.696.788.116.045.227.268.294.411.193.325.364.441.785.753 1.264 1.672 2.322 3.082 3.357 4.843.934 1.194 1.893 2.035 2.876 2.862.025-.015.002.039.081.27.271.521.541.687 1.129.962l14.822 15.168c1.097 1.048 2.155 1.75 3.463 2.579.665.502 1.08.878 1.584 1.45.274.44.518.58.864.609.043-.009.011.072.057.414 1.333 1.088 2.62 1.835 4.165 2.774 1.455 1.075 2.652 1.958 3.944 3.072.31.52.598.666 1.206.754.391.188.535.289.769.543.265.336.477.431.99.626.81.522 1.358.856 1.967 1.336.185.333.358.446.823.621.564.327.883.519 1.242 1.063 2.528 1.647 5.018 2.942 7.806 4.351 1.207.667 2.113 1.222 3.1 2.102 3.506 1.905 6.933 3.484 10.635 5.096.627.149.978.265 1.414.716 4.754 2.358 9.425 4.382 14.338 6.558.822.912 1.4 1.671 1.899 2.788.768.982 1.614 1.605 2.602 2.371.142.143.269.525.251.882.673.828 1.365 1.3 2.307 1.904.69.744 1.131 1.354 1.666 2.249.703.759 1.311 1.233 1.911 1.718-.008.01.013-.007.031.338 1.332 1.451 2.646 2.558 3.961 3.668 0 .004.008.002.035.326.67.776 1.314 1.228 2.247 1.801 1.487 1.285 2.684 2.448 3.869 3.98.724.804 1.46 1.239 2.445 1.777a8.03 8.03 0 0 1 1.653 2.033c.553.587 1.062.869 1.781 1.293.462.366.713.59 1.055 1.051.372.4.654.565.925.737-.012.007.006-.015.032.322.729.751 1.431 1.166 2.396 1.711 1.098.946 1.933 1.761 2.823 2.889.589.589 1.125.865 1.696 1.116.036-.024-.008.05.033.39 1.284 1.114 2.527 1.888 3.984 2.831.462.436.708.703 1.009 1.305 1.483 1.302 2.912 2.269 4.519 3.286.179.05.448.307.499.652 1.158.983 2.265 1.621 3.542 2.298.171.039.429.276.472.628 1.144 1.016 2.245 1.68 3.65 2.418a26.49 26.49 0 0 1 3.43 2.514c.355.485.652.608 1.241.679.232.092.625.399.717.562.27.356.49.466.806.485.054-.007.042.102.118.425.822.654 1.567.984 2.494 1.401.181.087.441.392.51.726 1.193.915 2.318 1.496 3.605 2.113.163.036.407.263.45.604 2.417 1.735 4.792 3.13 7.366 4.607.201.082.508.388.592.693.81.597 1.537.888 2.454 1.216a.79.79 0 0 1 .579.585c2.13 1.346 4.198 2.352 6.545 3.465.974.498 1.67.888 2.427 1.613 1.467.985 2.872 1.634 4.564 2.333.639.208.992.365 1.438.821.815.582 1.536.866 2.452 1.188.195.039.53.251.677.476.486.305.824.385 1.346.51.184.045.479.283.552.625 1.79 1.009 3.508 1.675 5.524 2.432.644.318.989.544 1.465 1.035.848.46 1.566.657 2.572.956.621.336.954.568 1.41 1.091 2.88 1.436 5.637 2.582 8.668 3.736.614.135.955.261 1.361.731 3.987 1.768 7.909 3.191 12.146 4.727.505.235.693.357 1.027.596.145.118.51.213.51.213s.371-.067.601-.065.654.185.742.547c1.751.716 3.414 1.07 5.297 1.46a.94.94 0 0 1 .659.628c2.701 1.081 5.327 1.832 8.328 2.606 1.094.237 1.812.449 2.663.95 3.404 1.216 6.675 2.143 10.279 3.051.759.092 1.186.203 1.717.604 1.723.657 3.341 1.024 5.333 1.377 1.098.148 1.823.311 2.696.776 5.072 1.296 9.995 2.29 15.316 3.253 1.445.127 2.492.285 3.681.731 2.41.591 4.677.895 7.34 1.159 1.441.102 2.487.242 3.671.705 3.725.707 7.312 1.09 11.24 1.426.794.019 1.246.085 1.793.289.094.138.563.224.563.224s.381-.292.695-.338c.732.009 1.15.065 1.721.449 6.408.659 12.663.989 19.368 1.271 3.16.047 5.869.142 8.738.416.724.062 1.287-.056 2.313-.242 6.834-.079 13.205-.089 19.885.167 6.793-.424 13.278-1.115 20.164-1.915 1.789-.154 3.176-.197 4.861 0 3.778-.484 7.258-1.209 11.122-2.05 1.448-.147 2.512-.176 3.832.026 2.431-.459 4.607-1.15 7.16-1.975 1.441-.191 2.504-.248 3.807-.069 2.426-.506 4.613-1.249 7.123-2.085.77-.08 1.217-.066 1.902.162 2.383-.531 4.527-1.275 7.006-2.123.798-.136 1.261-.168 1.938.025 1.757-.45 3.301-1.125 5.156-1.933.757-.159 1.204-.186 1.902-.008 2.476-.373 4.773-.761 6.914-1.565l25.917-10.008c.16-.1.535-.138.906-.083 1.918-.818 3.465-1.691 5.295-2.678.682-.167 1.083-.22 1.869-.227 2.549-1.147 4.712-2.34 7.177-3.69 1.542-.693 2.783-1.229 4.379-1.629 1.673-.659 2.991-1.452 4.551-2.441.98-.572 1.719-.947 2.81-1.266 1.563-.741 2.774-1.539 4.237-2.498.444-.218.635-.275.984-.353.367-.095.526-.228.911-.593.476-.252.678-.329 1.07-.453.44-.167.607-.359.945-.78.636-.247 1.019-.339 1.693-.446.523-.306.756-.596 1.197-1.055.688-.39 1.17-.612 1.906-.849a3.07 3.07 0 0 0 1.011-.743c.023-.056.134-.006.439-.012 1.063-.536 1.821-1.066 2.787-1.786.544-.352.88-.515 1.556-.603.953-.468 1.566-1.011 2.413-1.729.757-.444 1.278-.713 2.098-.708.7.992 1.1 1.71 1.501 2.427-.398.373-.795.746-1.714 1.304-.722.497-.923.809-1.123 1.121-.16.242-.355.453-1.019.829-.623.491-.81.784-.997 1.077z" class="N"/><path d="M791.226 881.027l-1.061 46.763h-6.823c-71.478.005-142.955-.037-214.433.121-4.723.01-5.801-1.4-5.765-5.917l-.027-74.475c-.025-3.543 1.046-4.902 4.507-5.635 24.052-5.095 43.789-17.078 58.165-37.298 13.556-19.067 19.221-40.347 17.309-63.604-.286-3.482.88-5.188 3.694-7.15l41.215-29.6c2.197 3.974 5.311 8.613 7.463 13.662 14.006 32.854 12.416 64.724-6.443 95.429-1.641 2.672-2.94 3.464-6.241 2.285-15.975-5.703-30.089-2.659-41.851 9.905-3.685 3.936-6.832 7.283-13.588 7.174-10.564-.169-18.747 10.149-19.07 21.276-.308 10.616 7.373 19.564 18.416 21.456 9.988 1.711 20.715-4.887 23.831-14.768.492-1.56.622-3.274.675-4.925.414-12.894 14.289-21.528 25.937-16.102 7.313 3.407 12.522 11.808 12.159 19.608-.332 7.133-10.064 16.461-17.137 16.426-9.238-.047-17.171 6.028-20.327 15.568-2.497 7.544 1.171 18.111 8.023 23.113 7.719 5.635 18.071 5.979 25.196.689 6.388-4.743 10.058-10.87 9.658-19.156-.075-1.552.751-3.468 1.785-4.687 2.142-2.526 4.745-4.656 7.086-7.02 13.927-14.065 12.684-32.732 5.272-45.606-2.698-4.686-2.239-7.556.529-11.77 15.736-23.958 22.421-50.536 19.234-78.87-1.448-12.875-6.356-25.363-9.742-38.014-.406-1.515-1.112-2.95-1.188-4.617 45.76 49.491 70.088 107.978 73.542 175.737zm-425.89-57.595c-7.172 2.172-10.87-1.04-14.506-6.552-16.065-24.348-21.077-50.725-15.194-79.108 2.218-10.702 5.857-21.038 12.446-30.407 7.585 5.732 14.698 11.398 22.117 16.629 6.507 4.588 13.222 8.926 20.119 12.898 3.113 1.793 3.886 3.727 3.766 7.152-1.093 31.264 9.483 57.688 33.603 78.027 12.27 10.346 26.522 17.001 42.397 19.827 3.033.54 4.222 1.713 4.211 4.864l.049 76.973c.031 4.611-2.745 4.08-5.57 4.084l-92.469.118c-40.986.008-81.973-.093-122.959.037-4.392.014-6.176-.933-6.198-5.726-.043-9.145-1.281-18.289-1.219-27.428.457-66.317 20.802-125.698 62.524-177.501 3.096-3.844 6.527-7.419 10.439-11.839 0 1.965.224 2.959-.034 3.807-2.72 8.929-5.999 17.718-8.186 26.772-3.727 15.428-3.086 31.041-.161 46.551 3.534 18.739 10.865 35.864 22.403 51.104 1.623 2.144 1.403 3.669-.42 5.605-19.527 20.741-15.354 60.75 19.621 73.211 26.569 9.466 53.873-7.435 59.335-33.956 6.07-29.475-16.792-55.89-46.112-55.143z" class="O"/><path fill="#e4ebfe" d="M604.25 777.987l-.912 1.296-6.712 10.423s.312.025-.139.083c-1.224 1.019-1.997 1.98-2.77 2.941 0 0 .276.237-.181.194-12.914 11.506-27.721 17.469-44.61 18.145-12.857.515-18.952 6.618-18.962 19.668l.004 88.818v7.651h-23.007c-.013-.519-.026-1.037.137-2.224.255-3.157.413-5.647.4-8.136l-.297-45.395-.292-45.426c-.137-6.47-4.671-11.444-10.892-13.228 0 0-.398-.228-.836-.528-5.352-.656-10.266-1.012-15.18-1.368-.32-.106-.641-.212-1.442-.575-19.609-4.385-34.843-14.101-44.381-31.551-3.964-7.253-6.625-15.035-6.467-23.63 1.203 0 1.884-.133 2.492.02 11.888 2.986 23.676 6.472 35.682 8.856 8.228 1.633 16.759 1.741 25.155 2.531l51.915.159c13.643-1.833 26.538-3.105 39.156-5.716 8.473-1.753 16.554-5.402 24.811-8.202.48-.093.959-.187 2.061-.16.693 2.048 1.21 4.088.756 5.883-1.654 6.535-3.631 12.989-5.487 19.473z"/><path fill="#e1e3fd" d="M357.258 860.267c6.51-5.232 13.632-5.433 18.316-.752 4.766 4.764 5.509 12.14 1.748 17.345-3.729 5.161-11.28 6.816-17.03 3.733-7.321-3.925-8.754-12.611-3.033-20.327z"/><path d="M506.982 927.597c7.406-.391 14.833-.391 22.986-.391v-7.651l-.004-88.818c.01-13.05 6.105-19.153 18.962-19.668 16.888-.676 31.696-6.639 44.48-18.271-1.579 2.421-2.959 5.97-5.484 7.237-8.169 4.101-16.579 7.909-25.248 10.759-5.835 1.918-12.303 1.827-18.419 2.991-8.445 1.607-12.262 6.507-12.268 15.291l-.012 92.282c-.001 8.375-.41 8.505-8.759 7.8-3.896-.329-7.891.704-11.84.7-1.458-.002-2.915-1.21-4.393-2.26zm-16.073-161.385c-8.265-.45-16.796-.559-25.024-2.192-12.007-2.383-23.794-5.87-35.682-8.856-.608-.153-1.289-.02-2.492-.02-.157 8.596 2.503 16.377 6.467 23.63 9.538 17.45 24.772 27.166 44.128 31.585-5.132-.726-10.896-.817-15.773-2.942-11.696-5.096-21.396-13.052-28.129-24.084-4.822-7.902-8.535-16.269-8.427-25.852.038-3.344.776-4.946 4.741-3.807 7.657 2.199 15.386 4.265 23.208 5.738 11.491 2.164 23.09 3.75 34.637 5.618.764.124 1.478.554 2.346 1.182zm5.231 46.916c6.098 1.452 10.632 6.427 10.77 12.896l.292 45.426.297 45.395c.013 2.489-.145 4.979-.499 7.76-.846-4.473-1.878-9.235-1.908-14.003l.07-77.366c.132-8.375-2.146-14.883-9.022-20.109zm110.526-60.579c-8.002 3.043-16.083 6.691-24.556 8.445-12.618 2.611-25.513 3.883-38.713 5.565 2.146-.947 4.667-1.986 7.29-2.475l36.06-6.541c6.637-1.338 13.115-3.464 19.919-4.993z" class="H"/><path d="M673.471 59.973c2.686-.652 5.849-1.868 8.992-1.821 8.345.126 16.681.799 25.278 1.534-11.096.286-22.449.292-34.27.287z" class="B"/><path d="M604.58 777.922c1.526-6.419 3.503-12.872 5.157-19.408.454-1.795-.062-3.835-.46-6.106.369-.504 1.065-.665 1.761-.826.296 2.56 1.408 5.365.731 7.635-1.889 6.332-4.521 12.442-7.189 18.705z" class="H"/><path d="M692.194 649.629c-.704-.611-1.104-1.329-1.651-2.618 3.659-2.828 7.463-5.083 11.447-6.986.545.735.911 1.117 1.277 1.499l-11.073 8.106z" class="I"/><path d="M721.289 634.677c7.261-3.551 15.091-4.869 23.6-1.61-5.045.362-10.451.409-15.847.674-2.458.121-4.895.671-7.753.936z" class="C"/><path d="M480.179 811.257c4.736 0 9.65.356 14.773 1.014-4.726-.018-9.66-.338-14.773-1.014zm116.805-21.564c1.782-3.311 3.922-6.635 6.353-10.144.351 4.566-2.486 7.553-6.353 10.144z" class="H"/><path d="M774.302 652.243c1.543 2.197 3.053 4.745 4.505 7.677-1.551-2.187-3.044-4.756-4.505-7.677z" class="C"/><path d="M646.34 63.965c1.031-.657 2.432-1.298 4.221-1.929-1.025.655-2.438 1.3-4.221 1.929z" class="B"/><path d="M714.265 636.805c1.202-.81 2.755-1.575 4.516-2.109-1.25.872-2.708 1.513-4.516 2.109z" class="C"/><path d="M746.269 65.303c1.948.184 4.124.644 6.53 1.385-1.947-.182-4.125-.646-6.53-1.385zm-112.871.682c1.989-.663 4.382-1.318 7.17-1.974-1.992.659-4.379 1.321-7.17 1.974z" class="B"/><path d="M594.093 792.791c.398-1.022 1.171-1.982 2.242-3.036-.423.97-1.145 2.034-2.242 3.036z" class="H"/><path d="M746.736 633.679c.918-.107 2.017.076 3.245.588-.935.119-2-.088-3.245-.588z" class="C"/><path d="M655.359 61.993c.858-.491 2.086-.976 3.507-1.227-.917.567-2.027.9-3.507 1.227zm7.763-.786c.298-.528.773-.83 1.542-1.137-.259.451-.812.907-1.542 1.137zm-57.745 12.792c.717-.334 1.798-.664 3.24-.996-.718.332-1.797.666-3.24.996zm135.824-9.755c.662-.116 1.532.035 2.62.44-.659.111-1.535-.031-2.62-.44z" class="B"/><path d="M706.17 640.597c.288-.556.8-1.032 1.691-1.472-.237.542-.852 1.047-1.691 1.472z" class="I"/><path d="M751.27 635.152c.335-.185.817-.137 1.497.055-.318.155-.834.167-1.497-.055z" class="C"/><path d="M592.139 79.269c.286-.233.726-.251 1.495-.273-.227.16-.784.324-1.495.273zm122.087-19.277c.026-.114.294-.222.643-.167.081.164-.402.172-.643.167z" class="B"/><path d="M687.303 654.003c-.079-.231.108-.524.554-.89.077.227-.106.527-.554.89zm2.026-1.908c-.075-.247.125-.558.609-.922.078.251-.128.554-.609.922z" class="I"/><path d="M769.192 646.201c.295-.201.536-.046.779.426-.302.282-.579.152-.779-.426zm-2.111-1.954c.284-.239.559-.1.86.384-.207.1-.506-.017-.86-.384z" class="C"/><path d="M703.396 641.408c-.495-.267-.861-.649-1.279-1.482-.052-.451.258-.531.258-.531l.989 1.162c.298.42.162.737.033.852z" class="N"/><path d="M758.437 638.071c.014-.18.451-.004.522.091s-.234.286-.234.286-.301-.197-.287-.378zm-49.195.834c-.011-.249.247-.495.784-.711.014.258-.25.486-.784.711zm2.032-.907c-.013-.257.251-.513.802-.74.016.266-.255.503-.802.74z" class="C"/><path fill="#5a20ed" d="M702.455 639.237c-.081.158-.391.238-.517.336l-11.695 7.162c-.674.566-1.195.835-2.263 1.277a17.36 17.36 0 0 0-2.443 1.657c-.336.163-.671.326-1.513.603-1.269.699-2.031 1.282-2.794 1.866 0 0-.111-.051-.4-.015a3.54 3.54 0 0 0-1 .778l-1.928.875c-.725.483-.967.756-1.209 1.03l-1.626.402c-.794.265-.94.507-.913.853-.202.078-.404.156-1.064.309-.784.165-.926.378-.885.713-.191.057-.383.114-1.136.237-1.801.89-3.041 1.713-4.28 2.535l-2.79 1.266-4.573 2.364-4.379 1.698-7.207 3.711-1.836.225c-2.193.935-3.753 1.803-5.313 2.671l-.932.099-24.514 8.248-8.17 3.158-1.987.094c-2.108.617-3.57 1.222-5.032 1.826l-2.085.077c-2.757.664-4.82 1.348-6.883 2.032l-2.042-.058-6.985 1.96-3.93.16-7.053 1.888-3.984.069c-4.198.635-7.605 1.291-11.012 1.947l-4.997.092-20.04 1.798c-6.371.01-12.742.02-19.904-.025-1.242.026-1.694.107-2.147.187-2.709-.095-5.418-.189-8.895-.48l-19.203-1.356-1.821-.233c-.745-.014-.922.037-1.1.089-.453-.066-.905-.132-1.955-.434-4.105-.646-7.613-1.056-11.121-1.467-1.046-.14-2.092-.281-3.787-.64-2.843-.542-5.035-.866-7.228-1.189-1.047-.158-2.094-.317-3.77-.737-5.497-1.262-10.366-2.262-15.235-3.262-.724-.163-1.449-.327-2.751-.761-2.13-.641-3.682-1.01-5.234-1.38-.427-.111-.854-.223-1.834-.6-3.766-1.195-6.978-2.124-10.189-3.054a29.85 29.85 0 0 1-2.752-.939c-3.125-1.087-5.654-1.874-8.182-2.66 0 0-.363-.26-.827-.545-2.023-.715-3.583-1.144-5.142-1.574l-.784-.351c-.635-.365-.891-.342-1.127-.1-.188-.122-.377-.243-1.053-.776-4.339-1.866-8.19-3.32-12.041-4.775-.34-.126-.681-.252-1.47-.679-3.171-1.446-5.893-2.59-8.615-3.734-.333-.232-.666-.464-1.4-1.088-1.13-.572-1.859-.752-2.589-.933-.346-.227-.692-.453-1.511-1.067-2.123-1.084-3.771-1.782-5.42-2.479a37.12 37.12 0 0 1-.623-.514c-.668-.352-1.009-.428-1.349-.503 0 0-.335-.213-.636-.545-1.014-.619-1.727-.906-2.44-1.193-.353-.158-.705-.315-1.463-.834-1.773-1.027-3.14-1.692-4.507-2.357a22.53 22.53 0 0 1-2.504-1.585c-2.435-1.443-4.451-2.471-6.467-3.499 0 0-.326-.209-.624-.54-1.008-.629-1.72-.927-2.431-1.225 0 0-.308-.306-.613-.706-2.639-1.81-4.972-3.22-7.305-4.629 0 0-.244-.227-.554-.557-1.382-.937-2.455-1.546-3.528-2.154 0 0-.26-.305-.545-.69-1.012-.732-1.739-1.08-2.466-1.427 0 0 .012-.109-.07-.324-.282-.518-.545-.588-.871-.427 0 0-.394-.306-.72-.64-.639-.441-.951-.549-1.263-.657l-3.436-2.602c-1.475-1.075-2.523-1.769-3.571-2.463 0 0-.258-.237-.566-.573-1.357-1.006-2.407-1.677-3.457-2.347a7.02 7.02 0 0 1-.558-.615c-1.68-1.343-3.072-2.328-4.463-3.312-.247-.267-.493-.535-1.031-1.279-1.511-1.272-2.73-2.068-3.949-2.863 0 0 .044-.075-.085-.339-.638-.556-1.148-.848-1.657-1.14-.836-.815-1.671-1.63-2.845-2.88-1.007-.872-1.677-1.308-2.347-1.745 0 0-.017.022-.068-.242-.351-.414-.652-.565-.953-.716-.252-.225-.503-.449-1.037-1.101-.772-.722-1.262-1.017-1.752-1.312-.454-.542-.907-1.084-1.737-2.012-1.019-.878-1.662-1.37-2.306-1.862l-3.943-3.918c-.972-.892-1.592-1.355-2.213-1.818 0 0-.008.002-.085-.322-1.352-1.447-2.627-2.57-3.902-3.693 0 0-.021.017-.082-.296-.686-.775-1.311-1.237-1.937-1.7l-1.669-2.257c-.962-.94-1.577-1.454-2.191-1.968a10.61 10.61 0 0 0-.322-.824c-.953-1.105-1.712-1.768-2.471-2.43l-2.065-2.774c-4.999-2.514-9.668-4.531-14.336-6.548-.351-.116-.702-.233-1.474-.698-3.804-1.934-7.187-3.52-10.57-5.105l-3.23-2.036-7.636-4.443c-.319-.192-.639-.384-1.173-.912-.375-.634-.607-.71-.913-.567-.549-.334-1.098-.667-1.925-1.408-.494-.689-.756-.74-1.063-.561-.143-.1-.287-.201-.755-.637-.624-.469-.924-.603-1.224-.737-1.197-.883-2.394-1.766-3.945-3.149-1.608-1.269-2.861-2.039-4.115-2.808 0 0 .032-.081-.041-.313-.278-.542-.561-.653-.923-.565-.415-.376-.83-.752-1.604-1.561-1.37-1.161-2.381-1.889-3.393-2.617l-14.832-15.072c-.581-.637-.87-.79-1.159-.942 0 0 .024-.054-.045-.361-.982-1.169-1.896-2.03-2.809-2.892-1.059-1.41-2.117-2.82-3.355-4.692-.341-.751-.574-.829-.878-.695 0 0-.111-.222-.213-.484-.208-.571-.424-.739-.751-.765 0 0 .037-.091-.021-.361-.34-.443-.622-.616-.904-.789l-1.841-3.075c-.498-.714-.743-.965-.988-1.217 0 0-.172-.381-.321-.818-.675-.993-1.201-1.549-1.727-2.105-.248-.466-.496-.932-.922-1.928-.738-1.135-1.298-1.741-1.858-2.347-7.38-13.017-13.654-26.46-17.813-40.937-6.707-23.345-9.12-46.962-6.018-71.073 4.988-38.774 21.156-72.114 48.782-99.84 19.75-19.822 42.972-33.902 69.635-42.413 2.332-.744 4.803-2.369 6.274-4.298 20.768-27.242 46.63-47.712 78.866-59.751 19.228-7.181 39.042-11.211 59.633-8.947 15.502 1.705 29.282 8.158 42.068 16.934 23.619 16.21 49.684 21.389 77.884 17.345 16.961-2.432 32.24-8.619 46.184-18.56 21.234-15.139 44.838-18.792 70.281-14.55 45.755 7.628 81.11 31.489 108.814 67.961 1.959 2.58 5.907 4.015 9.215 5.149 46.46 15.931 80.104 46.073 101.085 90.471 13.967 29.554 18.914 60.718 14.471 92.863-8.184 59.211-39.13 103.236-91.499 132.063-5.214 2.87-11.088 4.522-16.423 7.201-3.6 1.807-7.442 3.845-10.06 6.777-16.262 18.213-34.287 34.385-54.271 48.395-1.623 1.138-3.188 2.357-5.372 3.747-1.137.755-1.682 1.303-2.228 1.851 0 0-.312.167-.393.325M595.036 489.913s.15.009.176.651c.542.609 1.084 1.218 1.761 2.474.243.361.486.723.537 1.301l.176.229s.271-.101.588.456c.273.329.546.657.839 1.523.276.206.553.411.902 1.032.115.282.321.463.719 1.146.43.405.86.809 1.512 1.893.164.172.329.345.295.691l.164.204s.231-.126.577.485c.318.342.637.683.968 1.467.151.307.397.436 1.064.983 19.799 25.079 45.656 40.773 76.391 48.444 17.09 4.266 34.465 4.718 52.017 2.261 8.958-1.254 16.27-3.975 20.438-12.543 3.122-6.418 7.356-12.47 9.417-19.198 8.778-28.65 3.94-54.893-15.759-77.865-5.45-6.356-6.063-12.876-2.737-20.285 1.605-3.575 2.689-7.384 4.417-11.407.166-.286.332-.571.732-1.152 0 0-.044-.375.559-.75l5.002-14.648c.028-.446.055-.892.624-1.844 1.122-5.174 3.048-10.323 3.212-15.527.438-13.918.529-27.879-.11-41.783-.236-5.136-2.899-10.16-4.337-16.009l-5.674-18.619c-.071-.273-.247-.42-.584-1.067-.113-.176-.226-.352-.259-.959-.098-.309-.305-.5-.661-.509 0 0 .071-.029.096-.741-.629-.949-1.257-1.898-1.728-3.346-.156-.299-.311-.599-.513-1.552-.501-.691-1.001-1.383-1.503-2.74-.319-.577-.637-1.155-.798-2.087-.076-.306-.271-.443-.651-1.031-.358-.479-.716-.959-1.095-2.107-.934-1.136-1.867-2.272-2.729-4.059-.139-.407-.278-.814-.498-1.803l-4.104-.925c-.327-.078-.65-.063-1.455-.563l-8.933-.962c-2.031-.016-4.061-.033-6.85-.271l-9.128.083c-2.364.128-4.728.256-7.949.159l-11.886 1.985c-.732.12-1.464.239-2.871.146-.958.501-1.917 1.003-3.643 1.576-.573.309-1.122.825-1.724.898-12.022 1.459-22.47 7.247-33.126 12.31-3.124 1.485-5.514 4.515-8.244 6.923 0 0-.085-.009-.596-.671l-10.776 6.616c-.403.394-.807.788-1.735 1.406-.515.553-1.031 1.105-2.102 1.796-.206.309-.413.618-1.147 1.067-.128.13-.255.26-.707.294l-.246.23s.099.322-.388.698c-.111.173-.222.345-.891.851-3.347 3.417-6.694 6.834-10.625 10.341-.515.829-1.031 1.658-1.953 2.769-.24.239-.404.522-1.115 1.046l-3.743 5.272c-1.901 2.759-3.801 5.517-6.282 8.574-.671 1.284-1.341 2.568-2.524 4.378-10.999 18.69-17.682 38.711-19.273 61.039l.898 20.777 1.948 17.338c.639 1.722 1.278 3.445 1.813 5.895.151.459.302.918.243 2.089 1.414 3.656 2.828 7.312 4.12 11.6.265.565.53 1.129.705 2.356.514.92 1.028 1.84 1.564 3.495.955 2.008 1.909 4.016 2.661 6.333.046.296.218.444.479.504 0 0 .071-.004.077.647.609.866 1.219 1.732 1.86 3.045a1.49 1.49 0 0 0 .241.894c.238.247.476.493.903 1.332.41.714.82 1.428 1.228 2.58.149.301.391.433.902 1.079.142.187.284.375.272.89.106.27.302.379.554.475m-310.754-69.728l1.864 4.08c4.328 8.804 3.597 14.313-2.93 21.908-25.325 29.465-25.878 72.195-1.374 102.344 2.161 2.659 4.291 4.754 8.132 4.923 4.119.181 8.186 1.317 12.3 1.847 25.039 3.225 49.171-.427 72.207-10.492 63.778-27.866 95.987-99.055 77.713-164.259-6.797-24.254-19.124-45.171-37.303-62.567-21.229-20.316-46.237-32.944-75.447-37.45-13.832-2.134-27.491-2.114-41.261-.181-3.19.448-5.358 1.726-6.994 4.717-8.193 14.98-14.628 30.591-17.441 47.505-4.98 29.946-2.209 59.029 10.535 87.625m162.165 111.782c-33.845 37.204-76.021 56.273-126.438 58.157 65.818 54.648 141.279 78.67 226.301 70.735 62.303-5.814 117.425-29.457 164.812-70.662-.979-.842-1.747-1.046-2.517-1.057-24.483-.351-47.694-6.048-69.61-16.871-50.512-24.947-81.432-65.267-93.962-120.013-.462-2.017-1.825-4.302-3.47-5.498-13.584-9.873-28.318-11.764-43.693-4.878-4.305 1.928-9.672 3.44-10.93 9.256-6.523 30.165-19.437 57.134-40.493 80.83M336.691 235.135l-12.765 9.67.569 1.322c3.094.255 6.197.428 9.279.782 6.769.778 13.648 1.105 20.269 2.576 27.884 6.193 53.174 18.049 74.92 36.677 36.443 31.217 57.228 70.584 60.268 118.804.242 3.848 1.484 4.682 4.884 3.452 11.758-4.253 23.741-4.519 35.863-1.86l11.59 2.629c3.619-44.567 20.004-82.796 51.627-113.867 31.588-31.037 69.651-47.662 115.423-49.083-2.204-2.088-3.287-3.265-4.518-4.258-16.035-12.929-34.068-21.55-54.244-26.003-19.194-4.236-37.158-3.139-53.655 8.898-14.947 10.905-31.673 18.592-49.835 21.632-13.341 2.233-27.136 2.675-40.704 2.439-23.805-.414-46.01-7.66-65.461-21.168-16.956-11.776-34.582-17.051-54.925-12.722-17.205 3.661-33.38 9.729-48.586 20.081m464.031 265.159l-3.104 27.574c38.237-31.658 56.676-71.364 53.155-120.008-3.399-46.965-26.302-82.835-66.596-108.574 0 1.733-.158 2.555.024 3.292 1.956 7.891 4.247 15.71 5.913 23.66 7.29 34.771 2.832 68.41-9.934 101.262-.739 1.902-.538 5.055.593 6.665 13.773 19.595 19.919 41.44 19.948 66.129m-550.186-75.373c-15.353-41.205-16.196-82.804-3.019-124.95-41.587 26.809-64.522 64.493-66.197 113.621-1.568 45.998 16.629 83.712 52.202 113.067.473-1.58.382-2.972.117-4.33-6.074-31.147-1.205-60.239 16.708-86.699 2.474-3.654 2.516-6.554.188-10.709z"/><path d="M607.326 683.502c2.471-1.263 5.163-2.406 7.919-3.364l24.354-8.148-25.36 9.946c-2.141.804-4.438 1.192-6.914 1.565zm-75.972 11.945c6.092-.878 12.494-1.491 19.329-1.954-6.051.839-12.535 1.529-19.329 1.954zm-50.305-1.61c5.991.058 12.136.444 18.599 1.075-5.937-.086-12.191-.416-18.599-1.075zm-46.021-7.9c4.719.698 9.588 1.698 14.687 2.991-4.692-.701-9.615-1.695-14.687-2.991zM250.034 575.52c4.584 1.682 9.253 3.699 14.008 6.061-4.584-1.679-9.254-3.702-14.008-6.061zm215.003 116.266c3.37.088 6.877.498 10.642 1.191-3.33-.101-6.917-.485-10.642-1.191zm91.342 1.747c3.109-.896 6.516-1.552 10.331-2.071-3.073.862-6.553 1.587-10.331 2.071zm-141.376-13.404c3.079.641 6.291 1.571 9.725 2.785-3.049-.642-6.321-1.57-9.725-2.785zm-31.974-11.663c3.785 1.11 7.636 2.564 11.659 4.316-3.75-1.126-7.671-2.549-11.659-4.316zm-145.044-98.757c3.303 1.26 6.687 2.845 10.215 4.747-3.282-1.263-6.708-2.842-10.215-4.747zM373 663.999c2.6.853 5.322 1.998 8.219 3.435-2.582-.853-5.339-1.998-8.219-3.435zm198.332 27.509c1.849-.865 3.953-1.498 6.42-1.986-1.813.836-3.989 1.527-6.42 1.986zm76.894-22.567c1.798-1.252 3.982-2.459 6.521-3.599-1.808 1.259-3.972 2.452-6.521 3.599zm-317.187-28.589c2.29 1.069 4.623 2.478 7.061 4.206-2.269-1.076-4.644-2.471-7.061-4.206zm72.973 36.221c2.453.455 4.981 1.242 7.731 2.305-2.404-.474-5.03-1.224-7.731-2.305zM227.078 563.256c2.337 1.005 4.712 2.362 7.297 3.978-2.28-1.036-4.769-2.331-7.297-3.978zm226.948 126.665c2.05.036 4.243.359 6.69.94-2.013-.046-4.281-.349-6.69-.94zm128.273-.456c1.855-.895 3.95-1.554 6.422-2.102-1.809.853-3.996 1.596-6.422 2.102zM342.03 647.452c1.954.687 3.971 1.715 6.126 3.05-1.929-.698-3.996-1.704-6.126-3.05zm249.295 40.089c1.825-.898 3.888-1.583 6.311-2.143-1.784.868-3.928 1.613-6.311 2.143zM275.04 594.328c1.257.778 2.532 1.901 3.884 3.344-1.237-.786-2.552-1.893-3.884-3.344zm325.228 91.115c1.249-.83 2.711-1.434 4.509-1.919-1.208.794-2.752 1.47-4.509 1.919zm-173.269-1.659c1.448.08 3 .45 4.756 1.106-1.414-.081-3.033-.449-4.756-1.106zm-64.968-25.299c1.576.354 3.225 1.052 5.05 2.045-1.542-.37-3.259-1.036-5.05-2.045zm-57.047-36.927c1.337.65 2.729 1.635 4.23 2.927-1.319-.659-2.748-1.626-4.23-2.927zm336.078 50.288c1.19-.922 2.75-1.79 4.662-2.611-1.196.92-2.744 1.793-4.662 2.611zm-290.06-19.315c1.305.33 2.672.995 4.158 1.972-1.286-.338-2.691-.987-4.158-1.972zm308.779 11.091c.978-.876 2.311-1.618 3.977-2.302-.986.85-2.304 1.644-3.977 2.302zm-359.791-46.2c1.178.455 2.398 1.25 3.693 2.354-1.166-.466-2.409-1.24-3.693-2.354zm367.152 42.492c.887-.88 2.127-1.702 3.676-2.431-.902.892-2.112 1.69-3.676 2.431zM211.973 552.467c1.207.428 2.461 1.198 3.811 2.274-1.191-.439-2.478-1.186-3.811-2.274zm98.029 73.03c.998.325 2.048.995 3.235 1.962-.97-.341-2.077-.979-3.235-1.962zm-103.997-78.082c.973.382 1.984 1.11 3.104 2.145-.949-.395-2.007-1.097-3.104-2.145zm-18.909-19.261c.938.51 1.852 1.371 2.808 2.555-.916-.52-1.874-1.361-2.808-2.555zm126.921 100.269c1.005.342 2.053 1.036 3.223 2.037-.978-.357-2.079-1.021-3.223-2.037zm84.038 46.062c1.471.067 3.031.496 4.834 1.175-1.42-.105-3.082-.459-4.834-1.175zm-71.072-36.851c1.004.274 2.076.882 3.296 1.784-.978-.288-2.102-.869-3.296-1.784zm354.552 14.499c.458-.577 1.22-1.161 2.281-1.671-.46.604-1.218 1.134-2.281 1.671zm-415.263-67.267c.838.304 1.597.967 2.408 1.929-.794-.324-1.64-.947-2.408-1.929zm72.725 60.785c.628-.007 1.339.291 2.157.884-.62.004-1.346-.288-2.157-.884zm346.881 4.094c.291-.57.923-1.065 1.867-1.557-.301.546-.913 1.089-1.867 1.557zm-361.899-14.239c.651.024 1.379.371 2.21 1.017-.642-.032-1.388-.363-2.21-1.017zm45.04 26.446c.6-.083 1.329.097 2.172.565-.605.091-1.324-.105-2.172-.565zM173.264 508.886c.637.246 1.197.852 1.784 1.771-.603-.261-1.232-.836-1.784-1.771zm2.837 4.231c.546.24 1.072.796 1.583 1.66-.545-.242-1.074-.793-1.583-1.66zm116.942 98.198c.643.1 1.312.536 2.058 1.277-.626-.111-1.329-.525-2.058-1.277zm-7.891-7.212c.656.124 1.299.616 2.069 1.392-.609-.152-1.345-.587-2.069-1.392zm-6.117-5.781c.594.139 1.215.603 1.897 1.373-.582-.145-1.226-.597-1.897-1.373zm77.969 57.363c.619-.012 1.332.275 2.151.855-.615.01-1.336-.273-2.151-.855zm-87.879-67.566c.633.158 1.247.672 1.959 1.479-.594-.179-1.286-.65-1.959-1.479zm434.049 50.814c.219-.568.764-1.116 1.602-1.699-.23.55-.753 1.135-1.602 1.699zm-430.076-46.661c.531.178 1.156.641 1.85 1.405-.539-.172-1.148-.647-1.85-1.405zm236.057 103.251c.291-.26.743-.341 1.523-.297-.236.242-.799.359-1.523.297zm-210.894-79.608c.455-.021.965.272 1.567.852-.443.012-.978-.263-1.567-.852zm-9.011-8.002c.446-.01.936.285 1.498.865-.437.004-.945-.279-1.498-.865zm188.819 85.588c.083-.189.26-.241.691-.18.253.113-.128.404-.128.404s-.469-.087-.563-.224zm-81.867-19.711c.091-.36.346-.383.751-.02.13.166-.241.233-.241.233s-.364-.095-.51-.213zm-36.069-16.441c.193-.149.534-.073 1.018.234-.194.151-.532.071-1.018-.234zm312.23-.286c-.199-.314-.057-.527.453-.518.073.29-.087.422-.453.518zM178.172 516c.242-.024.487.227.745.751-.239.023-.49-.226-.745-.751zm2.886 4.25c.223-.06.504.113.797.546-.32.176-.57-.015-.797-.546zm141.996 114.346c.234-.325.497-.255.725.27-.234.196-.455.086-.725-.27zm353.929 20.196c-.048-.258.194-.532.713-.846.043.25-.19.54-.713.846zm3.102-1.904c-.018-.233.219-.48.722-.707.021.244-.223.469-.722.707zm-5.74 3.129c-.218-.301-.072-.542.47-.651.138.292-.029.484-.47.651zm-353.249-22.663c.196-.111.508-.003.915.346-.262.262-.56.139-.915-.346zm-29.011-23.098c.211-.085.512.066.875.473-.22.092-.503-.073-.875-.473zm-67.071-48.684c.245-.291.478-.214.608.285-.25.161-.422.048-.608-.285zm-2.957-1.962c.216-.333.478-.282.712.219-.234.211-.447.117-.712-.219zm-1.975-1.297c.205-.097.505.037.882.418-.284.247-.572.102-.882-.418zm-9.03-6.869c.273-.285.556-.174.791.378-.274.203-.518.062-.791-.378zm-20.998-20.159c.21-.078.499.075.837.478-.297.209-.566.043-.837-.478zm-7.1-8.728c.236-.277.469-.199.606.29-.242.151-.412.035-.606-.29zm-.99-1.199c.287-.167.503.001.595.527-.262.099-.443-.085-.595-.527z" class="I"/><path fill="#e5eefe" d="M284.08 419.86c-12.541-28.272-15.313-57.355-10.333-87.301 2.813-16.914 9.248-32.525 17.441-47.505 1.636-2.992 3.805-4.27 6.994-4.717 13.77-1.933 27.43-1.953 41.261.181 29.211 4.506 54.219 17.134 75.447 37.45 18.179 17.397 30.505 38.313 37.303 62.567 18.274 65.204-13.935 136.393-77.713 164.259-23.036 10.065-47.168 13.716-72.207 10.492-4.114-.53-8.181-1.666-12.3-1.847-3.842-.169-5.971-2.264-8.132-4.923-24.505-30.149-23.951-72.88 1.374-102.344 6.527-7.594 7.258-13.103 2.93-21.908-.659-1.341-1.245-2.719-2.066-4.404m75.563 27.157c27.804-12.429 54.642-8.797 80.575 5.685 4.23-11.493-5.497-27.71-14.119-34.642-17.07-13.721-41.397-15.216-59.639-3.471-13.115 8.444-22.219 25.843-19.249 37.885l12.432-5.457z"/><path d="M446.677 531.69c20.826-23.419 33.74-50.389 40.263-80.554 1.258-5.816 6.625-7.327 10.93-9.256 15.375-6.886 30.109-4.996 43.693 4.878 1.645 1.195 3.008 3.481 3.47 5.498 12.53 54.745 43.449 95.065 93.962 120.013 21.915 10.824 45.127 16.52 69.61 16.871.77.011 1.538.215 2.517 1.057-47.387 41.205-102.509 64.847-164.812 70.662-85.021 7.934-160.483-16.087-226.301-70.735 50.417-1.884 92.593-20.953 126.668-58.433m99.882-22.289c-2.749-8.26-8.577-14.298-16.767-15.508-9.241-1.366-19.197-1.832-28.223.143-16.169 3.537-21.259 18.651-12.227 32.552 4.888 7.523 9.724 15.091 14.951 22.375 2.357 3.284 1.56 5.084-1.187 7.385-16.177 13.551-33.91 17.621-53.834 9.284-3.27-1.368-6.592-2.614-9.936-3.935-3.19 11.33 4.441 26.673 16.523 34.121 7.626 4.701 16.044 6.389 24.866 5.772 15.312-1.07 26.717-8.802 34.831-21.812 16.641 24.57 42.035 25.967 58.628 16.885 14.796-8.099 21.815-26.681 17.721-35.012-1.452.573-3.007 1.039-4.426 1.768-21.643 11.12-41.407 7.619-59.735-7.544-2.444-2.022-3.009-3.611-.839-6.586 5.577-7.643 10.631-15.667 15.917-23.524 3.177-4.723 4.946-9.782 3.737-16.364z" class="O"/><path fill="#e6eefe" d="M593.309 487.033c-.41-.714-.82-1.428-1.343-2.696-.33-.806-.547-1.059-.763-1.312 0 0-.267-.361-.25-.953-.617-1.43-1.25-2.267-1.883-3.105 0 0-.071.004-.076-.162-.06-.345-.148-.505-.271-.647l-2.823-6.756c-.477-1.63-.996-2.527-1.515-3.425-.265-.565-.53-1.129-.667-2.43-1.261-4.349-2.65-7.963-4.039-11.576-.151-.459-.302-.918-.192-1.98-.538-2.407-1.337-4.211-2.136-6.016-.629-5.538-1.257-11.076-1.708-17.521-.031-7.41-.241-13.912-.45-20.414.964-21.783 7.648-41.804 19.235-60.82 1.231-1.667 1.874-3.009 2.516-4.351 1.901-2.759 3.801-5.517 6.219-8.611 1.627-1.935 2.738-3.535 3.848-5.134.089-.327.254-.61 1.026-1.018 1.023-1.01 1.514-1.85 2.005-2.69 3.347-3.417 6.694-6.834 10.657-10.265 1.693 1.195 2.77 2.405 4.159 3.964l5.96-3.912 2.062 8.319 6.315-3.324-4.124-7.523 4.901-1.366c-.805-3.682-2.634-5.029-6.035-3.739-1.996.757-3.953 1.616-5.96 2.075-.069-.587-.105-.821-.142-1.055 3.413-2.127 6.825-4.255 10.668-5.719 1.507.902 2.585 1.341 3.66 1.332 1.369-.012 2.731-.41 4.102-.598 1.076-.148 2.234-.05 3.2-.444.311-.127.39-2.033.122-2.159-1.121-.525-2.531-1.153-3.621-.882-2.498.623-4.871 1.751-7.294 2.674 2.727-2.322 5.116-5.353 8.241-6.837 10.656-5.063 21.104-10.852 33.126-12.31.602-.073 1.151-.588 2.469-.831 1.688-.432 2.63-.93 3.573-1.429.732-.12 1.464-.239 2.835-.068 4.114.075 7.589-.14 10.905-.025-3.36 1.293-6.628 2.086-9.728 3.304-1.184.465-2.503 1.778-2.792 2.944-.219.882.897 2.797 1.787 3.076 1.143.358 2.846-.148 3.973-.833 3.219-1.958 6.268-4.195 9.899-6.675-.832-.598-1.915-1.376-2.894-2.382.388-.639.671-1.049.955-1.46 2.364-.128 4.728-.256 7.539-.097.447.287.469.764.421 1.136-2.832 5.511-2.832 5.511 5.255 10.374l4.602-5.39c-1.042-1.954-1.941-3.64-2.547-5.35.765-.322 1.237-.62 1.708-.919 2.031.016 4.061.033 6.639.503 3.323.675 6.097.896 8.872 1.117.318-.109.641-.124 1.386.326 1.534.626 2.651.88 3.767 1.133.139.407.278.814.399 1.889.91 1.798 1.839 2.929 2.767 4.059a9.37 9.37 0 0 1 1.149 1.892c.152.64.266.8.418.933.319.577.637 1.155.868 2.443.487 1.368 1.062 2.026 1.637 2.683.156.299.311.599.329 1.557.522 1.573 1.182 2.485 1.842 3.398 0 0-.071.029-.021.193.138.424.298.628.53.776.113.176.226.352.405.987.137.649.248.813.397.951 1.932 6.092 3.864 12.184 5.709 19.064.602 5.21 1.291 9.632 1.625 14.011-.763-.307-1.326-.478-1.554-.852-3.005-4.939-5.1-11.489-13.158-7.136-.241.13-.669.009-.977-.094-4.202-1.403-5.075 1.182-4.966 4.402.111 3.29.521 6.584 1.002 9.846.638 4.322 3.936 6.953 9.29 7.109-.934-1.16-1.528-2.002-2.226-2.747-1.939-2.07-.869-3.736 1.211-3.956 3.848-.408 6.943-5.216 11.403-1.98.199.144.875-.369 1.599-.258a663.75 663.75 0 0 1 .318 32.437c-2.997-11.073-3.086-11.641-14.273-11.605-2.462.008-6.503.73-7.081 2.2-1.741 4.422-4.922 3.678-8.126 3.687l-22.485.007h-10.748c.597-1.656.643-2.674 1.17-3.109 5.818-4.805 9.541-13.344 19.471-10.944 1.574.38 3.319.02 4.984.058 4.336.099 6.612-1.959 6.399-6.334-.192-3.959-.483-7.923-.964-11.857-.717-5.869 3.836-13.315-4.91-16.885-.357-.146-.378-1.039-.746-1.247-2.227-1.26-4.408-2.736-6.808-3.507-1.572-.505-3.491.011-5.248.154-3.23.264-5.703 1.777-5.201 5.269.873 6.08-2.19 7.055-7.155 6.427-5.154-.652-8.121 1.502-9.056 6.843-.252 1.441-2.07 3.112-3.557 3.703-1.749.696-3.919.381-5.909.421-4.896.097-6.746 2.211-6.415 7.117.168 2.496.029 5.012.029 7.906-5.466 0-10.039.241-14.577-.05-9.641-.618-11.412.884-11.455 10.45-.001.167-.02.336.003.499.527 3.761-.709 5.575-4.883 5.158-3.463-.346-6.992-.167-10.485-.033-3.655.141-5.932 1.662-5.683 5.863.196 3.315.486 6.773-.226 9.952-.791 3.53-.995 6.328 2.839 7.801 4.511 1.734 12.211.275 13.486-2.701 1.349-3.148 3.594-4.115 6.714-3.957 6.952.353 13.919.529 20.843 1.168 1.219.113 3.097 2.031 3.239 3.279.566 4.983 2.961 6.797 7.945 6.642 8.316-.259 8.413-.108 10.96-9.775h13.359c0 2.84-.492 5.536.139 7.936.629 2.391 2.264 6.294 3.669 6.388 5.188.347 10.836 2.066 15.331-3.053 3.567-4.062 7.962-7.397 11.448-10.564l20.177 1.266c-1.43-1.513-2.107-2.898-3.028-3.086-3.76-.769-4.108-3.29-3.867-6.37.116-1.49-.252-3.063.095-4.477.369-1.503 1.326-2.862 2.026-4.283 1.065 1.13 2.489 2.091 3.115 3.427 1.055 2.251 1.365 4.991 4.842 4.953l-.62 4.811-1.564 12.708c-.028.446-.055.892-.535 1.768-2.019 5.151-3.585 9.872-5.152 14.593 0 0 .043.375-.33.62a3.59 3.59 0 0 0-.766 1.226c-1.32 3.703-2.404 7.512-4.009 11.088-3.326 7.409-2.713 13.929 2.737 20.285 19.698 22.971 24.537 49.215 15.759 77.865-2.062 6.729-6.295 12.781-9.417 19.198-4.169 8.568-11.481 11.289-20.438 12.543-17.552 2.457-34.927 2.005-52.017-2.261-30.734-7.671-56.591-23.365-76.626-48.923-.381-.707-.583-.863-.841-.946-.318-.342-.637-.683-1.156-1.374-.201-.35-.343-.513-.343-.513-.164-.172-.329-.345-.638-1.175-.587-1.052-1.029-1.446-1.471-1.839-.295-.079-.5-.259-.708-.996-.338-.675-.583-.895-.828-1.115-.273-.329-.546-.657-1.009-1.329-.19-.343-.382-.559-.382-.559-.243-.361-.486-.723-.77-1.753-.609-1.262-1.178-1.855-1.747-2.447 0 0-.15-.009-.184-.205-.116-.357-.226-.493-.366-.606-.142-.187-.284-.375-.587-1.08-.299-.745-.491-.904-.74-.998m-3.313-35.053s.083-.059.093.611l4.911-1.589s-.023-.015.374-.072c.265-.092.463-.262 1.136-.851.614-.151 1.229-.303 2.65-.262l7.319-4.023c.347-.007.694-.015 1.854.121l6.331-2.95c.682-.036 1.365-.071 2.727.012.888-.462 1.776-.924 3.44-1.709 1.395-.073 2.791-.146 4.715.35l16.28-.587c3.37-.071 6.744.092 10.821.06.462.093.923.186 1.758.796 1.865.374 3.729.747 6.273 1.096.423.153.846.307 1.434 1.125 4.839 1.851 9.679 3.702 15.181 5.527.585.287 1.169.574 1.98 1.141.194.161.417.243 1.211.286.158.089.315.178.619.958l4.096 1.573c.033-2.18.067-4.361-.1-7.296.006-.778.013-1.556.518-2.775l-2.613-6.977c-.005-.173-.011-.346.028-1.254l-2.967-4.948-8.199-10.872c-.141-.235-.344-.388-1.134-.776-.586-.546-1.171-1.092-1.829-2.357-.772-.382-1.543-.765-2.968-1.303-5.313-2.309-10.626-4.619-16.008-7.573-.694-.029-1.388-.057-2.914-.205-1.67-.19-3.34-.379-5.22-1.258-2.266.206-4.531.413-7.646.888-18.371 1.332-32.216 9.789-41.634 26.52-.103.672-.205 1.345-.3 2.681-.209.621-.417 1.243-1.142 1.975-.03.644-.061 1.288-.015 2.693-.191.73-.382 1.461-1.127 2.367.009.955.018 1.91.142 3.698-.075 1.397-.149 2.793-.532 4.407.181.235.362.47.457.753M731 418.128c-.004-1.493.242-3.045-.091-4.46-.264-1.121-1.096-2.766-1.93-2.938-1.221-.251-2.989.262-3.914 1.113-.648.595-.81 2.941-.268 3.388 1.848 1.523 4.103 2.551 5.889 4.4l-1.022 4.344c1.359.084 2.718.217 4.079.244 5.878.117 5.519-4.095 5.105-7.89-.128-1.172-1.657-2.626-2.865-3.062-.606-.219-2.046 1.462-2.9 2.461-.832.973-1.399 2.172-2.082 2.4M649.474 344c1.658-.006 3.472.407 4.928-.137 1.384-.517 3.339-1.975 3.41-3.12.346-5.614.47-11.294-.085-16.876-.141-1.416-3.053-2.557-4.692-3.825-1.011 1.399-2.348 2.677-2.932 4.236-.49 1.309-.215 2.957-.083 4.437.428 4.798-.967 7.628-6.526 7.509-1.131-.024-3.078 2.556-3.229 4.077-.11 1.108 1.908 2.908 3.354 3.553 1.385.617 3.257.142 5.854.147m-61.681 33.826c-.521 1.886-1.121 3.755-1.54 5.663-.431 1.965-.686 3.969-1.018 5.956 1.712-1.489 3.644-2.802 5.037-4.546.643-.805.198-2.455.308-3.717.106-1.223-.163-2.875.518-3.584 2.988-3.113 2.415-5.652-.912-7.832l3.903-7.91-1.436-1.232c-1.578 1.528-3.441 2.867-4.634 4.652-.792 1.185-.075 3.695-.987 4.429-3.615 2.913-1.68 5.09.76 8.12m83.888-75.63l-9.409-9.56-2.309 4.229h-8.753c1.847 2.225 3.695 3.942 5.791 4.334 4.669.874 9.463 1.087 14.68.997M743 310.498c-.766 2.137-1.723 4.231-2.231 6.428-.347 1.5-.066 3.144-.066 4.724l1.604-.003c.908-2.044 1.53-4.285 2.777-6.096 3.883-5.639 3.744-7.6-1.427-12.812l-.656 7.76M594.974 421.166l.744-5.617c-5.323-.609-9.277 3.916-7.438 8.294.364.867 2.676 1.656 3.697 1.313 1.188-.399 1.944-2.084 2.997-3.99m75.999-124.873l9.284-7.137c-3.574-3.632-6.661-1.755-9.769-.703 0 2.552 0 4.925.485 7.84m-49.48 28.756l-1.345 5.388 6.956-2.351-.159-2.08c-1.635-.467-3.271-.934-5.451-.956m-4.454 10.749c.85 1.059 1.518 2.534 2.62 3.016.636.278 2.707-.939 2.819-1.681.157-1.039-.71-3.014-1.503-3.225-1.096-.292-2.53.684-3.935 1.891m118.853 14.47l.002 2.314 2.598-1.597c-.646-.3-1.293-.6-2.6-.717z"/><path d="M336.987 234.924c14.911-10.141 31.085-16.209 48.291-19.87 20.343-4.329 37.968.946 54.925 12.722 19.451 13.508 41.656 20.754 65.461 21.168 13.567.236 27.362-.206 40.704-2.439 18.162-3.04 34.888-10.727 49.835-21.632 16.497-12.037 34.461-13.134 53.655-8.898 20.176 4.453 38.208 13.075 54.244 26.003 1.231.993 2.314 2.17 4.518 4.258-45.772 1.421-83.835 18.047-115.423 49.083-31.622 31.071-48.008 69.3-51.627 113.867l-11.59-2.629c-12.122-2.659-24.105-2.393-35.863 1.86-3.401 1.23-4.642.395-4.884-3.452-3.039-48.22-23.824-87.587-60.268-118.804-21.747-18.628-47.036-30.484-74.92-36.677-6.621-1.471-13.5-1.798-20.269-2.576-3.082-.354-6.185-.527-9.279-.782l-.569-1.322 13.061-9.881z" class="N"/><path d="M800.728 499.828c-.034-24.222-6.181-46.068-19.954-65.662-1.131-1.609-1.332-4.762-.593-6.665 12.766-32.852 17.224-66.491 9.934-101.262-1.667-7.95-3.957-15.769-5.913-23.66-.183-.738-.024-1.56-.024-3.292 40.294 25.739 63.196 61.608 66.596 108.574 3.521 48.644-14.919 88.35-53.155 120.008l3.11-28.041z" class="O"/><path fill="#e4ecfe" d="M250.655 425.287c2.209 3.789 2.168 6.688-.306 10.343-17.913 26.46-22.782 55.552-16.708 86.699.265 1.358.355 2.75-.117 4.33-35.573-29.355-53.77-67.069-52.202-113.067 1.675-49.128 24.61-86.812 66.197-113.621-13.177 42.147-12.334 83.745 3.137 125.317z"/><path d="M628.01 309.999l5.928-2.429c3.4-1.29 5.23.057 6.035 3.739l-4.901 1.366 4.124 7.523-6.315 3.324-2.062-8.319-5.96 3.912-3.88-4.131c-.226-.325-.115-.498.334-.914.338-.244.62-.588.62-.588.128-.13.255-.26.913-.547.745-.454.959-.75 1.173-1.047.515-.553 1.031-1.105 2.128-1.763l1.864-.126z" class="J"/><path d="M757.074 336.982l-2.039-13.667c1.584 4.674 4.247 9.699 4.483 14.835.639 13.904.548 27.865.11 41.783-.164 5.204-2.09 10.353-3.483 15.78.25-3.983.764-8.22 1.293-12.455.183-1.464.404-2.923.872-5.06.381-1.862.498-3.048.614-4.233l-.597-33.049c-.608-1.762-.93-2.847-1.253-3.933z" class="P"/><path fill="#bbb0fa" d="M574.88 408.313c.523 6.23.732 12.732.751 19.718a243.99 243.99 0 0 1-.751-19.718z"/><path d="M750.488 412.14c1.266-4.534 2.832-9.254 4.711-14.099-1.262 4.555-2.836 9.233-4.711 14.099z" class="P"/><path d="M700.593 279.156c.145.523-.138.934-.514 1.593-.092.248-.098.215-.098.215-3.475.216-6.95.431-10.692.377 3.447-.946 7.161-1.622 11.304-2.185z" class="Q"/><path d="M579.574 454.327c1.494 3.257 2.883 6.871 4.205 10.904-1.481-3.236-2.895-6.892-4.205-10.904z" class="F"/><path d="M733.268 280.338c-2.531.083-5.306-.137-8.202-.726 2.572-.105 5.266.159 8.202.726zm-24.238-.403l-.027-.715c2.744-.299 5.492-.359 8.619-.308-.093.409-.564.708-1.766 1.025-2.762.012-4.794.005-6.826-.002z" class="Q"/><path d="M577.382 446.338a27.72 27.72 0 0 1 2.157 5.29c-.848-1.483-1.487-3.206-2.157-5.29z" class="F"/><path d="M606.7 329.223c-.799 1.501-1.91 3.1-3.373 4.737.785-1.521 1.924-3.08 3.373-4.737zm-10.046 13.796c-.352 1.193-.994 2.534-1.969 3.939.338-1.221 1.008-2.506 1.969-3.939z" fill="#dde2fe"/><path d="M741.821 287.717c-.918-.796-1.847-1.927-2.793-3.4.916.793 1.849 1.929 2.793 3.4zm6.266 12.885c-.672-.557-1.332-1.47-1.933-2.793.688.539 1.316 1.488 1.933 2.793z" class="K"/><path d="M685.745 281.281c-.605.605-1.548 1.104-2.851 1.5.597-.604 1.555-1.105 2.851-1.5zm52.88.531c-1.076.037-2.192-.217-3.494-.766 1.028-.039 2.241.218 3.494.766z" class="Q"/><path d="M584.339 468.309c.564.567 1.082 1.465 1.549 2.727-.566-.556-1.08-1.476-1.549-2.727zm4.734 10.984c.63.512 1.263 1.349 1.864 2.555-.642-.498-1.251-1.363-1.864-2.555z" class="F"/><path fill="#dde2fe" d="M609.75 325.461c-.199.795-.69 1.635-1.51 2.503.187-.801.702-1.63 1.51-2.503z"/><path d="M595.199 490.243c.555.272 1.124.864 1.666 1.803-.569-.264-1.111-.873-1.666-1.803z" class="F"/><path d="M745.881 295.675c-.552-.33-1.127-.988-1.613-2.023.589.313 1.09 1.005 1.613 2.023z" class="K"/><path d="M600.682 498.422c.39.092.833.485 1.309 1.198-.396-.086-.827-.491-1.309-1.198z" class="F"/><path d="M627.978 309.646c-.395.361-.823.368-1.57.368.084-.401.487-.795 1.159-1.306.305.117.342.351.411.938z" class="K"/><path d="M599.103 496.278c.236-.048.481.172.782.638-.22.041-.497-.164-.782-.638zm5.141 6.966c.252-.138.453.018.671.426-.267.231-.513.102-.671-.426zm-1.604-2.022c.099-.087.241.077.269.121s-.204.17-.204.17-.164-.204-.065-.291zm-5.034-6.991c.096-.108.288.108.319.172s-.24.165-.24.165-.176-.229-.079-.337zm-3.048-4.957c.217-.051.328.085.46.369-.235.174-.431.065-.46-.369zm-1.25-2.023c.249-.125.442.035.652.438-.262.214-.503.082-.652-.438zm-2.118-3.959c.229-.014.446.239.682.749-.219.01-.457-.236-.682-.749zm-2.569-4.979c.224-.013.313.147.392.462-.275.136-.448-.013-.392-.462z" class="F"/><path d="M749.294 414.014c-.073-.168.057-.495.445-.919.091.188-.075.474-.445.919z" class="P"/><path d="M621.77 313.435c.162.048-.119.392-.214.448s-.194-.266-.194-.266.246-.23.408-.182zm1.97-1.477c.064.228-.151.524-.631.908-.06-.221.147-.53.631-.908zm125.706-8.265c-.21.033-.32-.131-.43-.467.244-.124.42.023.43.467zm-.822-1.982c-.272.068-.432-.136-.55-.593.285-.122.492.069.55.593zm-5.146-11.013c-.231.045-.345-.115-.464-.445.272-.176.467-.039.464.445z" class="K"/><path fill="#5a23eb" d="M359.286 447.162l-12.075 5.312c-2.97-12.043 6.134-29.441 19.249-37.885 18.242-11.745 42.569-10.25 59.639 3.471 8.623 6.931 18.349 23.148 14.119 34.642-25.933-14.481-52.77-18.114-80.932-5.54z"/><path fill="#5a20ed" d="M546.646 509.805c1.121 6.178-.647 11.237-3.824 15.96-5.286 7.857-10.34 15.88-15.917 23.524-2.17 2.975-1.605 4.563.839 6.586 18.328 15.163 38.092 18.664 59.735 7.544 1.42-.729 2.975-1.196 4.426-1.768 4.094 8.33-2.925 26.913-17.721 35.012-16.594 9.082-41.987 7.685-58.628-16.885-8.114 13.01-19.519 20.742-34.831 21.813-8.822.617-17.24-1.071-24.866-5.772-12.082-7.448-19.713-22.791-16.523-34.121l9.936 3.935c19.924 8.336 37.657 4.266 53.834-9.284 2.747-2.301 3.543-4.1 1.187-7.385-5.227-7.284-10.063-14.853-14.951-22.375-9.032-13.9-3.942-29.015 12.227-32.552 9.026-1.974 18.981-1.508 28.223-.143 8.19 1.21 14.018 7.248 16.854 15.913z"/><path fill="#e4f0fe" d="M758.66 373.71c.147 1.439.031 2.625-.337 4.059-3.742.714-4.051-2.025-5.107-4.277-.626-1.336-2.05-2.297-3.115-3.427-.7 1.422-1.657 2.78-2.026 4.283-.347 1.414.021 2.987-.095 4.477-.241 3.08.107 5.601 3.867 6.37.921.188 1.598 1.573 3.028 3.086l-20.177-1.266c-3.486 3.167-7.881 6.502-11.448 10.564-4.496 5.119-10.143 3.401-15.331 3.053-1.405-.094-3.04-3.996-3.669-6.388-.631-2.4-.139-5.096-.139-7.936h-13.359c-2.547 9.667-2.644 9.516-10.96 9.775-4.984.155-7.379-1.659-7.945-6.642-.142-1.247-2.02-3.166-3.239-3.279-6.924-.639-13.891-.816-20.843-1.168-3.121-.158-5.366.809-6.714 3.957-1.275 2.976-8.975 4.435-13.486 2.701-3.834-1.473-3.629-4.271-2.839-7.801.712-3.179.422-6.638.226-9.952-.248-4.2 2.028-5.722 5.683-5.863 3.493-.134 7.022-.313 10.485.033 4.174.417 5.41-1.397 4.883-5.158-.023-.163-.004-.333-.003-.499.043-9.566 1.814-11.068 11.455-10.45 4.539.291 9.111.05 14.577.05 0-2.894.139-5.41-.029-7.906-.331-4.907 1.519-7.02 6.415-7.117 1.989-.04 4.159.276 5.909-.421 1.487-.592 3.305-2.262 3.557-3.703.935-5.34 3.901-7.495 9.056-6.843 4.965.628 8.028-.347 7.155-6.427-.501-3.493 1.971-5.006 5.201-5.269 1.757-.143 3.676-.659 5.248-.154 2.4.77 4.582 2.246 6.808 3.507.368.208.389 1.102.746 1.247 8.745 3.57 4.193 11.016 4.91 16.885.481 3.933.771 7.898.964 11.857.212 4.375-2.063 6.433-6.399 6.334-1.665-.038-3.41.322-4.984-.058-9.93-2.4-13.653 6.139-19.471 10.944-.527.435-.573 1.453-1.17 3.109h10.748l22.485-.007c3.204-.009 6.385.735 8.126-3.687.579-1.47 4.62-2.192 7.081-2.2 11.187-.037 11.276.532 14.273 11.605z"/><path fill="#5b24ec" d="M680.956 451.329l-.815-.482c-.556-.462-.807-.508-1.095-.352l-2.276-1.154-14.824-5.899-1.858-.692-6.057-1.382c-.462-.093-.923-.186-2.013-.51-9.448-1.892-18.259-2.969-27.002.19l-4.891.254c-1.609.542-2.512 1.049-3.415 1.556l-2.73.154c-2.609.951-4.535 1.855-6.46 2.759-.347.007-.694.015-1.646.114-2.91 1.308-5.215 2.523-7.52 3.739l-2.337.575c-.837.211-1.019.433-1.039.787 0 0 .023.015-.345.031-1.763.312-3.158.608-4.554.904 0 0-.083.059-.03-.213s-.203-.698-.203-.698c.075-1.397.149-2.793.393-4.845.194-1.509.219-2.363.243-3.218l.745-2.771c.234-1.128.297-1.676.359-2.224.209-.621.417-1.243.874-2.303.368-1.182.488-1.926.608-2.67 8.861-16.303 22.706-24.761 41.931-26.125l7.004-.167c1.67.19 3.34.379 5.601.886 1.191.389 1.792.461 2.392.533l16.398 7.299c1.166.798 1.874 1.224 2.581 1.651.586.546 1.171 1.092 2.026 2.015.419.68.663.81.998.766 2.689 3.502 5.377 7.004 8.207 11.132 1.021 2.103 1.901 3.579 2.78 5.055.005.173.011.346.066 1.129.721 2.676 1.393 4.742 2.064 6.809l-.025 3.095-.307 4.763-3.83-.492z"/><path d="M756.718 336.94c.678 1.128 1 2.213 1.338 3.657-.438.565-1.114 1.079-1.312.934-4.46-3.236-7.555 1.572-11.403 1.98-2.079.221-3.15 1.886-1.211 3.956.698.745 1.292 1.586 2.226 2.747-5.354-.156-8.653-2.787-9.29-7.109-.481-3.262-.891-6.555-1.002-9.846-.109-3.22.764-5.806 4.966-4.402.308.103.736.224.977.094 8.058-4.353 10.152 2.197 13.158 7.136.228.375.791.545 1.554.852m-12.379.256l4.684 1.937 1.155-.994-2.022-3.912c-1.334.749-2.669 1.498-3.818 2.969z" class="L"/><path d="M649.005 344c-2.128-.005-4 .47-5.384-.147-1.447-.645-3.465-2.445-3.354-3.553.151-1.521 2.098-4.101 3.229-4.077 5.559.119 6.954-2.711 6.526-7.509-.132-1.48-.407-3.128.083-4.437.584-1.559 1.921-2.836 2.932-4.236 1.639 1.267 4.552 2.408 4.692 3.825.554 5.582.43 11.262.085 16.876-.071 1.145-2.026 2.604-3.41 3.12-1.457.544-3.271.132-5.398.137z" class="R"/><path d="M587.629 377.484c-2.276-2.689-4.211-4.866-.596-7.779.911-.734.195-3.244.987-4.429 1.193-1.786 3.056-3.124 4.634-4.652l1.436 1.232-3.903 7.91c3.327 2.18 3.9 4.719.912 7.832-.681.71-.412 2.361-.518 3.584-.109 1.262.335 2.912-.308 3.717-1.393 1.744-3.325 3.057-5.037 4.546l1.018-5.956 1.376-6.005zm83.814-75.002c-4.98-.196-9.773-.409-14.443-1.283-2.096-.393-3.944-2.109-5.791-4.334h8.753l2.309-4.229c3.328 3.381 6.369 6.47 9.172 9.846z" class="J"/><path d="M708.981 280.307c2.081-.365 4.113-.358 6.581-.346 1.335 1.691 2.234 3.377 3.276 5.331l-4.602 5.39c-8.087-4.863-8.087-4.863-5.255-10.374zm21.862 139.008c.84-1.415 1.407-2.615 2.239-3.588.855-.999 2.294-2.68 2.9-2.461 1.208.436 2.737 1.89 2.865 3.062.415 3.795.774 8.008-5.105 7.89l-4.079-.244 1.179-4.659zm-30.868-138.338l2.986 2.133c-3.631 2.479-6.68 4.716-9.899 6.675-1.126.685-2.83 1.191-3.973.833-.89-.279-2.006-2.194-1.787-3.076.289-1.166 1.608-2.479 2.792-2.944 3.1-1.218 6.367-2.01 9.728-3.304.16-.331.166-.297.153-.318z" class="L"/><path d="M743.021 310.097l.635-7.359c5.171 5.212 5.311 7.174 1.427 12.812-1.247 1.811-1.869 4.051-2.777 6.096l-1.604.003c0-1.58-.28-3.224.066-4.724.508-2.197 1.465-4.29 2.252-6.828z" class="J"/><path d="M594.919 421.556c-.998 1.517-1.754 3.201-2.942 3.6-1.021.343-3.333-.446-3.697-1.313-1.838-4.378 2.115-8.903 7.438-8.294l-.799 6.007zm75.811-125.535c-.242-2.644-.242-5.016-.242-7.569 3.108-1.052 6.195-2.93 9.769.703-3.244 2.493-6.264 4.815-9.527 6.866z" class="R"/><path d="M625.281 441.333c8.479-3.443 17.29-2.367 26.386-.429-3.097.218-6.471.055-9.841.126-5.428.114-10.854.383-16.544.303z" class="D"/><path d="M731 418.564c-2.1-.781-4.356-1.81-6.203-3.333-.542-.447-.38-2.793.268-3.388.926-.85 2.693-1.364 3.914-1.113.834.171 1.666 1.817 1.93 2.938.333 1.416.087 2.967.091 4.896z" class="L"/><path d="M621.765 324.826c1.908.245 3.543.712 5.179 1.179l.159 2.08-6.956 2.351 1.618-5.61zm16.907-21.988c2.425-.966 4.798-2.093 7.296-2.716 1.089-.272 2.5.356 3.621.882.268.126.189 2.032-.122 2.159-.966.394-2.124.296-3.2.444-1.371.188-2.734.586-4.102.598-1.075.009-2.153-.429-3.405-1-.174-.331-.09-.323-.088-.365z" class="J"/><path d="M617.096 335.41c1.347-.82 2.781-1.796 3.877-1.504.793.212 1.66 2.186 1.503 3.225-.112.742-2.182 1.959-2.819 1.681-1.102-.481-1.77-1.957-2.562-3.402z" class="R"/><path d="M662.029 443.775c4.685 1.536 9.452 3.405 14.41 5.58a160.09 160.09 0 0 1-14.41-5.58zm19 7.899c1.138-.19 2.348-.035 3.757.146l.407-4.386.005 6.157c-1.365-.524-2.731-1.048-4.169-1.918z" class="D"/><path fill="#e2e9fe" d="M641.899 406.342c-1.945.39-3.995.435-6.474.377 1.837-.309 4.103-.515 6.474-.377z"/><path d="M598.756 449.721c1.902-1.312 4.206-2.527 6.879-3.722-1.913 1.287-4.194 2.552-6.879 3.722z" class="M"/><path d="M685.368 443.741c-.921-1.846-1.592-3.913-2.205-6.352.857 1.795 1.656 3.964 2.205 6.352z" class="D"/><path d="M607.926 445.843c1.519-.975 3.445-1.879 5.737-2.697-1.532.98-3.431 1.874-5.737 2.697z" class="M"/><path d="M654.218 441.627c1.636.124 3.459.507 5.531 1.135-1.615-.129-3.48-.503-5.531-1.135z" class="D"/><path d="M736.222 350.175c.977.208 1.623.509 2.27.809l-2.598 1.597c-.001-.771-.002-1.543.328-2.406z" class="L"/><path d="M683.01 435.657c-.902-1.109-1.782-2.585-2.603-4.388.914 1.123 1.77 2.572 2.603 4.388z" class="D"/><path d="M590.084 452.256c1.39-.631 2.786-.927 4.542-1.25-1.272.51-2.904 1.047-4.542 1.25zm.122-9.221c.253.767.228 1.621-.023 2.713-.236-.716-.245-1.671.023-2.713z" class="M"/><path d="M617.05 442.917c.563-.566 1.467-1.073 2.687-1.454-.571.589-1.459 1.051-2.687 1.454zm51.89-26.22c-.672-.067-1.379-.494-2.219-1.214.64.089 1.411.472 2.219 1.214z" class="D"/><path fill="#e2e9fe" d="M649.962 407.784c-.566.25-1.166.179-1.941-.151.519-.229 1.213-.2 1.941.151z"/><path d="M592.791 433.193c.158.53.038 1.274-.334 2.124-.15-.566-.047-1.238.334-2.124zm-1.462 4.814c.196.493.134 1.041-.139 1.788-.18-.445-.149-1.089.139-1.788zm3.846 12.951c-.178-.326.004-.548.57-.588.092.297-.107.467-.57.588zm-5.482.16c.154-.108.41.318.4.566-.192.013-.373-.222-.4-.566z" class="M"/><path d="M679.159 450.636c.174-.297.425-.251.711.191-.181.192-.404.111-.711-.191zm-7.225-30.983c-.269.227-.512.098-.669-.425.258-.147.461.006.669.425z" class="D"/><path fill="#e6eefe" d="M744.246 336.835c1.242-1.11 2.576-1.859 3.911-2.608l2.022 3.912-1.155.994c-1.561-.646-3.123-1.291-4.777-2.298z"/></svg>