<svg version="1.1" id="Layer_1" xmlns="http://www.w3.org/2000/svg" xmlns:xlink="http://www.w3.org/1999/xlink" x="0px" y="0px"
	 width="100%" viewBox="0 0 1000 1000" enable-background="new 0 0 1000 1000" xml:space="preserve">
<path fill="#000000" opacity="1.000000" stroke="none" 
	d="
M667.000000,1001.000000 
	C444.666656,1001.000000 222.833328,1001.000000 1.000000,1001.000000 
	C1.000000,667.666687 1.000000,334.333344 1.000000,1.000000 
	C334.333344,1.000000 667.666687,1.000000 1001.000000,1.000000 
	C1001.000000,334.333344 1001.000000,667.666687 1001.000000,1001.000000 
	C889.833313,1001.000000 778.666687,1001.000000 667.000000,1001.000000 
M355.951843,295.974152 
	C355.951843,295.974152 355.977844,296.081940 356.505463,295.805054 
	C357.024139,295.218658 357.542847,294.632263 358.003876,294.015900 
	C358.003876,294.015900 357.989258,294.079224 358.467377,293.765320 
	C358.965088,293.210541 359.462799,292.655762 360.727295,292.086029 
	C363.326202,290.306763 365.925140,288.527466 369.167480,286.748871 
	C372.436249,285.182922 375.834198,283.834839 378.939575,281.993347 
	C382.456238,279.907990 385.731079,277.409058 389.071869,275.034882 
	C391.418945,273.366913 393.700531,271.606873 396.815735,269.970367 
	C398.914398,269.016449 401.013092,268.062500 403.914795,267.049042 
	C406.400726,266.002472 408.944427,265.065948 411.324127,263.816925 
	C411.802734,263.565735 411.658508,262.127808 412.617126,261.104095 
	C419.214935,259.046417 425.785187,256.894745 432.416626,254.951935 
	C443.858521,251.599884 455.204926,247.740723 466.844208,245.300171 
	C476.348328,243.307327 486.221313,243.073761 496.384857,242.805511 
	C501.480225,242.874542 506.578674,243.080307 511.669891,242.965179 
	C515.141357,242.886673 518.602661,242.359650 522.963379,242.075897 
	C527.103088,242.756790 531.227966,243.552048 535.385742,244.094437 
	C543.677795,245.176178 552.015503,245.934967 560.284058,247.164749 
	C571.225037,248.792038 581.995605,251.114197 591.888000,256.454773 
	C592.681641,256.883209 594.160583,256.042480 595.959106,256.249451 
	C596.521973,257.169800 596.881226,258.619781 597.679871,258.926697 
	C604.029541,261.366913 610.462585,263.590027 617.077026,266.648010 
	C619.825073,267.512634 622.573181,268.377228 625.381714,269.527985 
	C625.536987,269.667114 625.716492,269.758698 625.885681,270.186676 
	C625.885681,270.186676 626.232300,270.355530 626.209290,271.053558 
	C630.143982,273.868805 634.023682,276.768036 638.068054,279.415802 
	C638.733765,279.851654 640.122070,279.183685 641.732971,279.385040 
	C645.474792,282.153137 649.181946,284.969666 652.970215,287.672668 
	C655.616638,289.560974 658.373901,291.293915 661.233765,293.406372 
	C661.355957,293.571045 661.478577,293.735443 661.764954,294.156738 
	C661.764954,294.156738 662.069641,294.151062 662.178345,294.848877 
	C664.367615,297.052063 666.423218,299.411438 668.775269,301.424500 
	C673.094604,305.121216 677.588501,308.613892 682.005981,311.990631 
	C682.005981,311.990631 681.804993,311.993927 681.548218,312.695343 
	C683.671265,314.788269 685.794250,316.881195 688.090271,319.645203 
	C689.833130,322.021729 691.591614,324.386993 693.315979,326.776917 
	C698.693420,334.229767 704.838806,341.261749 709.241699,349.252869 
	C715.585693,360.767029 721.291931,372.733185 726.086243,384.970337 
	C730.310242,395.751923 732.909851,407.169952 736.260986,419.089478 
	C736.887573,426.059509 737.514160,433.029510 738.057129,440.933685 
	C738.034424,446.084686 737.891907,451.238861 738.026672,456.385742 
	C738.135681,460.548340 738.578735,464.702179 739.131836,469.741913 
	C738.817139,473.433624 738.502502,477.125366 737.996155,481.676575 
	C736.687195,487.887054 735.017029,494.047424 734.146851,500.318787 
	C732.500366,512.184692 727.872070,522.935608 722.891479,533.651550 
	C717.120789,546.067261 709.701538,557.384949 701.201660,568.063965 
	C699.198914,570.580139 697.595215,573.413940 695.144714,576.224792 
	C693.475037,578.010193 691.805298,579.795593 689.752380,581.761169 
	C689.752380,581.761169 689.576721,582.146484 688.962585,582.259277 
	C684.486389,585.145020 680.010193,588.030823 675.533997,590.916565 
	C675.761841,591.036072 675.989685,591.155640 676.217529,591.275146 
	C674.231079,593.736267 672.244629,596.197327 669.815613,599.247437 
	C666.471924,601.371582 663.135620,603.507263 659.783081,605.617371 
	C653.562378,609.533020 647.711121,614.322449 641.033142,617.170105 
	C622.699158,624.988098 603.931824,631.684998 583.597595,633.302673 
	C583.597595,633.302673 583.281860,633.515198 582.849426,633.754517 
	C582.849426,633.754517 582.616699,634.190491 581.758606,634.204041 
	C567.969421,634.195984 554.180298,634.187988 540.065674,633.579529 
	C539.903931,633.419250 539.742188,633.259033 539.566406,633.290039 
	C539.566406,633.290039 539.177124,633.339722 538.297852,633.024597 
	C530.122070,632.886353 522.326233,631.182068 514.614807,628.351501 
	C509.849945,626.602417 504.589539,626.203430 498.987213,624.746582 
	C498.384735,623.837219 497.972229,622.402832 497.148560,622.104858 
	C492.247009,620.331726 487.250427,618.821289 481.532104,616.997253 
	C479.020477,615.962097 476.508881,614.926880 473.662262,613.311401 
	C472.051788,612.576721 470.441315,611.841980 468.589661,610.960266 
	C468.589661,610.960266 468.317474,611.035706 467.953400,610.554871 
	C467.622192,610.346375 467.291016,610.137817 466.985657,610.027893 
	C466.985657,610.027893 467.084351,610.002747 466.729828,609.403870 
	C465.154755,608.569153 463.579651,607.734436 462.013855,606.980286 
	C462.013855,606.980286 462.094238,606.970276 461.726562,606.395020 
	C459.477844,604.902710 457.229095,603.410400 455.000732,602.007874 
	C455.000732,602.007874 455.090637,601.987976 454.724701,601.343079 
	C452.828888,599.867554 450.933105,598.392029 449.023438,596.982361 
	C449.023438,596.982361 449.090698,596.984619 448.754883,596.385925 
	C446.817596,594.465515 444.928986,592.492737 442.933441,590.634888 
	C437.991974,586.034363 433.001556,581.486450 428.020782,576.984924 
	C428.020782,576.984924 428.089081,576.987183 427.968628,576.267334 
	C426.311493,574.481140 424.654327,572.694946 422.994995,571.004089 
	C422.994995,571.004089 423.090332,571.006653 422.739532,570.376099 
	C421.826996,569.221252 420.914459,568.066467 420.003723,567.002991 
	C420.003723,567.002991 420.095062,567.000854 420.030243,566.239380 
	C418.377319,564.134827 416.724396,562.030334 415.088501,559.889404 
	C415.088501,559.889404 415.058807,559.862427 414.899506,559.191467 
	C413.955719,558.116516 413.011902,557.041626 412.097229,555.199585 
	C409.696350,549.606750 407.110443,544.084473 404.945526,538.401733 
	C402.685944,532.470276 400.717682,526.419922 398.833130,520.355957 
	C397.008514,514.484741 395.452332,508.530121 393.791199,501.735870 
	C393.805206,490.218506 393.819244,478.701172 394.576355,466.806030 
	C395.206940,464.318634 395.887573,461.842682 396.457886,459.341522 
	C397.698181,453.901978 398.882202,448.449554 400.685730,442.628387 
	C404.290680,437.725189 406.843353,432.364807 408.161743,425.658600 
	C413.630402,416.393463 419.061981,407.225616 427.183899,399.769897 
	C436.446259,391.267365 445.846100,383.164795 457.427856,377.968750 
	C462.738983,375.585907 468.033875,373.166962 474.092407,370.773224 
	C477.770447,369.791077 481.395508,368.375153 485.137695,367.918457 
	C492.580811,367.010010 500.079407,366.433655 507.572021,366.089722 
	C514.132629,365.788605 520.716492,365.993561 528.131348,366.048004 
	C531.633118,366.722992 535.279724,366.984558 538.609192,368.151245 
	C548.201660,371.512451 558.643494,372.435730 567.225525,378.772583 
	C573.848389,383.662781 581.642334,387.147156 587.647888,392.642059 
	C593.552307,398.044525 598.195618,404.961456 602.786499,411.630859 
	C609.398499,421.236389 612.872009,432.221741 615.290833,444.310974 
	C615.523682,445.880493 615.936584,447.447418 615.959229,449.019928 
	C616.077332,457.216431 616.096191,465.414337 615.520691,474.014832 
	C615.385498,474.223938 615.250244,474.433044 615.103088,474.392883 
	C615.254211,474.510406 615.339600,474.664642 615.033997,475.646271 
	C614.323914,477.944489 613.254761,480.197906 612.961243,482.548126 
	C610.845398,499.489441 599.817444,509.936890 586.257385,517.913513 
	C579.778259,521.724792 572.080078,523.463684 564.006592,526.070374 
	C558.011475,526.007080 552.016357,525.943787 545.915100,525.963806 
	C545.915100,525.963806 545.996643,526.071289 545.883057,525.679077 
	C545.773621,525.393677 545.566833,525.235901 544.409241,525.003418 
	C534.491882,524.079407 526.403625,518.707214 517.431274,513.933777 
	C516.960083,513.592285 516.488953,513.250793 516.024170,512.986267 
	C516.024170,512.986267 516.101135,512.979187 515.999817,512.273926 
	C514.673462,511.153381 513.347046,510.032806 512.021057,508.983551 
	C512.021057,508.983551 512.092346,508.982513 512.086121,508.214691 
	C510.393951,504.989471 508.511139,501.848053 507.048798,498.521820 
	C503.878876,491.311401 503.515106,483.756165 505.003815,475.135345 
	C505.021210,470.337006 505.224060,465.530548 505.014465,460.742157 
	C504.661682,452.681610 501.129852,446.114868 494.628052,440.346344 
	C490.485504,435.813812 485.736877,432.173981 479.320068,432.160858 
	C474.297241,432.150574 469.273010,432.805908 463.381226,433.025482 
	C461.597015,433.137238 459.535095,432.705597 458.075104,433.451721 
	C450.400787,437.373779 443.613434,442.484955 439.414612,450.233856 
	C437.630951,453.525513 435.800446,457.098816 435.333252,460.717407 
	C434.775909,465.034393 435.657928,469.537262 435.041351,473.988098 
	C434.386475,474.275513 433.171631,474.544586 433.161499,474.853149 
	C433.028076,478.924316 433.016724,483.002502 433.140533,487.073944 
	C433.151459,487.432770 434.323364,487.756317 435.235504,488.827698 
	C435.438416,490.889832 435.641327,492.951996 435.152252,495.467499 
	C436.036407,500.956879 436.920563,506.446259 438.088745,512.610046 
	C439.172455,515.780396 439.974854,519.084717 441.405090,522.090149 
	C443.610596,526.724609 446.733368,530.963745 448.591949,535.713074 
	C451.866333,544.080017 456.587769,551.223083 463.384094,557.101318 
	C469.924469,562.758179 476.041443,568.928406 482.788910,574.316467 
	C494.708588,583.834839 509.319580,587.953857 523.370972,592.842163 
	C529.363770,594.926941 536.287964,594.334412 542.990051,595.831848 
	C543.250122,596.185181 543.506470,596.844116 543.770874,596.847351 
	C551.060486,596.937317 558.351379,597.002869 565.639954,596.907227 
	C566.168762,596.900330 566.681152,595.641296 568.016357,595.042114 
	C570.101868,594.716003 572.178040,594.299866 574.274841,594.083191 
	C578.206177,593.677124 582.360657,594.062195 586.044861,592.910645 
	C594.307678,590.327759 602.519287,587.406128 610.411560,583.864563 
	C617.496033,580.685547 624.962952,577.476135 630.769714,572.529419 
	C640.674866,564.091431 650.058655,554.826233 658.431763,544.874023 
	C664.938171,537.140625 670.177734,528.143616 674.826477,519.114197 
	C677.947998,513.051270 678.950623,505.917175 681.087158,499.322571 
	C684.061401,490.142639 684.072205,480.581970 685.867371,471.002472 
	C686.212280,470.736450 686.855835,470.473694 686.858765,470.203918 
	C686.944946,462.294708 687.001404,454.384399 686.917236,446.475800 
	C686.912048,445.989410 685.716614,445.515656 684.960632,444.113159 
	C685.596802,436.394226 684.430603,428.990936 681.068542,421.188141 
	C677.078247,409.667969 673.791809,397.840149 668.924194,386.703430 
	C662.465271,371.926147 651.335510,360.032013 641.543335,347.449829 
	C637.009094,341.623657 630.232117,337.439636 624.152222,332.943420 
	C614.498108,325.804047 604.509155,319.383698 593.570801,314.021759 
	C581.567810,308.137939 569.158569,303.680542 556.501404,300.261200 
	C546.859741,297.656494 536.435364,297.960266 526.363220,296.930511 
	C523.929749,296.681793 521.512329,296.276550 518.996704,295.076385 
	C514.722046,294.889954 510.447632,294.696106 506.171051,294.577393 
	C506.095886,294.575317 505.995636,295.476349 505.062408,295.917206 
	C498.527618,296.568237 491.900757,296.740631 485.478302,297.975800 
	C474.141113,300.156128 462.879272,302.790405 451.687195,305.633331 
	C446.999573,306.824036 442.523438,308.920654 438.036224,310.807648 
	C432.984406,312.931976 427.816925,314.914124 423.078674,317.621307 
	C415.283813,322.074921 407.649261,326.849701 400.226837,331.900146 
	C395.361053,335.211029 390.931702,339.179474 386.423248,342.990997 
	C384.729706,344.422760 383.512817,346.416504 381.825653,347.857971 
	C372.131317,356.140503 364.020355,365.864410 357.031708,376.404144 
	C352.027344,383.951324 348.747162,392.665192 343.563293,400.063629 
	C337.810059,408.274597 336.018799,417.940918 332.183441,426.806152 
	C328.862122,434.483154 327.711487,443.180420 326.204895,451.535553 
	C325.008820,458.168671 324.725433,464.966400 323.270935,472.197876 
	C323.178802,478.584076 322.999512,484.970886 323.046143,491.356079 
	C323.060638,493.342529 323.686890,495.324524 323.911682,498.162354 
	C324.605682,504.829376 325.234070,511.504150 326.022980,518.159912 
	C326.386047,521.222717 326.881256,524.295044 327.645844,527.278625 
	C328.555939,530.829956 329.881897,534.272400 330.916290,537.794739 
	C332.669220,543.763672 333.840332,549.957520 336.151703,555.696045 
	C339.723450,564.563477 343.420288,573.492615 348.206940,581.731689 
	C355.007019,593.436218 361.973755,605.246460 370.480194,615.700806 
	C379.184113,626.397705 389.807495,635.537354 399.643036,645.305908 
	C402.449829,648.093628 405.258698,650.932922 408.386871,653.330688 
	C413.046021,656.901978 417.865570,660.300903 422.844849,663.407776 
	C428.526398,666.952698 434.458008,670.096741 440.074768,674.131775 
	C444.369904,677.198853 448.192017,681.255615 454.864899,681.046509 
	C455.618073,681.313904 456.398102,681.523315 457.120178,681.857849 
	C462.935242,684.551819 468.568848,687.764709 474.594971,689.840393 
	C480.644135,691.924011 487.427277,692.065857 493.259583,694.541199 
	C500.335999,697.544739 507.435272,698.994385 515.397949,699.732849 
	C521.655396,700.835938 527.885742,702.148315 534.180725,702.960815 
	C537.764648,703.423401 541.454041,703.069336 544.999878,703.949097 
	C545.283386,704.280579 545.564941,704.900024 545.850708,704.901917 
	C556.748291,704.976379 567.646545,705.019043 578.543701,704.937256 
	C579.023926,704.933716 579.495056,703.725586 580.901733,702.937073 
	C587.615417,702.567810 594.329041,702.198486 601.915222,701.944397 
	C604.227051,700.936951 607.720337,704.374817 609.628357,700.006409 
	C609.628357,700.006409 610.070984,699.807373 610.869324,699.926758 
	C612.321716,699.602905 613.774109,699.279114 615.955872,698.708252 
	C622.112732,696.952332 628.330383,695.382080 634.410828,693.392639 
	C641.720825,691.000854 648.914124,688.252319 656.501282,685.630127 
	C656.663940,685.454346 656.777100,685.251038 657.251709,685.084717 
	C657.251709,685.084717 657.490051,684.743652 658.257385,684.759644 
	C662.962891,683.478394 667.685852,682.253662 672.342468,680.814270 
	C672.737366,680.692200 672.689148,679.136597 673.739868,678.040405 
	C674.026123,677.933655 674.312439,677.826843 675.274048,677.644165 
	C680.073547,675.959900 684.873108,674.275696 689.836975,672.533813 
	C689.978271,671.441895 690.140442,670.187866 690.808899,668.811584 
	C690.930481,668.498230 691.052063,668.184814 691.865234,667.785217 
	C697.514282,664.903809 703.163391,662.022461 707.413391,659.854675 
	C709.354126,656.947510 710.607666,655.069824 712.186340,653.104614 
	C712.186340,653.104614 712.170471,652.768250 712.632141,652.468323 
	C713.362976,652.045593 714.093872,651.622864 715.163452,651.150146 
	C715.163452,651.150146 715.228271,650.813904 715.619446,650.559387 
	C716.026428,650.101624 716.433411,649.643799 717.578613,649.090332 
	C718.044067,648.937683 718.589905,648.893555 718.963318,648.616699 
	C733.794067,637.623047 745.846863,623.888123 757.274536,609.562134 
	C759.171875,607.183655 760.547607,604.389221 762.671448,601.379272 
	C763.444031,599.882324 764.216675,598.385376 764.857361,596.926636 
	C764.857361,596.926636 764.891602,597.059631 765.420654,597.517395 
	C765.852783,596.831848 766.284973,596.146362 767.117981,595.223633 
	C767.117981,595.223633 767.207336,594.766541 767.703491,594.318359 
	C771.876526,591.103333 776.489746,588.175171 776.075745,581.148499 
	C780.100098,573.559875 784.352722,566.080322 788.052673,558.336670 
	C789.909546,554.450500 790.760437,550.083801 792.714294,545.557861 
	C793.480896,545.069092 794.748169,544.722778 794.934204,544.068848 
	C796.319763,539.198425 797.491089,534.267029 799.001099,528.560791 
	C800.717224,521.248474 802.579468,513.966064 804.085693,506.610809 
	C804.802368,503.110901 804.741150,499.458893 805.213562,495.899841 
	C805.721069,492.075836 806.479553,488.285858 807.054199,484.469849 
	C807.414368,482.078888 807.637695,479.667328 808.735596,476.835358 
	C808.841370,462.528473 808.974365,448.221588 808.967285,433.914734 
	C808.966980,433.246368 807.717285,432.578583 807.056763,430.991577 
	C806.390869,425.320892 805.843262,419.633148 805.029846,413.983704 
	C803.953857,406.510742 803.172241,398.941803 801.343323,391.644897 
	C799.228271,383.206665 796.328979,374.941101 793.372314,366.744141 
	C790.192322,357.928223 786.723816,349.205200 783.053650,340.581024 
	C780.309570,334.133026 777.466370,327.657898 773.914185,321.639313 
	C768.611694,312.655121 762.794556,303.960907 756.905701,295.341919 
	C753.585388,290.482330 749.755371,285.961334 746.024780,281.394196 
	C740.883728,275.100342 735.695679,268.841034 730.372498,262.701569 
	C728.091797,260.071075 725.486572,257.706757 722.909241,255.352417 
	C719.701477,252.422150 716.361694,249.636612 713.099426,246.765381 
	C712.495422,246.233780 712.062256,245.492935 711.424500,245.017258 
	C706.640991,241.449158 701.904236,237.810455 697.003723,234.408691 
	C687.790161,228.013077 678.645569,221.491623 669.144958,215.545303 
	C662.771301,211.556091 655.834045,208.467209 648.758789,204.309357 
	C648.250916,203.540222 647.893066,202.293274 647.210999,202.079071 
	C642.604126,200.632431 637.928650,199.404419 632.939209,197.498886 
	C632.740784,197.380142 632.542419,197.261398 632.612366,197.100357 
	C632.500671,197.277878 632.340149,197.378021 631.461670,197.017151 
	C624.245789,194.253693 617.029846,191.490250 609.576477,188.401688 
	C609.184448,188.337677 608.792419,188.273666 608.186462,187.788284 
	C608.186462,187.788284 607.746155,187.616852 607.327026,187.111633 
	C605.367065,186.299088 603.122803,185.854156 601.503052,184.601639 
	C597.447632,181.465698 592.998840,180.848694 588.045166,180.924606 
	C584.593689,180.977509 581.124329,179.861145 576.748413,178.995758 
	C568.209595,177.972794 559.670776,176.949829 551.080383,175.035004 
	C550.456299,174.332932 549.871338,173.062561 549.202148,173.016510 
	C542.386963,172.547729 535.555420,171.959137 528.733459,172.015030 
	C510.774567,172.162201 492.818848,172.673248 474.860016,172.875305 
	C472.379333,172.903229 471.591553,173.682709 471.131226,175.976532 
	C470.122375,175.980835 469.113495,175.985138 467.636261,175.269333 
	C462.186676,175.924057 456.732574,176.546082 451.296112,177.295975 
	C450.864410,177.355515 450.554901,178.300812 449.327881,178.902039 
	C438.532990,181.393051 427.475555,183.094559 417.009674,186.574921 
	C403.935303,190.922684 391.191742,196.385727 378.598206,202.021667 
	C368.079895,206.728928 357.883667,212.194641 347.742432,217.689270 
	C342.747375,220.395660 338.026154,223.698502 333.487610,227.136169 
	C325.548706,233.149368 317.846283,239.474823 309.290741,245.946655 
	C302.793884,249.574051 297.479919,254.408127 293.987732,261.001007 
	C293.987732,261.001007 293.965790,260.924652 293.306396,261.083069 
	C292.509369,262.066742 291.712372,263.050415 291.005798,264.005676 
	C291.005798,264.005676 290.977631,263.915161 290.305756,264.074310 
	C288.842377,265.725922 287.378998,267.377533 286.022034,269.005402 
	C286.022034,269.005402 285.998840,268.898834 285.311127,269.056488 
	C281.509399,273.362518 277.707703,277.668518 273.360657,282.104980 
	C272.910431,282.674408 272.460205,283.243805 271.440643,284.183136 
	C270.598541,285.464294 269.756439,286.745483 269.024353,288.022736 
	C269.024353,288.022736 269.021301,287.912689 268.499451,288.245819 
	C268.040497,289.086060 267.581543,289.926331 266.836456,290.820953 
	C266.836456,290.820953 266.779449,291.106567 266.121338,291.223480 
	C265.029938,293.163818 263.938568,295.104156 263.043854,297.013947 
	C263.043854,297.013947 263.014374,296.817108 262.401001,296.430298 
	C261.691498,297.484161 260.981964,298.537994 260.014374,300.324310 
	C259.989227,300.581970 259.964050,300.839600 259.542908,301.270355 
	C259.311188,301.455566 259.143951,301.687256 258.470612,302.079498 
	C258.287201,302.404755 258.103790,302.730011 257.363739,303.415253 
	C252.220963,306.997711 249.085663,311.998383 246.932526,318.547394 
	C241.750656,327.674164 236.171173,336.603851 231.516983,345.992218 
	C228.005096,353.076324 226.084122,360.937653 222.729080,368.113647 
	C217.400146,379.511597 213.029099,391.154053 210.831650,403.569092 
	C210.405945,405.974213 210.143250,408.450989 209.359863,410.742401 
	C206.441360,419.279205 204.626297,427.960480 204.759201,437.743561 
	C203.812225,441.103210 202.287720,444.419464 202.031296,447.830994 
	C201.376495,456.542297 200.990555,465.297699 201.038147,474.032501 
	C201.117477,488.585114 201.429764,503.143738 202.070709,517.681030 
	C202.240601,521.534241 203.968765,525.318726 204.958572,530.026367 
	C206.444702,540.367676 207.313141,550.846741 209.581192,561.013611 
	C212.126709,572.424255 215.425964,583.734558 219.346817,594.750610 
	C222.979889,604.958008 227.449158,614.928772 232.316299,624.618958 
	C237.282516,634.506409 242.987717,644.042786 248.728210,653.515442 
	C254.226181,662.587830 259.861023,671.612915 266.031616,680.232117 
	C272.321014,689.017395 278.601715,698.015747 286.188782,705.621460 
	C301.403931,720.873901 317.480072,735.269653 333.294678,749.917725 
	C334.526703,751.058960 336.492645,751.407776 338.286011,752.445557 
	C338.429810,752.654114 338.622955,752.794983 338.872223,753.201782 
	C338.872223,753.201782 339.197449,753.276489 339.231476,753.966980 
	C340.350006,755.340698 341.207001,757.140137 342.631714,758.015564 
	C349.302917,762.114807 356.130432,765.959717 363.052216,770.621582 
	C368.264648,773.865234 373.319092,777.406372 378.728210,780.279785 
	C386.033691,784.160583 393.611877,787.528137 401.068542,791.922607 
	C401.610535,792.633057 402.009766,793.729065 402.717743,793.991150 
	C407.258606,795.672180 411.867157,797.170349 417.209686,799.027832 
	C423.583282,804.087952 431.240417,804.106079 438.425018,802.875549 
	C444.640717,801.810974 451.632477,799.848389 456.182220,795.877686 
	C461.714417,791.049561 465.743652,784.495056 468.656525,776.945679 
	C472.872162,766.019714 467.698334,757.624268 464.074310,748.885681 
	C462.303314,744.615295 457.780670,740.877014 453.618225,738.364441 
	C448.620331,735.347473 442.403198,734.413513 437.202606,731.656128 
	C425.578827,725.493042 413.936279,719.256592 402.897064,712.127625 
	C389.668060,703.584290 377.059357,694.080566 363.811401,684.414368 
	C360.553375,681.580017 357.295380,678.745667 354.022522,675.975708 
	C354.022522,675.975708 354.085876,675.956909 354.029633,675.224731 
	C353.019501,674.073364 352.068512,672.862976 350.989288,671.780518 
	C345.691315,666.466797 340.359253,661.187073 334.826080,655.232117 
	C333.700134,654.297729 332.317749,653.547791 331.490936,652.398254 
	C327.040680,646.210632 322.840118,639.842285 318.346619,633.687195 
	C306.999512,618.144104 298.144348,601.157471 290.666138,583.566895 
	C285.558960,571.553650 282.126801,558.813660 278.208191,546.316284 
	C276.418365,540.608093 275.261414,534.701416 273.880341,528.045166 
	C272.948761,520.047058 272.017181,512.048950 271.814056,503.583771 
	C271.886414,499.850006 272.076385,496.111938 271.940308,492.385803 
	C271.910034,491.556580 270.731750,490.769318 270.018707,489.033051 
	C270.326111,480.481354 270.341034,471.906036 271.029236,463.385101 
	C271.629059,455.958588 272.988342,448.593445 274.769379,440.780792 
	C274.919800,439.013123 274.400330,436.655396 275.342834,435.585419 
	C278.517700,431.981018 276.932465,428.095062 276.986023,423.471130 
	C278.364258,419.547638 279.777649,415.636078 281.113739,411.698303 
	C284.370087,402.100952 286.941925,392.205963 291.007782,382.967010 
	C295.084808,373.702545 300.399292,364.945007 305.610901,356.228027 
	C310.828674,347.500763 316.348694,338.928772 322.197876,330.613403 
	C326.090302,325.079712 330.792633,320.115753 335.488373,314.736053 
	C335.699615,314.568726 335.845215,314.356384 336.515259,313.931793 
	C336.721069,313.592285 336.926880,313.252747 337.791504,312.829193 
	C339.891541,310.885284 341.991577,308.941376 344.018433,307.008118 
	C344.018433,307.008118 344.029633,307.081207 344.785034,307.052551 
	C349.573730,305.095459 352.433990,301.161346 354.989105,296.970184 
	C354.989105,296.970184 354.949463,297.062225 355.460022,296.850220 
	C355.659790,296.549103 355.859558,296.247955 355.951843,295.974152 
z"/>
<path fill="#462B95" opacity="1.000000" stroke="none" 
	d="
M674.598816,677.720032 
	C674.312439,677.826843 674.026123,677.933655 672.934082,678.217163 
	C667.248901,680.510437 662.369507,682.627075 657.490051,684.743652 
	C657.490051,684.743652 657.251709,685.084717 657.148193,685.315552 
	C656.749023,685.583679 656.453491,685.620911 656.157898,685.658203 
	C648.914124,688.252319 641.720825,691.000854 634.410828,693.392639 
	C628.330383,695.382080 622.112732,696.952332 615.228271,698.695679 
	C613.031433,698.504456 611.562195,698.325684 609.725525,698.055420 
	C607.839111,698.569397 606.320068,699.174866 604.420166,699.780457 
	C603.026550,699.848694 602.013672,699.916809 600.692383,699.819031 
	C593.525757,700.199280 586.662659,700.692566 579.815125,701.348816 
	C578.789551,701.447144 577.837158,702.309570 576.391663,702.824036 
	C566.669983,702.849060 557.407593,702.868652 547.809753,702.740662 
	C539.486206,701.664612 531.500671,700.713867 523.508728,699.819519 
	C520.671082,699.501953 517.817993,699.321533 514.971985,699.078491 
	C507.435272,698.994385 500.335999,697.544739 493.259583,694.541199 
	C487.427277,692.065857 480.644135,691.924011 474.594971,689.840393 
	C468.568848,687.764709 462.935242,684.551819 457.120178,681.857849 
	C456.398102,681.523315 455.618073,681.313904 454.408539,680.629395 
	C449.395111,677.946472 444.838013,675.680725 440.280945,673.415039 
	C434.458008,670.096741 428.526398,666.952698 422.844849,663.407776 
	C417.865570,660.300903 413.046021,656.901978 408.386871,653.330688 
	C405.258698,650.932922 402.449829,648.093628 399.643036,645.305908 
	C389.807495,635.537354 379.184113,626.397705 370.480194,615.700806 
	C361.973755,605.246460 355.007019,593.436218 348.206940,581.731689 
	C343.420288,573.492615 339.723450,564.563477 336.151703,555.696045 
	C333.840332,549.957520 332.669220,543.763672 330.916290,537.794739 
	C329.881897,534.272400 328.555939,530.829956 327.645844,527.278625 
	C326.881256,524.295044 326.386047,521.222717 326.022980,518.159912 
	C325.234070,511.504150 324.605682,504.829376 324.364258,497.500244 
	C324.959930,489.107178 325.132629,481.376434 325.192047,473.644867 
	C325.197021,472.996582 324.439850,472.342468 324.036774,471.691040 
	C324.725433,464.966400 325.008820,458.168671 326.204895,451.535553 
	C327.711487,443.180420 328.862122,434.483154 332.183441,426.806152 
	C336.018799,417.940918 337.810059,408.274597 343.563293,400.063629 
	C348.747162,392.665192 352.027344,383.951324 357.031708,376.404144 
	C364.020355,365.864410 372.131317,356.140503 381.825653,347.857971 
	C383.512817,346.416504 384.729706,344.422760 386.423248,342.990997 
	C390.931702,339.179474 395.361053,335.211029 400.226837,331.900146 
	C407.649261,326.849701 415.283813,322.074921 423.078674,317.621307 
	C427.816925,314.914124 432.984406,312.931976 438.036224,310.807648 
	C442.523438,308.920654 446.999573,306.824036 451.687195,305.633331 
	C462.879272,302.790405 474.141113,300.156128 485.478302,297.975800 
	C491.900757,296.740631 498.527618,296.568237 505.949280,296.014343 
	C510.919952,296.055389 515.003723,295.999329 519.087524,295.943237 
	C521.512329,296.276550 523.929749,296.681793 526.363220,296.930511 
	C536.435364,297.960266 546.859741,297.656494 556.501404,300.261200 
	C569.158569,303.680542 581.567810,308.137939 593.570801,314.021759 
	C604.509155,319.383698 614.498108,325.804047 624.152222,332.943420 
	C630.232117,337.439636 637.009094,341.623657 641.543335,347.449829 
	C651.335510,360.032013 662.465271,371.926147 668.924194,386.703430 
	C673.791809,397.840149 677.078247,409.667969 680.924805,421.920898 
	C681.709412,431.114319 682.611511,439.578125 683.612122,448.030212 
	C683.699158,448.765747 684.434509,449.424530 684.864746,450.579987 
	C684.903259,457.738556 684.945679,464.436127 684.988159,471.133667 
	C684.072205,480.581970 684.061401,490.142639 681.087158,499.322571 
	C678.950623,505.917175 677.947998,513.051270 674.826477,519.114197 
	C670.177734,528.143616 664.938171,537.140625 658.431763,544.874023 
	C650.058655,554.826233 640.674866,564.091431 630.769714,572.529419 
	C624.962952,577.476135 617.496033,580.685547 610.411560,583.864563 
	C602.519287,587.406128 594.307678,590.327759 586.044861,592.910645 
	C582.360657,594.062195 578.206177,593.677124 574.274841,594.083191 
	C572.178040,594.299866 570.101868,594.716003 567.132568,594.923767 
	C558.428833,594.856445 550.608887,594.907471 542.788940,594.958496 
	C536.287964,594.334412 529.363770,594.926941 523.370972,592.842163 
	C509.319580,587.953857 494.708588,583.834839 482.788910,574.316467 
	C476.041443,568.928406 469.924469,562.758179 463.384094,557.101318 
	C456.587769,551.223083 451.866333,544.080017 448.591949,535.713074 
	C446.733368,530.963745 443.610596,526.724609 441.405090,522.090149 
	C439.974854,519.084717 439.172455,515.780396 438.225220,512.110718 
	C437.522552,506.078949 436.683411,500.546539 435.844269,495.014130 
	C435.641327,492.951996 435.438416,490.889832 435.177429,488.000946 
	C435.385071,482.769318 435.650757,478.364471 435.916443,473.959595 
	C435.657928,469.537262 434.775909,465.034393 435.333252,460.717407 
	C435.800446,457.098816 437.630951,453.525513 439.414612,450.233856 
	C443.613434,442.484955 450.400787,437.373779 458.075104,433.451721 
	C459.535095,432.705597 461.597015,433.137238 464.150879,433.292969 
	C475.873047,432.218140 485.726013,435.364410 494.987305,440.925934 
	C501.129852,446.114868 504.661682,452.681610 505.014465,460.742157 
	C505.224060,465.530548 505.021210,470.337006 504.564758,475.700714 
	C503.402588,477.800110 502.177185,479.290375 502.039062,480.875397 
	C501.234039,490.114166 503.923157,498.523743 508.830200,506.252563 
	C509.554382,507.393158 510.987335,508.083710 512.092346,508.982513 
	C512.092346,508.982513 512.021057,508.983551 512.050537,509.299622 
	C513.420349,510.736877 514.760742,511.858032 516.101135,512.979187 
	C516.101135,512.979187 516.024170,512.986267 516.044922,513.211365 
	C516.705566,513.670166 517.345520,513.903870 517.985413,514.137573 
	C526.403625,518.707214 534.491882,524.079407 545.040894,525.180908 
	C546.043823,525.475769 546.151855,525.713379 545.996643,526.071289 
	C545.996643,526.071289 545.915100,525.963806 546.140747,526.263611 
	C552.599609,528.360229 558.808228,529.070435 564.934082,526.141296 
	C572.080078,523.463684 579.778259,521.724792 586.257385,517.913513 
	C599.817444,509.936890 610.845398,499.489441 612.961243,482.548126 
	C613.254761,480.197906 614.323914,477.944489 615.133545,475.206329 
	C615.233032,474.766388 615.115051,474.642151 615.115051,474.642151 
	C615.250244,474.433044 615.385498,474.223938 616.104370,473.625305 
	C616.954285,472.827393 617.447327,472.422333 617.453369,472.010132 
	C617.576477,463.636658 617.737305,455.260956 617.611328,446.889923 
	C617.594482,445.768890 616.072388,444.670563 615.247375,443.561707 
	C612.872009,432.221741 609.398499,421.236389 602.786499,411.630859 
	C598.195618,404.961456 593.552307,398.044525 587.647888,392.642059 
	C581.642334,387.147156 573.848389,383.662781 567.225525,378.772583 
	C558.643494,372.435730 548.201660,371.512451 538.609192,368.151245 
	C535.279724,366.984558 531.633118,366.722992 527.565430,365.667114 
	C525.171570,364.652557 523.366028,363.547272 521.512329,363.459717 
	C506.326447,362.742340 491.322571,364.079041 476.650146,368.215179 
	C475.404877,368.566223 474.434326,369.891693 473.336121,370.764404 
	C468.033875,373.166962 462.738983,375.585907 457.427856,377.968750 
	C445.846100,383.164795 436.446259,391.267365 427.183899,399.769897 
	C419.061981,407.225616 413.630402,416.393463 407.674988,426.084229 
	C404.821899,432.007355 402.455597,437.504883 400.089294,443.002411 
	C398.882202,448.449554 397.698181,453.901978 396.457886,459.341522 
	C395.887573,461.842682 395.206940,464.318634 394.324524,467.372894 
	C393.586884,469.627106 392.733063,471.303467 392.682281,473.003815 
	C392.509308,478.792938 392.477386,484.595306 392.669891,490.383331 
	C392.805756,494.467407 393.392700,498.536407 393.778259,502.612152 
	C395.452332,508.530121 397.008514,514.484741 398.833130,520.355957 
	C400.717682,526.419922 402.685944,532.470276 404.945526,538.401733 
	C407.110443,544.084473 409.696350,549.606750 412.194000,555.896851 
	C413.213440,557.683594 414.136139,558.773010 415.058807,559.862427 
	C415.058807,559.862427 415.088501,559.889404 415.136108,560.262512 
	C416.820801,562.757385 418.457916,564.879089 420.095062,567.000854 
	C420.095062,567.000854 420.003723,567.002991 420.039795,567.313599 
	C421.080688,568.751648 422.085510,569.879150 423.090332,571.006653 
	C423.090332,571.006653 422.994995,571.004089 423.056580,571.308716 
	C424.775146,573.404602 426.432129,575.195923 428.089081,576.987183 
	C428.089081,576.987183 428.020782,576.984924 427.955109,577.310425 
	C432.202515,582.374023 436.319672,587.314331 440.911804,591.764526 
	C443.187317,593.969727 446.336670,595.273193 449.090698,596.984619 
	C449.090698,596.984619 449.023438,596.982361 448.935669,597.303894 
	C450.928802,599.079590 453.009735,600.533813 455.090637,601.987976 
	C455.090637,601.987976 455.000732,602.007874 455.117859,602.279236 
	C457.521423,604.023804 459.807831,605.497009 462.094238,606.970276 
	C462.094238,606.970276 462.013855,606.980286 462.160339,607.247131 
	C463.899353,608.343567 465.491852,609.173157 467.084351,610.002747 
	C467.084351,610.002747 466.985657,610.027893 467.153198,610.211670 
	C467.652985,610.608948 467.985229,610.822327 468.317474,611.035706 
	C468.317474,611.035706 468.589661,610.960266 468.817688,611.334473 
	C470.696228,612.436340 472.346741,613.164001 473.997253,613.891724 
	C476.508881,614.926880 479.020477,615.962097 482.009613,617.415894 
	C488.175293,620.289124 493.863464,622.743713 499.551605,625.198364 
	C504.589539,626.203430 509.849945,626.602417 514.614807,628.351501 
	C522.326233,631.182068 530.122070,632.886353 538.812622,633.080933 
	C539.327393,633.137268 539.580505,633.098877 539.580505,633.098877 
	C539.742188,633.259033 539.903931,633.419250 540.445312,634.118896 
	C542.067566,635.036011 543.308105,635.733215 544.553162,635.741577 
	C555.709595,635.816467 566.867493,635.830078 578.022888,635.690125 
	C579.560181,635.670776 581.085693,634.713501 582.616699,634.190491 
	C582.616699,634.190491 582.849426,633.754517 583.028503,633.469788 
	C583.207581,633.185059 583.546814,633.082825 583.546814,633.082825 
	C583.546814,633.082825 583.802673,633.330627 583.802673,633.330627 
	C603.931824,631.684998 622.699158,624.988098 641.033142,617.170105 
	C647.711121,614.322449 653.562378,609.533020 659.783081,605.617371 
	C663.135620,603.507263 666.471924,601.371582 670.224609,598.633667 
	C679.050171,595.237488 684.129211,588.472107 689.576721,582.146484 
	C689.576721,582.146484 689.752380,581.761169 690.202026,581.635498 
	C692.370422,579.707031 694.089172,577.904358 695.807861,576.101685 
	C697.595215,573.413940 699.198914,570.580139 701.201660,568.063965 
	C709.701538,557.384949 717.120789,546.067261 722.891479,533.651550 
	C727.872070,522.935608 732.500366,512.184692 734.146851,500.318787 
	C735.017029,494.047424 736.687195,487.887054 738.389526,481.093567 
	C739.084961,476.339050 739.387024,472.167511 739.864746,467.557220 
	C740.044128,458.080231 740.047913,449.041992 740.213135,439.649536 
	C739.867493,433.398895 739.486267,427.486633 738.748108,421.619263 
	C738.598328,420.428284 737.102295,419.406616 736.226807,418.306915 
	C732.909851,407.169952 730.310242,395.751923 726.086243,384.970337 
	C721.291931,372.733185 715.585693,360.767029 709.241699,349.252869 
	C704.838806,341.261749 698.693420,334.229767 693.315979,326.776917 
	C691.591614,324.386993 689.833130,322.021729 687.854309,319.012390 
	C685.680603,316.251007 683.742798,314.122467 681.804993,311.993927 
	C681.804993,311.993927 682.005981,311.990631 681.877686,311.772583 
	C675.189453,305.753357 668.629578,299.952209 662.069641,294.151062 
	C662.069641,294.151062 661.764954,294.156738 661.627930,294.000671 
	C661.382263,293.565887 661.245850,293.316406 661.081665,293.096191 
	C658.373901,291.293915 655.616638,289.560974 652.970215,287.672668 
	C649.181946,284.969666 645.474792,282.153137 641.174927,279.012817 
	C635.822021,275.878937 631.027161,273.117218 626.232300,270.355530 
	C626.232300,270.355530 625.885681,270.186676 625.661011,270.114258 
	C625.352478,269.962341 625.198242,269.882202 625.198975,269.803619 
	C625.200806,269.615997 625.275818,269.429047 625.321289,269.241821 
	C622.573181,268.377228 619.825073,267.512634 616.729736,266.060913 
	C609.361938,262.246368 602.341492,259.018921 595.321045,255.791504 
	C594.160583,256.042480 592.681641,256.883209 591.888000,256.454773 
	C581.995605,251.114197 571.225037,248.792038 560.284058,247.164749 
	C552.015503,245.934967 543.677795,245.176178 535.385742,244.094437 
	C531.227966,243.552048 527.103088,242.756790 522.129272,241.864227 
	C516.222107,241.381348 511.148346,240.896484 506.076263,240.913986 
	C502.693176,240.925659 499.312500,241.653076 495.930756,242.060165 
	C486.221313,243.073761 476.348328,243.307327 466.844208,245.300171 
	C455.204926,247.740723 443.858521,251.599884 432.416626,254.951935 
	C425.785187,256.894745 419.214935,259.046417 412.009430,261.320679 
	C408.609131,262.712280 405.816528,263.887268 402.707001,265.055511 
	C401.553406,265.681641 400.716705,266.314545 399.557739,266.988220 
	C398.150269,267.665009 397.065033,268.300995 395.634857,269.061707 
	C387.905029,273.597321 380.475281,277.936005 373.167755,282.471558 
	C371.411560,283.561554 370.061096,285.305176 368.524048,286.748199 
	C365.925140,288.527466 363.326202,290.306763 360.100403,292.230957 
	C358.978760,292.943665 358.484009,293.511444 357.989258,294.079224 
	C357.989258,294.079224 358.003876,294.015900 357.744507,294.136597 
	C356.982727,294.865509 356.480286,295.473724 355.977844,296.081940 
	C355.977844,296.081940 355.951843,295.974152 355.827454,296.153137 
	C355.451843,296.575470 355.200653,296.818848 354.949463,297.062225 
	C354.949463,297.062225 354.989105,296.970184 354.673157,296.966614 
	C350.914703,300.335754 347.472168,303.708466 344.029602,307.081177 
	C344.029633,307.081207 344.018433,307.008118 343.709290,307.059570 
	C341.310974,309.045105 339.221832,310.979156 337.132660,312.913208 
	C336.926880,313.252747 336.721069,313.592285 336.197449,314.147705 
	C335.537628,314.434753 335.288574,314.612488 335.132446,314.896759 
	C330.792633,320.115753 326.090302,325.079712 322.197876,330.613403 
	C316.348694,338.928772 310.828674,347.500763 305.610901,356.228027 
	C300.399292,364.945007 295.084808,373.702545 291.007782,382.967010 
	C286.941925,392.205963 284.370087,402.100952 281.113739,411.698303 
	C279.777649,415.636078 278.364258,419.547638 276.685669,424.115082 
	C275.171265,429.805695 273.957245,434.852386 272.429626,440.103638 
	C271.791077,440.874023 271.262238,441.408875 271.170929,442.010162 
	C268.519653,459.466339 267.190521,477.007416 268.147125,494.665375 
	C268.228302,496.163849 269.215149,497.613251 269.822083,499.492188 
	C269.962463,501.255127 270.062012,502.611298 269.915466,504.284546 
	C270.429565,511.984100 271.141510,519.372375 272.021271,526.740662 
	C272.113800,527.515747 273.194977,528.172913 273.817444,528.884766 
	C275.261414,534.701416 276.418365,540.608093 278.208191,546.316284 
	C282.126801,558.813660 285.558960,571.553650 290.666138,583.566895 
	C298.144348,601.157471 306.999512,618.144104 318.346619,633.687195 
	C322.840118,639.842285 327.040680,646.210632 331.490936,652.398254 
	C332.317749,653.547791 333.700134,654.297729 334.932404,655.846313 
	C335.339233,657.363525 335.388550,658.502319 335.979828,659.132385 
	C340.950104,664.428833 345.982269,669.669189 351.104004,674.818787 
	C351.787964,675.506470 353.077026,675.592346 354.085876,675.956909 
	C354.085876,675.956909 354.022522,675.975708 353.959534,676.298096 
	C357.325012,679.411316 360.753479,682.202087 364.181946,684.992798 
	C377.059357,694.080566 389.668060,703.584290 402.897064,712.127625 
	C413.936279,719.256592 425.578827,725.493042 437.202606,731.656128 
	C442.403198,734.413513 448.620331,735.347473 453.618225,738.364441 
	C457.780670,740.877014 462.303314,744.615295 464.074310,748.885681 
	C467.698334,757.624268 472.872162,766.019714 468.656525,776.945679 
	C465.743652,784.495056 461.714417,791.049561 456.182220,795.877686 
	C451.632477,799.848389 444.640717,801.810974 438.425018,802.875549 
	C431.240417,804.106079 423.583282,804.087952 416.579651,798.753296 
	C410.990753,796.024414 406.031921,793.570129 401.073059,791.115906 
	C393.611877,787.528137 386.033691,784.160583 378.728210,780.279785 
	C373.319092,777.406372 368.264648,773.865234 362.633667,770.187988 
	C354.542572,764.261780 346.869995,758.769165 339.197449,753.276489 
	C339.197449,753.276489 338.872223,753.201782 338.736328,753.077515 
	C338.439453,752.677185 338.278473,752.401001 338.117493,752.124878 
	C336.492645,751.407776 334.526703,751.058960 333.294678,749.917725 
	C317.480072,735.269653 301.403931,720.873901 286.188782,705.621460 
	C278.601715,698.015747 272.321014,689.017395 266.031616,680.232117 
	C259.861023,671.612915 254.226181,662.587830 248.728210,653.515442 
	C242.987717,644.042786 237.282516,634.506409 232.316299,624.618958 
	C227.449158,614.928772 222.979889,604.958008 219.346817,594.750610 
	C215.425964,583.734558 212.126709,572.424255 209.581192,561.013611 
	C207.313141,550.846741 206.444702,540.367676 205.234314,529.296387 
	C204.929443,522.494690 203.919327,516.427856 203.848679,510.350098 
	C203.636536,492.100250 203.678970,473.845062 203.864548,455.594391 
	C203.927505,449.403961 204.713013,443.220917 205.168335,437.034485 
	C204.626297,427.960480 206.441360,419.279205 209.359863,410.742401 
	C210.143250,408.450989 210.405945,405.974213 210.831650,403.569092 
	C213.029099,391.154053 217.400146,379.511597 222.729080,368.113647 
	C226.084122,360.937653 228.005096,353.076324 231.516983,345.992218 
	C236.171173,336.603851 241.750656,327.674164 247.378174,318.178284 
	C251.189331,312.891205 254.554840,307.973236 257.920349,303.055267 
	C258.103790,302.730011 258.287201,302.404755 258.640747,301.701294 
	C259.186890,301.247833 259.562866,301.172546 259.938843,301.097260 
	C259.964050,300.839600 259.989227,300.581970 260.383392,299.812561 
	C261.506378,298.472900 262.260376,297.644989 263.014374,296.817108 
	C263.014374,296.817108 263.043854,297.013947 263.204041,296.815002 
	C264.502655,294.779572 265.641052,292.943085 266.779449,291.106567 
	C266.779449,291.106567 266.836456,290.820953 267.137451,290.572815 
	C267.966034,289.520691 268.493652,288.716705 269.021301,287.912689 
	C269.021301,287.912689 269.024353,288.022736 269.296112,287.899994 
	C270.381897,286.455902 271.195923,285.134552 272.010010,283.813202 
	C272.460205,283.243805 272.910431,282.674408 273.950989,281.930786 
	C278.360474,277.470673 282.179657,273.184753 285.998840,268.898834 
	C285.998840,268.898834 286.022034,269.005402 286.261871,268.853882 
	C287.993683,267.106659 289.485657,265.510925 290.977661,263.915161 
	C290.977631,263.915161 291.005798,264.005676 291.222992,263.829285 
	C292.282043,262.743500 293.123932,261.834076 293.965790,260.924652 
	C293.965790,260.924652 293.987732,261.001007 294.242798,260.832794 
	C299.680145,255.666199 304.862488,250.667816 310.044800,245.669434 
	C317.846283,239.474823 325.548706,233.149368 333.487610,227.136169 
	C338.026154,223.698502 342.747375,220.395660 347.742432,217.689270 
	C357.883667,212.194641 368.079895,206.728928 378.598206,202.021667 
	C391.191742,196.385727 403.935303,190.922684 417.009674,186.574921 
	C427.475555,183.094559 438.532990,181.393051 449.961914,178.709137 
	C456.432190,177.673965 462.268433,176.831696 468.104645,175.989441 
	C469.113495,175.985138 470.122375,175.980835 471.936462,175.980194 
	C479.254120,175.143875 485.749603,173.794647 492.282776,173.577057 
	C503.558197,173.201569 514.867493,173.242828 526.142517,173.656784 
	C534.488892,173.963226 542.803284,175.138596 551.131958,175.926865 
	C559.670776,176.949829 568.209595,177.972794 577.391418,179.359055 
	C578.767273,180.331345 579.411621,181.270523 580.247620,181.494629 
	C584.962341,182.758560 589.706665,183.925156 594.473022,184.979660 
	C598.876343,185.953812 603.320190,186.745056 607.746155,187.616852 
	C607.746155,187.616852 608.186462,187.788284 608.433228,188.018463 
	C609.057922,188.408035 609.435974,188.567413 609.813965,188.726791 
	C617.029846,191.490250 624.245789,194.253693 631.839111,197.143311 
	C632.216492,197.269470 632.343994,197.142654 632.343994,197.142654 
	C632.542419,197.261398 632.740784,197.380142 633.260254,198.057022 
	C638.770508,200.735275 643.959717,202.855377 649.148987,204.975479 
	C655.834045,208.467209 662.771301,211.556091 669.144958,215.545303 
	C678.645569,221.491623 687.790161,228.013077 697.003723,234.408691 
	C701.904236,237.810455 706.640991,241.449158 711.424500,245.017258 
	C712.062256,245.492935 712.495422,246.233780 713.099426,246.765381 
	C716.361694,249.636612 719.701477,252.422150 722.909241,255.352417 
	C725.486572,257.706757 728.091797,260.071075 730.372498,262.701569 
	C735.695679,268.841034 740.883728,275.100342 746.024780,281.394196 
	C749.755371,285.961334 753.585388,290.482330 756.905701,295.341919 
	C762.794556,303.960907 768.611694,312.655121 773.914185,321.639313 
	C777.466370,327.657898 780.309570,334.133026 783.053650,340.581024 
	C786.723816,349.205200 790.192322,357.928223 793.372314,366.744141 
	C796.328979,374.941101 799.228271,383.206665 801.343323,391.644897 
	C803.172241,398.941803 803.953857,406.510742 805.029846,413.983704 
	C805.843262,419.633148 806.390869,425.320892 806.951782,431.880585 
	C807.149170,437.840973 807.622986,442.909119 807.717529,447.984375 
	C807.899353,457.742493 807.866333,467.504578 807.922363,477.265015 
	C807.637695,479.667328 807.414368,482.078888 807.054199,484.469849 
	C806.479553,488.285858 805.721069,492.075836 805.213562,495.899841 
	C804.741150,499.458893 804.802368,503.110901 804.085693,506.610809 
	C802.579468,513.966064 800.717224,521.248474 798.620667,529.157532 
	C796.182251,535.147644 794.124268,540.541016 792.066284,545.934387 
	C790.760437,550.083801 789.909546,554.450500 788.052673,558.336670 
	C784.352722,566.080322 780.100098,573.559875 775.654785,581.621033 
	C772.558350,586.317871 769.882874,590.542236 767.207336,594.766541 
	C767.207336,594.766541 767.117981,595.223633 766.844604,595.577515 
	C766.011414,596.307434 765.451477,596.683533 764.891602,597.059631 
	C764.891602,597.059631 764.857361,596.926636 764.985718,597.267212 
	C764.130920,599.000854 763.147644,600.393921 762.164368,601.786987 
	C760.547607,604.389221 759.171875,607.183655 757.274536,609.562134 
	C745.846863,623.888123 733.794067,637.623047 718.963318,648.616699 
	C718.589905,648.893555 718.044067,648.937683 717.130859,649.362305 
	C716.198181,650.027466 715.713196,650.420654 715.228271,650.813904 
	C715.228271,650.813904 715.163452,651.150146 714.924194,651.454041 
	C713.846802,652.094727 713.008667,652.431458 712.170471,652.768250 
	C712.170471,652.768250 712.186340,653.104614 711.770264,653.354126 
	C710.316956,654.304565 709.265198,654.984924 708.245178,655.709900 
	C702.550354,659.757812 696.863281,663.816467 691.173584,667.871460 
	C691.052063,668.184814 690.930481,668.498230 690.163391,668.771118 
	C684.544861,671.727051 679.571838,674.723572 674.598816,677.720032 
z"/>
<path fill="#A293C6" opacity="1.000000" stroke="none" 
	d="
M204.963776,437.389038 
	C204.713013,443.220917 203.927505,449.403961 203.864548,455.594391 
	C203.678970,473.845062 203.636536,492.100250 203.848679,510.350098 
	C203.919327,516.427856 204.929443,522.494690 205.245758,528.850586 
	C203.968765,525.318726 202.240601,521.534241 202.070709,517.681030 
	C201.429764,503.143738 201.117477,488.585114 201.038147,474.032501 
	C200.990555,465.297699 201.376495,456.542297 202.031296,447.830994 
	C202.287720,444.419464 203.812225,441.103210 204.963776,437.389038 
z"/>
<path fill="#D4D2E0" opacity="1.000000" stroke="none" 
	d="
M551.106201,175.480927 
	C542.803284,175.138596 534.488892,173.963226 526.142517,173.656784 
	C514.867493,173.242828 503.558197,173.201569 492.282776,173.577057 
	C485.749603,173.794647 479.254120,175.143875 472.314636,175.970490 
	C471.591553,173.682709 472.379333,172.903229 474.860016,172.875305 
	C492.818848,172.673248 510.774567,172.162201 528.733459,172.015030 
	C535.555420,171.959137 542.386963,172.547729 549.202148,173.016510 
	C549.871338,173.062561 550.456299,174.332932 551.106201,175.480927 
z"/>
<path fill="#A293C6" opacity="1.000000" stroke="none" 
	d="
M473.714294,370.768860 
	C474.434326,369.891693 475.404877,368.566223 476.650146,368.215179 
	C491.322571,364.079041 506.326447,362.742340 521.512329,363.459717 
	C523.366028,363.547272 525.171570,364.652557 527.144775,365.630585 
	C520.716492,365.993561 514.132629,365.788605 507.572021,366.089722 
	C500.079407,366.433655 492.580811,367.010010 485.137695,367.918457 
	C481.395508,368.375153 477.770447,369.791077 473.714294,370.768860 
z"/>
<path fill="#7B68AC" opacity="1.000000" stroke="none" 
	d="
M269.781250,499.085449 
	C269.215149,497.613251 268.228302,496.163849 268.147125,494.665375 
	C267.190521,477.007416 268.519653,459.466339 271.170929,442.010162 
	C271.262238,441.408875 271.791077,440.874023 272.575714,440.381531 
	C273.360992,440.703583 273.686554,440.952362 274.012085,441.201172 
	C272.988342,448.593445 271.629059,455.958588 271.029236,463.385101 
	C270.341034,471.906036 270.326111,480.481354 270.000427,489.951721 
	C269.915161,493.608734 269.848206,496.347076 269.781250,499.085449 
z"/>
<path fill="#D4D2E0" opacity="1.000000" stroke="none" 
	d="
M607.536621,187.364243 
	C603.320190,186.745056 598.876343,185.953812 594.473022,184.979660 
	C589.706665,183.925156 584.962341,182.758560 580.247620,181.494629 
	C579.411621,181.270523 578.767273,180.331345 577.848694,179.494720 
	C581.124329,179.861145 584.593689,180.977509 588.045166,180.924606 
	C592.998840,180.848694 597.447632,181.465698 601.503052,184.601639 
	C603.122803,185.854156 605.367065,186.299088 607.536621,187.364243 
z"/>
<path fill="#B9B3D4" opacity="1.000000" stroke="none" 
	d="
M582.187622,634.197266 
	C581.085693,634.713501 579.560181,635.670776 578.022888,635.690125 
	C566.867493,635.830078 555.709595,635.816467 544.553162,635.741577 
	C543.308105,635.733215 542.067566,635.036011 540.608032,634.419128 
	C554.180298,634.187988 567.969421,634.195984 582.187622,634.197266 
z"/>
<path fill="#C2BAD3" opacity="1.000000" stroke="none" 
	d="
M368.845764,286.748535 
	C370.061096,285.305176 371.411560,283.561554 373.167755,282.471558 
	C380.475281,277.936005 387.905029,273.597321 395.657898,269.299011 
	C396.025848,269.411591 396.011353,269.887939 396.011353,269.887939 
	C393.700531,271.606873 391.418945,273.366913 389.071869,275.034882 
	C385.731079,277.409058 382.456238,279.907990 378.939575,281.993347 
	C375.834198,283.834839 372.436249,285.182922 368.845764,286.748535 
z"/>
<path fill="#7B68AC" opacity="1.000000" stroke="none" 
	d="
M512.089233,508.598602 
	C510.987335,508.083710 509.554382,507.393158 508.830200,506.252563 
	C503.923157,498.523743 501.234039,490.114166 502.039062,480.875397 
	C502.177185,479.290375 503.402588,477.800110 504.482605,476.167084 
	C503.515106,483.756165 503.878876,491.311401 507.048798,498.521820 
	C508.511139,501.848053 510.393951,504.989471 512.089233,508.598602 
z"/>
<path fill="#C2BAD3" opacity="1.000000" stroke="none" 
	d="
M515.184937,699.405640 
	C517.817993,699.321533 520.671082,699.501953 523.508728,699.819519 
	C531.500671,700.713867 539.486206,701.664612 547.437622,702.838196 
	C546.632629,703.083191 545.864258,703.083069 545.095947,703.082947 
	C541.454041,703.069336 537.764648,703.423401 534.180725,702.960815 
	C527.885742,702.148315 521.655396,700.835938 515.184937,699.405640 
z"/>
<path fill="#E0DFE7" opacity="1.000000" stroke="none" 
	d="
M689.269653,582.202881 
	C684.129211,588.472107 679.050171,595.237488 670.445801,598.339111 
	C672.244629,596.197327 674.231079,593.736267 676.217529,591.275146 
	C675.989685,591.155640 675.761841,591.036072 675.533997,590.916565 
	C680.010193,588.030823 684.486389,585.145020 689.269653,582.202881 
z"/>
<path fill="#EDEFF0" opacity="1.000000" stroke="none" 
	d="
M545.047913,703.515991 
	C545.864258,703.083069 546.632629,703.083191 547.773071,702.985718 
	C557.407593,702.868652 566.669983,702.849060 576.772461,702.921814 
	C578.398560,703.035645 579.184448,703.057129 579.970398,703.078552 
	C579.495056,703.725586 579.023926,704.933716 578.543701,704.937256 
	C567.646545,705.019043 556.748291,704.976379 545.850708,704.901917 
	C545.564941,704.900024 545.283386,704.280579 545.047913,703.515991 
z"/>
<path fill="#B9B3D4" opacity="1.000000" stroke="none" 
	d="
M494.807678,440.636139 
	C485.726013,435.364410 475.873047,432.218140 464.584961,433.362976 
	C469.273010,432.805908 474.297241,432.150574 479.320068,432.160858 
	C485.736877,432.173981 490.485504,435.813812 494.807678,440.636139 
z"/>
<path fill="#CEC7DC" opacity="1.000000" stroke="none" 
	d="
M393.784729,502.174011 
	C393.392700,498.536407 392.805756,494.467407 392.669891,490.383331 
	C392.477386,484.595306 392.509308,478.792938 392.682281,473.003815 
	C392.733063,471.303467 393.586884,469.627106 393.952942,467.561768 
	C393.819244,478.701172 393.805206,490.218506 393.784729,502.174011 
z"/>
<path fill="#CEC7DC" opacity="1.000000" stroke="none" 
	d="
M339.214447,753.621765 
	C346.869995,758.769165 354.542572,764.261780 362.558624,769.824951 
	C356.130432,765.959717 349.302917,762.114807 342.631714,758.015564 
	C341.207001,757.140137 340.350006,755.340698 339.214447,753.621765 
z"/>
<path fill="#B9B3D4" opacity="1.000000" stroke="none" 
	d="
M662.124023,294.499969 
	C668.629578,299.952209 675.189453,305.753357 681.879517,311.873047 
	C677.588501,308.613892 673.094604,305.121216 668.775269,301.424500 
	C666.423218,299.411438 664.367615,297.052063 662.124023,294.499969 
z"/>
<path fill="#968BC0" opacity="1.000000" stroke="none" 
	d="
M448.922791,596.685303 
	C446.336670,595.273193 443.187317,593.969727 440.911804,591.764526 
	C436.319672,587.314331 432.202515,582.374023 427.960114,577.276611 
	C433.001556,581.486450 437.991974,586.034363 442.933441,590.634888 
	C444.928986,592.492737 446.817596,594.465515 448.922791,596.685303 
z"/>
<path fill="#C2BAD3" opacity="1.000000" stroke="none" 
	d="
M691.519409,667.828308 
	C696.863281,663.816467 702.550354,659.757812 708.245178,655.709900 
	C709.265198,654.984924 710.316956,654.304565 711.607666,653.397888 
	C710.607666,655.069824 709.354126,656.947510 707.413391,659.854675 
	C703.163391,662.022461 697.514282,664.903809 691.519409,667.828308 
z"/>
<path fill="#B9B3D4" opacity="1.000000" stroke="none" 
	d="
M615.269104,443.936340 
	C616.072388,444.670563 617.594482,445.768890 617.611328,446.889923 
	C617.737305,455.260956 617.576477,463.636658 617.453369,472.010132 
	C617.447327,472.422333 616.954285,472.827393 616.418823,473.423767 
	C616.096191,465.414337 616.077332,457.216431 615.959229,449.019928 
	C615.936584,447.447418 615.523682,445.880493 615.269104,443.936340 
z"/>
<path fill="#968BC0" opacity="1.000000" stroke="none" 
	d="
M354.057739,675.590820 
	C353.077026,675.592346 351.787964,675.506470 351.104004,674.818787 
	C345.982269,669.669189 340.950104,664.428833 335.979828,659.132385 
	C335.388550,658.502319 335.339233,657.363525 335.039001,656.177979 
	C340.359253,661.187073 345.691315,666.466797 350.989288,671.780518 
	C352.068512,672.862976 353.019501,674.073364 354.057739,675.590820 
z"/>
<path fill="#AAA0C9" opacity="1.000000" stroke="none" 
	d="
M684.868713,450.118958 
	C684.434509,449.424530 683.699158,448.765747 683.612122,448.030212 
	C682.611511,439.578125 681.709412,431.114319 680.931763,422.311707 
	C684.430603,428.990936 685.596802,436.394226 685.032410,444.999939 
	C685.025696,447.297455 684.947205,448.708191 684.868713,450.118958 
z"/>
<path fill="#CEC7DC" opacity="1.000000" stroke="none" 
	d="
M595.640076,256.020477 
	C602.341492,259.018921 609.361938,262.246368 616.626221,265.676758 
	C610.462585,263.590027 604.029541,261.366913 597.679871,258.926697 
	C596.881226,258.619781 596.521973,257.169800 595.640076,256.020477 
z"/>
<path fill="#F8F8FC" opacity="1.000000" stroke="none" 
	d="
M740.051636,440.003723 
	C740.047913,449.041992 740.044128,458.080231 739.638306,467.590027 
	C738.952393,468.253693 738.831543,468.519806 738.873596,468.859924 
	C738.578735,464.702179 738.135681,460.548340 738.026672,456.385742 
	C737.891907,451.238861 738.034424,446.084686 738.416321,440.419983 
	C739.200867,439.938782 739.626282,439.971252 740.051636,440.003723 
z"/>
<path fill="#7B68AC" opacity="1.000000" stroke="none" 
	d="
M273.848877,528.464966 
	C273.194977,528.172913 272.113800,527.515747 272.021271,526.740662 
	C271.141510,519.372375 270.429565,511.984100 270.152283,504.241272 
	C270.635193,503.880981 271.085602,504.050873 271.085602,504.050873 
	C272.017181,512.048950 272.948761,520.047058 273.848877,528.464966 
z"/>
<path fill="#A293C6" opacity="1.000000" stroke="none" 
	d="
M580.436035,703.007812 
	C579.184448,703.057129 578.398560,703.035645 577.231812,702.916382 
	C577.837158,702.309570 578.789551,701.447144 579.815125,701.348816 
	C586.662659,700.692566 593.525757,700.199280 600.703491,700.126343 
	C601.029663,701.009399 601.036194,701.419250 601.042725,701.829163 
	C594.329041,702.198486 587.615417,702.567810 580.436035,703.007812 
z"/>
<path fill="#AAA0C9" opacity="1.000000" stroke="none" 
	d="
M740.213135,439.649536 
	C739.626282,439.971252 739.200867,439.938782 738.458130,439.952942 
	C737.514160,433.029510 736.887573,426.059509 736.243896,418.698181 
	C737.102295,419.406616 738.598328,420.428284 738.748108,421.619263 
	C739.486267,427.486633 739.867493,433.398895 740.213135,439.649536 
z"/>
<path fill="#F8F8FC" opacity="1.000000" stroke="none" 
	d="
M684.864746,450.579987 
	C684.947205,448.708191 685.025696,447.297455 685.089600,445.461365 
	C685.716614,445.515656 686.912048,445.989410 686.917236,446.475800 
	C687.001404,454.384399 686.944946,462.294708 686.858765,470.203918 
	C686.855835,470.473694 686.212280,470.736450 685.427734,471.068054 
	C684.945679,464.436127 684.903259,457.738556 684.864746,450.579987 
z"/>
<path fill="#968BC0" opacity="1.000000" stroke="none" 
	d="
M309.667786,245.808044 
	C304.862488,250.667816 299.680145,255.666199 294.204590,260.843628 
	C297.479919,254.408127 302.793884,249.574051 309.667786,245.808044 
z"/>
<path fill="#CEC7DC" opacity="1.000000" stroke="none" 
	d="
M323.653870,471.944458 
	C324.439850,472.342468 325.197021,472.996582 325.192047,473.644867 
	C325.132629,481.376434 324.959930,489.107178 324.424988,497.073334 
	C323.686890,495.324524 323.060638,493.342529 323.046143,491.356079 
	C322.999512,484.970886 323.178802,478.584076 323.653870,471.944458 
z"/>
<path fill="#CEC7DC" opacity="1.000000" stroke="none" 
	d="
M792.390259,545.746094 
	C794.124268,540.541016 796.182251,535.147644 798.484863,529.554565 
	C797.491089,534.267029 796.319763,539.198425 794.934204,544.068848 
	C794.748169,544.722778 793.480896,545.069092 792.390259,545.746094 
z"/>
<path fill="#E0DFE7" opacity="1.000000" stroke="none" 
	d="
M674.936401,677.682129 
	C679.571838,674.723572 684.544861,671.727051 689.910278,668.832214 
	C690.140442,670.187866 689.978271,671.441895 689.836975,672.533813 
	C684.873108,674.275696 680.073547,675.959900 674.936401,677.682129 
z"/>
<path fill="#E0DFE7" opacity="1.000000" stroke="none" 
	d="
M496.157806,242.432831 
	C499.312500,241.653076 502.693176,240.925659 506.076263,240.913986 
	C511.148346,240.896484 516.222107,241.381348 521.681885,241.842865 
	C518.602661,242.359650 515.141357,242.886673 511.669891,242.965179 
	C506.578674,243.080307 501.480225,242.874542 496.157806,242.432831 
z"/>
<path fill="#E0DFE7" opacity="1.000000" stroke="none" 
	d="
M808.328979,477.050171 
	C807.866333,467.504578 807.899353,457.742493 807.717529,447.984375 
	C807.622986,442.909119 807.149170,437.840973 806.948120,432.340027 
	C807.717285,432.578583 808.966980,433.246368 808.967285,433.914734 
	C808.974365,448.221588 808.841370,462.528473 808.328979,477.050171 
z"/>
<path fill="#CEC7DC" opacity="1.000000" stroke="none" 
	d="
M400.387512,442.815399 
	C402.455597,437.504883 404.821899,432.007355 407.483856,426.405945 
	C406.843353,432.364807 404.290680,437.725189 400.387512,442.815399 
z"/>
<path fill="#F8F8FC" opacity="1.000000" stroke="none" 
	d="
M542.889526,595.395142 
	C550.608887,594.907471 558.428833,594.856445 566.724976,594.884949 
	C566.681152,595.641296 566.168762,596.900330 565.639954,596.907227 
	C558.351379,597.002869 551.060486,596.937317 543.770874,596.847351 
	C543.506470,596.844116 543.250122,596.185181 542.889526,595.395142 
z"/>
<path fill="#D4D2E0" opacity="1.000000" stroke="none" 
	d="
M657.873718,684.751709 
	C662.369507,682.627075 667.248901,680.510437 672.487549,678.320435 
	C672.689148,679.136597 672.737366,680.692200 672.342468,680.814270 
	C667.685852,682.253662 662.962891,683.478394 657.873718,684.751709 
z"/>
<path fill="#E0DFE7" opacity="1.000000" stroke="none" 
	d="
M401.070801,791.519226 
	C406.031921,793.570129 410.990753,796.024414 416.201538,798.603638 
	C411.867157,797.170349 407.258606,795.672180 402.717743,793.991150 
	C402.009766,793.729065 401.610535,792.633057 401.070801,791.519226 
z"/>
<path fill="#CEC7DC" opacity="1.000000" stroke="none" 
	d="
M626.220825,270.704529 
	C631.027161,273.117218 635.822021,275.878937 640.896667,278.833221 
	C640.122070,279.183685 638.733765,279.851654 638.068054,279.415802 
	C634.023682,276.768036 630.143982,273.868805 626.220825,270.704529 
z"/>
<path fill="#D4D2E0" opacity="1.000000" stroke="none" 
	d="
M274.390747,440.990967 
	C273.686554,440.952362 273.360992,440.703583 272.889343,440.176941 
	C273.957245,434.852386 275.171265,429.805695 276.588257,424.511536 
	C276.932465,428.095062 278.517700,431.981018 275.342834,435.585419 
	C274.400330,436.655396 274.919800,439.013123 274.390747,440.990967 
z"/>
<path fill="#E0DFE7" opacity="1.000000" stroke="none" 
	d="
M440.177856,673.773438 
	C444.838013,675.680725 449.395111,677.946472 454.048096,680.534119 
	C448.192017,681.255615 444.369904,677.198853 440.177856,673.773438 
z"/>
<path fill="#B9B3D4" opacity="1.000000" stroke="none" 
	d="
M648.953857,204.642426 
	C643.959717,202.855377 638.770508,200.735275 633.428284,198.360413 
	C637.928650,199.404419 642.604126,200.632431 647.210999,202.079071 
	C647.893066,202.293274 648.250916,203.540222 648.953857,204.642426 
z"/>
<path fill="#C2BAD3" opacity="1.000000" stroke="none" 
	d="
M499.269409,624.972473 
	C493.863464,622.743713 488.175293,620.289124 482.386444,617.528564 
	C487.250427,618.821289 492.247009,620.331726 497.148560,622.104858 
	C497.972229,622.402832 498.384735,623.837219 499.269409,624.972473 
z"/>
<path fill="#AAA0C9" opacity="1.000000" stroke="none" 
	d="
M257.642029,303.235260 
	C254.554840,307.973236 251.189331,312.891205 247.493011,317.832214 
	C249.085663,311.998383 252.220963,306.997711 257.642029,303.235260 
z"/>
<path fill="#CEC7DC" opacity="1.000000" stroke="none" 
	d="
M435.498260,495.240814 
	C436.683411,500.546539 437.522552,506.078949 438.083191,511.773499 
	C436.920563,506.446259 436.036407,500.956879 435.498260,495.240814 
z"/>
<path fill="#D4D2E0" opacity="1.000000" stroke="none" 
	d="
M767.455444,594.542480 
	C769.882874,590.542236 772.558350,586.317871 775.540649,581.957764 
	C776.489746,588.175171 771.876526,591.103333 767.455444,594.542480 
z"/>
<path fill="#968BC0" opacity="1.000000" stroke="none" 
	d="
M564.470337,526.105835 
	C558.808228,529.070435 552.599609,528.360229 546.193787,526.221924 
	C552.016357,525.943787 558.011475,526.007080 564.470337,526.105835 
z"/>
<path fill="#E0DFE7" opacity="1.000000" stroke="none" 
	d="
M467.870453,175.629395 
	C462.268433,176.831696 456.432190,177.673965 450.392273,178.675339 
	C450.554901,178.300812 450.864410,177.355515 451.296112,177.295975 
	C456.732574,176.546082 462.186676,175.924057 467.870453,175.629395 
z"/>
<path fill="#A293C6" opacity="1.000000" stroke="none" 
	d="
M344.407318,307.066864 
	C347.472168,303.708466 350.914703,300.335754 354.719360,296.986053 
	C352.433990,301.161346 349.573730,305.095459 344.407318,307.066864 
z"/>
<path fill="#968BC0" opacity="1.000000" stroke="none" 
	d="
M285.654968,268.977661 
	C282.179657,273.184753 278.360474,277.470673 274.223633,281.865570 
	C277.707703,277.668518 281.509399,273.362518 285.654968,268.977661 
z"/>
<path fill="#CEC7DC" opacity="1.000000" stroke="none" 
	d="
M403.023895,265.062256 
	C405.816528,263.887268 408.609131,262.712280 411.601593,261.387177 
	C411.658508,262.127808 411.802734,263.565735 411.324127,263.816925 
	C408.944427,265.065948 406.400726,266.002472 403.472931,267.038940 
	C403.031067,267.028809 402.950592,266.948792 402.966125,266.634521 
	C402.995758,265.900909 403.009827,265.481567 403.023895,265.062256 
z"/>
<path fill="#F8F8FC" opacity="1.000000" stroke="none" 
	d="
M435.478912,473.973846 
	C435.650757,478.364471 435.385071,482.769318 435.037720,487.635223 
	C434.323364,487.756317 433.151459,487.432770 433.140533,487.073944 
	C433.016724,483.002502 433.028076,478.924316 433.161499,474.853149 
	C433.171631,474.544586 434.386475,474.275513 435.478912,473.973846 
z"/>
<path fill="#EDEFF0" opacity="1.000000" stroke="none" 
	d="
M271.449829,503.817322 
	C271.085602,504.050873 270.635193,503.880981 270.398376,503.924255 
	C270.062012,502.611298 269.962463,501.255127 269.822083,499.492188 
	C269.848206,496.347076 269.915161,493.608734 270.032104,490.416565 
	C270.731750,490.769318 271.910034,491.556580 271.940308,492.385803 
	C272.076385,496.111938 271.886414,499.850006 271.449829,503.817322 
z"/>
<path fill="#AAA0C9" opacity="1.000000" stroke="none" 
	d="
M739.002686,469.300903 
	C738.831543,468.519806 738.952393,468.253693 739.462646,468.028778 
	C739.387024,472.167511 739.084961,476.339050 738.485413,480.663818 
	C738.502502,477.125366 738.817139,473.433624 739.002686,469.300903 
z"/>
<path fill="#968BC0" opacity="1.000000" stroke="none" 
	d="
M363.996643,684.703613 
	C360.753479,682.202087 357.325012,679.411316 353.966980,676.265930 
	C357.295380,678.745667 360.553375,681.580017 363.996643,684.703613 
z"/>
<path fill="#F8F8FC" opacity="1.000000" stroke="none" 
	d="
M519.042114,295.509827 
	C515.003723,295.999329 510.919952,296.055389 506.371643,296.033752 
	C505.995636,295.476349 506.095886,294.575317 506.171051,294.577393 
	C510.447632,294.696106 514.722046,294.889954 519.042114,295.509827 
z"/>
<path fill="#968BC0" opacity="1.000000" stroke="none" 
	d="
M420.062653,566.620117 
	C418.457916,564.879089 416.820801,562.757385 415.127563,560.280701 
	C416.724396,562.030334 418.377319,564.134827 420.062653,566.620117 
z"/>
<path fill="#A293C6" opacity="1.000000" stroke="none" 
	d="
M337.462097,312.871216 
	C339.221832,310.979156 341.310974,309.045105 343.745850,307.054260 
	C341.991577,308.941376 339.891541,310.885284 337.462097,312.871216 
z"/>
<path fill="#B9B3D4" opacity="1.000000" stroke="none" 
	d="
M681.676636,312.344635 
	C683.742798,314.122467 685.680603,316.251007 687.767822,318.676819 
	C685.794250,316.881195 683.671265,314.788269 681.676636,312.344635 
z"/>
<path fill="#E0DFE7" opacity="1.000000" stroke="none" 
	d="
M601.479004,701.886780 
	C601.036194,701.419250 601.029663,701.009399 601.011963,700.292236 
	C602.013672,699.916809 603.026550,699.848694 604.847656,699.866943 
	C606.818481,699.976685 607.980957,700.000061 609.143433,700.023438 
	C607.720337,704.374817 604.227051,700.936951 601.479004,701.886780 
z"/>
<path fill="#968BC0" opacity="1.000000" stroke="none" 
	d="
M428.028870,576.627258 
	C426.432129,575.195923 424.775146,573.404602 423.057678,571.261047 
	C424.654327,572.694946 426.311493,574.481140 428.028870,576.627258 
z"/>
<path fill="#E0DFE7" opacity="1.000000" stroke="none" 
	d="
M695.476318,576.163208 
	C694.089172,577.904358 692.370422,579.707031 690.393677,581.545410 
	C691.805298,579.795593 693.475037,578.010193 695.476318,576.163208 
z"/>
<path fill="#968BC0" opacity="1.000000" stroke="none" 
	d="
M461.910400,606.682617 
	C459.807831,605.497009 457.521423,604.023804 455.107697,602.234375 
	C457.229095,603.410400 459.477844,604.902710 461.910400,606.682617 
z"/>
<path fill="#CEC7DC" opacity="1.000000" stroke="none" 
	d="
M396.413544,269.929138 
	C396.011353,269.887939 396.025848,269.411591 396.002808,269.174286 
	C397.065033,268.300995 398.150269,267.665009 399.941284,267.015686 
	C401.414886,266.984528 402.182739,266.966675 402.950592,266.948792 
	C402.950592,266.948792 403.031067,267.028809 403.071411,267.068695 
	C401.013092,268.062500 398.914398,269.016449 396.413544,269.929138 
z"/>
<path fill="#968BC0" opacity="1.000000" stroke="none" 
	d="
M454.907654,601.665527 
	C453.009735,600.533813 450.928802,599.079590 448.942627,597.270996 
	C450.933105,598.392029 452.828888,599.867554 454.907654,601.665527 
z"/>
<path fill="#968BC0" opacity="1.000000" stroke="none" 
	d="
M290.641724,263.994751 
	C289.485657,265.510925 287.993683,267.106659 286.208679,268.865784 
	C287.378998,267.377533 288.842377,265.725922 290.641724,263.994751 
z"/>
<path fill="#AAA0C9" opacity="1.000000" stroke="none" 
	d="
M266.450378,291.165039 
	C265.641052,292.943085 264.502655,294.779572 263.105713,296.830292 
	C263.938568,295.104156 265.029938,293.163818 266.450378,291.165039 
z"/>
<path fill="#968BC0" opacity="1.000000" stroke="none" 
	d="
M473.829773,613.601562 
	C472.346741,613.164001 470.696228,612.436340 468.938293,611.407959 
	C470.441315,611.841980 472.051788,612.576721 473.829773,613.601562 
z"/>
<path fill="#7B68AC" opacity="1.000000" stroke="none" 
	d="
M516.050476,512.626587 
	C514.760742,511.858032 513.420349,510.736877 512.050293,509.263977 
	C513.347046,510.032806 514.673462,511.153381 516.050476,512.626587 
z"/>
<path fill="#A293C6" opacity="1.000000" stroke="none" 
	d="
M609.385864,700.014893 
	C607.980957,700.000061 606.818481,699.976685 605.228516,699.866821 
	C606.320068,699.174866 607.839111,698.569397 609.745728,698.332153 
	C610.112488,699.069397 610.091736,699.438354 610.070984,699.807373 
	C610.070984,699.807373 609.628357,700.006409 609.385864,700.014893 
z"/>
<path fill="#968BC0" opacity="1.000000" stroke="none" 
	d="
M466.907104,609.703308 
	C465.491852,609.173157 463.899353,608.343567 462.155701,607.206909 
	C463.579651,607.734436 465.154755,608.569153 466.907104,609.703308 
z"/>
<path fill="#D4D2E0" opacity="1.000000" stroke="none" 
	d="
M762.417908,601.583130 
	C763.147644,600.393921 764.130920,599.000854 765.051758,597.248169 
	C764.216675,598.385376 763.444031,599.882324 762.417908,601.583130 
z"/>
<path fill="#968BC0" opacity="1.000000" stroke="none" 
	d="
M414.979156,559.526978 
	C414.136139,558.773010 413.213440,557.683594 412.179443,556.280457 
	C413.011902,557.041626 413.955719,558.116516 414.979156,559.526978 
z"/>
<path fill="#E0DFE7" opacity="1.000000" stroke="none" 
	d="
M610.470154,699.867065 
	C610.091736,699.438354 610.112488,699.069397 610.113037,698.423645 
	C611.562195,698.325684 613.031433,698.504456 614.863647,698.819214 
	C613.774109,699.279114 612.321716,699.602905 610.470154,699.867065 
z"/>
<path fill="#AAA0C9" opacity="1.000000" stroke="none" 
	d="
M271.725311,283.998169 
	C271.195923,285.134552 270.381897,286.455902 269.241089,287.901947 
	C269.756439,286.745483 270.598541,285.464294 271.725311,283.998169 
z"/>
<path fill="#968BC0" opacity="1.000000" stroke="none" 
	d="
M422.914917,570.691406 
	C422.085510,569.879150 421.080688,568.751648 420.038879,567.267883 
	C420.914459,568.066467 421.826996,569.221252 422.914917,570.691406 
z"/>
<path fill="#968BC0" opacity="1.000000" stroke="none" 
	d="
M293.636108,261.003845 
	C293.123932,261.834076 292.282043,262.743500 291.177765,263.843506 
	C291.712372,263.050415 292.509369,262.066742 293.636108,261.003845 
z"/>
<path fill="#AAA0C9" opacity="1.000000" stroke="none" 
	d="
M262.707703,296.623718 
	C262.260376,297.644989 261.506378,298.472900 260.512421,299.446350 
	C260.981964,298.537994 261.691498,297.484161 262.707703,296.623718 
z"/>
<path fill="#D4D2E0" opacity="1.000000" stroke="none" 
	d="
M609.695190,188.564240 
	C609.435974,188.567413 609.057922,188.408035 608.540161,188.229156 
	C608.792419,188.273666 609.184448,188.337677 609.695190,188.564240 
z"/>
<path fill="#AAA0C9" opacity="1.000000" stroke="none" 
	d="
M268.760376,288.079254 
	C268.493652,288.716705 267.966034,289.520691 267.280487,290.545654 
	C267.581543,289.926331 268.040497,289.086060 268.760376,288.079254 
z"/>
<path fill="#C2BAD3" opacity="1.000000" stroke="none" 
	d="
M712.401306,652.618286 
	C713.008667,652.431458 713.846802,652.094727 714.754883,651.479065 
	C714.093872,651.622864 713.362976,652.045593 712.401306,652.618286 
z"/>
<path fill="#D4D2E0" opacity="1.000000" stroke="none" 
	d="
M765.156128,597.288513 
	C765.451477,596.683533 766.011414,596.307434 766.644165,595.696045 
	C766.284973,596.146362 765.852783,596.831848 765.156128,597.288513 
z"/>
<path fill="#C2BAD3" opacity="1.000000" stroke="none" 
	d="
M715.423828,650.686646 
	C715.713196,650.420654 716.198181,650.027466 716.761719,649.410095 
	C716.433411,649.643799 716.026428,650.101624 715.423828,650.686646 
z"/>
<path fill="#A293C6" opacity="1.000000" stroke="none" 
	d="
M358.228333,293.922272 
	C358.484009,293.511444 358.978760,292.943665 359.717010,292.238403 
	C359.462799,292.655762 358.965088,293.210541 358.228333,293.922272 
z"/>
<path fill="#7B68AC" opacity="1.000000" stroke="none" 
	d="
M517.708374,514.035645 
	C517.345520,513.903870 516.705566,513.670166 516.041748,513.172852 
	C516.488953,513.250793 516.960083,513.592285 517.708374,514.035645 
z"/>
<path fill="#A293C6" opacity="1.000000" stroke="none" 
	d="
M356.241638,295.943481 
	C356.480286,295.473724 356.982727,294.865509 357.773376,294.151611 
	C357.542847,294.632263 357.024139,295.218658 356.241638,295.943481 
z"/>
<path fill="#CEC7DC" opacity="1.000000" stroke="none" 
	d="
M338.201752,752.285217 
	C338.278473,752.401001 338.439453,752.677185 338.732971,752.910767 
	C338.622955,752.794983 338.429810,752.654114 338.201752,752.285217 
z"/>
<path fill="#A293C6" opacity="1.000000" stroke="none" 
	d="
M335.310425,314.816406 
	C335.288574,314.612488 335.537628,314.434753 335.902405,314.231323 
	C335.845215,314.356384 335.699615,314.568726 335.310425,314.816406 
z"/>
<path fill="#B9B3D4" opacity="1.000000" stroke="none" 
	d="
M661.157715,293.251282 
	C661.245850,293.316406 661.382263,293.565887 661.546265,293.872070 
	C661.478577,293.735443 661.355957,293.571045 661.157715,293.251282 
z"/>
<path fill="#B9B3D4" opacity="1.000000" stroke="none" 
	d="
M632.478149,197.121506 
	C632.343994,197.142654 632.216492,197.269470 632.173645,197.335144 
	C632.340149,197.378021 632.500671,197.277878 632.478149,197.121506 
z"/>
<path fill="#A293C6" opacity="1.000000" stroke="none" 
	d="
M355.204742,296.956238 
	C355.200653,296.818848 355.451843,296.575470 355.881165,296.139465 
	C355.859558,296.247955 355.659790,296.549103 355.204742,296.956238 
z"/>
<path fill="#D4D2E0" opacity="1.000000" stroke="none" 
	d="
M656.329590,685.644165 
	C656.453491,685.620911 656.749023,685.583679 656.942627,685.283325 
	C656.777100,685.251038 656.663940,685.454346 656.329590,685.644165 
z"/>
<path fill="#B9B3D4" opacity="1.000000" stroke="none" 
	d="
M615.109070,474.517517 
	C615.115051,474.642151 615.233032,474.766388 615.296143,474.811035 
	C615.339600,474.664642 615.254211,474.510406 615.109070,474.517517 
z"/>
<path fill="#B9B3D4" opacity="1.000000" stroke="none" 
	d="
M583.700134,633.316650 
	C583.802673,633.330627 583.546814,633.082825 583.546814,633.082825 
	C583.546814,633.082825 583.207581,633.185059 583.244751,633.350098 
	C583.281860,633.515198 583.597595,633.302673 583.700134,633.316650 
z"/>
<path fill="#B9B3D4" opacity="1.000000" stroke="none" 
	d="
M539.573486,633.194458 
	C539.580505,633.098877 539.327393,633.137268 539.252258,633.238525 
	C539.177124,633.339722 539.566406,633.290039 539.573486,633.194458 
z"/>
<path fill="#AAA0C9" opacity="1.000000" stroke="none" 
	d="
M259.740875,301.183807 
	C259.562866,301.172546 259.186890,301.247833 258.926025,301.644287 
	C259.143951,301.687256 259.311188,301.455566 259.740875,301.183807 
z"/>
<path fill="#968BC0" opacity="1.000000" stroke="none" 
	d="
M468.135437,610.795288 
	C467.985229,610.822327 467.652985,610.608948 467.140289,610.162415 
	C467.291016,610.137817 467.622192,610.346375 468.135437,610.795288 
z"/>
<path fill="#CEC7DC" opacity="1.000000" stroke="none" 
	d="
M625.351501,269.384888 
	C625.275818,269.429047 625.200806,269.615997 625.198975,269.803619 
	C625.198242,269.882202 625.352478,269.962341 625.678345,269.922241 
	C625.716492,269.758698 625.536987,269.667114 625.351501,269.384888 
z"/>
<path fill="#968BC0" opacity="1.000000" stroke="none" 
	d="
M545.939819,525.875183 
	C546.151855,525.713379 546.043823,525.475769 545.467590,525.281982 
	C545.566833,525.235901 545.773621,525.393677 545.939819,525.875183 
z"/>
<path fill="#C2BAD3" opacity="1.000000" stroke="none" 
	d="
M402.966125,266.634521 
	C402.182739,266.966675 401.414886,266.984528 400.263489,266.974915 
	C400.716705,266.314545 401.553406,265.681641 402.707001,265.055481 
	C403.009827,265.481567 402.995758,265.900909 402.966125,266.634521 
z"/>
</svg>